{
.appVersion = "919";
copyright = "Copyright (c) 2011, FontFuror (info@fontfuror.com), with Reserved Font Names \"Enriqueta\" and \"Enriqueta Pro\".";
customParameters = (
{
name = licenseURL;
value = "http://scripts.sil.org/OFL";
},
{
name = trademark;
value = "Enriqueta is a trademark of Viviana Monsalve & Gustavo Ibarra.";
},
{
name = license;
value = "This Font Software is licensed under the SIL Open Font License, Version 1.1. This license is available with a FAQ at: http://scripts.sil.org/OFL";
},
{
name = fsType;
value = 0;
}
);
date = "2016-09-05 13:32:36 +0000";
designer = "Viviana Monsalve, Gustavo Ibarra";
designerURL = "http://www.fontfuror.com";
familyName = Enriqueta;
fontMaster = (
{
alignmentZones = (
"{780, 10}",
"{720, 10}",
"{480, 10}",
"{0, -10}",
"{-240, -10}"
);
ascender = 1062;
capHeight = 720;
customParameters = (
{
name = typoDescender;
value = -261;
},
{
name = typoLineGap;
value = 0;
},
{
name = hheaLineGap;
value = 0;
},
{
name = hheaAscender;
value = 1077;
},
{
name = typoAscender;
value = 1077;
},
{
name = hheaDescender;
value = -261;
},
{
name = winDescent;
value = 261;
},
{
name = winAscent;
value = 1077;
}
);
descender = -251;
horizontalStems = (
69
);
id = UUID0;
verticalStems = (
79,
86,
86,
97
);
weightValue = 400;
xHeight = 480;
},
{
alignmentZones = (
"{780, 10}",
"{720, 10}",
"{510, 10}",
"{485, 10}",
"{0, -10}",
"{-164, -10}",
"{-240, -10}"
);
ascender = 1062;
capHeight = 700;
customParameters = (
{
name = typoDescender;
value = -261;
},
{
name = typoLineGap;
value = 0;
},
{
name = hheaLineGap;
value = 0;
},
{
name = hheaAscender;
value = 1077;
},
{
name = typoAscender;
value = 1077;
},
{
name = hheaDescender;
value = -261;
},
{
name = winDescent;
value = 261;
},
{
name = winAscent;
value = 1077;
}
);
descender = -251;
id = "986A7A88-D3C4-446F-ACB8-D1DF408CF975";
weight = Bold;
weightValue = 700;
xHeight = 500;
}
);
glyphs = (
{
glyphname = A;
lastChange = "2016-09-05 13:29:48 +0000";
layers = (
{
anchors = (
{
name = top;
position = "{329, 190}";
}
);
layerId = UUID0;
paths = (
{
closed = 1;
nodes = (
"592 112 LINE",
"604 77 OFFCURVE",
"615 71 OFFCURVE",
"640 66 CURVE SMOOTH",
"679 59 LINE",
"679 0 LINE",
"422 0 LINE",
"422 57 LINE",
"477 66 LINE SMOOTH",
"495 69 OFFCURVE",
"503 77 OFFCURVE",
"503 90 CURVE SMOOTH",
"503 96 OFFCURVE",
"502 102 OFFCURVE",
"499 110 CURVE SMOOTH",
"333 589 LINE",
"302 720 LINE",
"378 720 LINE"
);
},
{
closed = 1;
nodes = (
"285 720 LINE",
"343 720 LINE",
"311 589 LINE",
"148 113 LINE SMOOTH",
"145 105 OFFCURVE",
"144 98 OFFCURVE",
"144 92 CURVE SMOOTH",
"144 77 OFFCURVE",
"153 69 OFFCURVE",
"171 66 CURVE SMOOTH",
"225 57 LINE",
"225 0 LINE",
"-15 0 LINE",
"-15 59 LINE",
"23 66 LINE SMOOTH",
"48 71 OFFCURVE",
"58 77 OFFCURVE",
"70 112 CURVE SMOOTH"
);
},
{
closed = 1;
nodes = (
"163 307 LINE",
"477 307 LINE",
"477 237 LINE",
"163 237 LINE"
);
}
);
width = 663;
},
{
anchors = (
{
name = bottom;
position = "{605, 0}";
},
{
name = top;
position = "{350, 190}";
}
);
layerId = "986A7A88-D3C4-446F-ACB8-D1DF408CF975";
paths = (
{
closed = 1;
nodes = (
"82 132 LINE",
"69 96 OFFCURVE",
"60 91 OFFCURVE",
"35 86 CURVE SMOOTH",
"2 79 LINE",
"2 0 LINE",
"275 0 LINE",
"275 77 LINE",
"226 86 LINE SMOOTH",
"206 89 OFFCURVE",
"198 97 OFFCURVE",
"198 110 CURVE SMOOTH",
"198 116 OFFCURVE",
"200 124 OFFCURVE",
"203 133 CURVE SMOOTH",
"231 218 LINE",
"455 218 LINE",
"486 130 LINE SMOOTH",
"489 120 OFFCURVE",
"491 113 OFFCURVE",
"491 107 CURVE SMOOTH",
"491 95 OFFCURVE",
"483 89 OFFCURVE",
"464 86 CURVE SMOOTH",
"414 77 LINE",
"414 0 LINE",
"703 0 LINE",
"703 79 LINE",
"669 86 LINE SMOOTH",
"643 91 OFFCURVE",
"634 96 OFFCURVE",
"621 132 CURVE SMOOTH",
"409 720 LINE",
"290 720 LINE"
);
},
{
closed = 1;
nodes = (
"420 316 LINE",
"264 316 LINE",
"330 510 LINE",
"340 559 LINE",
"353 508 LINE"
);
}
);
width = 705;
}
);
unicode = 0041;
},
{
color = 7;
glyphname = Aacute;
lastChange = "2016-09-05 13:29:48 +0000";
layers = (
{
components = (
{
name = A;
}
);
layerId = UUID0;
paths = (
{
closed = 1;
nodes = (
"510 868 LINE",
"357 764 LINE SMOOTH",
"346 757 OFFCURVE",
"338 754 OFFCURVE",
"330 754 CURVE SMOOTH",
"310 754 OFFCURVE",
"294 769 OFFCURVE",
"282 783 CURVE",
"461 935 LINE"
);
}
);
width = 663;
},
{
components = (
{
name = A;
},
{
name = acute.case;
transform = "{1, 0, 0, 1, 263, 0}";
}
);
layerId = "986A7A88-D3C4-446F-ACB8-D1DF408CF975";
width = 705;
}
);
unicode = 00C1;
},
{
color = 7;
glyphname = Acircumflex;
lastChange = "2016-09-05 13:29:48 +0000";
layers = (
{
components = (
{
name = A;
}
);
layerId = UUID0;
paths = (
{
closed = 1;
nodes = (
"369 913 LINE",
"483 778 LINE",
"445 746 LINE",
"331 852 LINE",
"218 746 LINE",
"179 778 LINE",
"294 913 LINE"
);
}
);
width = 663;
},
{
components = (
{
name = A;
},
{
name = circumflex.case;
transform = "{1, 0, 0, 1, 222, 0}";
}
);
layerId = "986A7A88-D3C4-446F-ACB8-D1DF408CF975";
width = 705;
}
);
unicode = 00C2;
},
{
color = 7;
glyphname = Agrave;
lastChange = "2016-09-05 13:29:48 +0000";
layers = (
{
components = (
{
name = A;
}
);
layerId = UUID0;
paths = (
{
closed = 1;
nodes = (
"156 868 LINE",
"309 764 LINE SMOOTH",
"320 757 OFFCURVE",
"328 754 OFFCURVE",
"336 754 CURVE SMOOTH",
"356 754 OFFCURVE",
"372 769 OFFCURVE",
"384 783 CURVE",
"205 935 LINE"
);
}
);
width = 663;
},
{
components = (
{
name = A;
},
{
name = grave.case;
transform = "{1, 0, 0, 1, 172, 0}";
}
);
layerId = "986A7A88-D3C4-446F-ACB8-D1DF408CF975";
width = 705;
}
);
unicode = 00C0;
},
{
color = 7;
glyphname = Aringacute;
lastChange = "2016-09-05 13:29:48 +0000";
layers = (
{
layerId = UUID0;
paths = (
{
closed = 1;
nodes = (
"589 112 LINE",
"601 77 OFFCURVE",
"612 71 OFFCURVE",
"637 66 CURVE SMOOTH",
"676 59 LINE",
"676 0 LINE",
"419 0 LINE",
"419 57 LINE",
"474 66 LINE SMOOTH",
"492 69 OFFCURVE",
"500 77 OFFCURVE",
"500 90 CURVE SMOOTH",
"500 96 OFFCURVE",
"499 102 OFFCURVE",
"496 110 CURVE SMOOTH",
"334 562 LINE",
"299 688 LINE",
"375 688 LINE"
);
},
{
closed = 1;
nodes = (
"282 688 LINE",
"340 688 LINE",
"304 562 LINE",
"145 113 LINE SMOOTH",
"142 105 OFFCURVE",
"141 98 OFFCURVE",
"141 92 CURVE SMOOTH",
"141 77 OFFCURVE",
"150 69 OFFCURVE",
"168 66 CURVE SMOOTH",
"222 57 LINE",
"222 0 LINE",
"-18 0 LINE",
"-18 59 LINE",
"20 66 LINE SMOOTH",
"45 71 OFFCURVE",
"55 77 OFFCURVE",
"67 112 CURVE SMOOTH"
);
},
{
closed = 1;
nodes = (
"160 297 LINE",
"474 297 LINE",
"474 227 LINE",
"160 227 LINE"
);
},
{
closed = 1;
nodes = (
"421 766 LINE SMOOTH",
"421 721 OFFCURVE",
"386 671 OFFCURVE",
"321 671 CURVE SMOOTH",
"261 671 OFFCURVE",
"230 718 OFFCURVE",
"230 763 CURVE SMOOTH",
"230 808 OFFCURVE",
"265 858 OFFCURVE",
"330 858 CURVE SMOOTH",
"390 858 OFFCURVE",
"421 811 OFFCURVE",
"421 766 CURVE SMOOTH"
);
},
{
closed = 1;
nodes = (
"371 768 LINE SMOOTH",
"371 793 OFFCURVE",
"350 810 OFFCURVE",
"325 810 CURVE SMOOTH",
"295 810 OFFCURVE",
"280 790 OFFCURVE",
"280 760 CURVE SMOOTH",
"280 735 OFFCURVE",
"301 718 OFFCURVE",
"326 718 CURVE SMOOTH",
"356 718 OFFCURVE",
"371 738 OFFCURVE",
"371 768 CURVE SMOOTH"
);
},
{
closed = 1;
nodes = (
"495 995 LINE",
"342 891 LINE SMOOTH",
"331 884 OFFCURVE",
"323 881 OFFCURVE",
"315 881 CURVE SMOOTH",
"295 881 OFFCURVE",
"279 896 OFFCURVE",
"267 910 CURVE",
"446 1062 LINE"
);
}
);
width = 657;
},
{
components = (
{
name = ring;
transform = "{1, 0, 0, 1, 194, 110}";
},
{
name = acute.case;
transform = "{1, 0, 0, 1, 267, 133}";
}
);
layerId = "986A7A88-D3C4-446F-ACB8-D1DF408CF975";
paths = (
{
closed = 1;
nodes = (
"82 132 LINE",
"69 96 OFFCURVE",
"60 91 OFFCURVE",
"35 86 CURVE SMOOTH",
"2 79 LINE",
"2 0 LINE",
"275 0 LINE",
"275 77 LINE",
"226 86 LINE SMOOTH",
"206 89 OFFCURVE",
"198 97 OFFCURVE",
"198 110 CURVE SMOOTH",
"198 116 OFFCURVE",
"200 124 OFFCURVE",
"203 133 CURVE SMOOTH",
"235 218 LINE",
"451 218 LINE",
"486 130 LINE SMOOTH",
"489 120 OFFCURVE",
"491 113 OFFCURVE",
"491 107 CURVE SMOOTH",
"491 95 OFFCURVE",
"483 89 OFFCURVE",
"464 86 CURVE SMOOTH",
"414 77 LINE",
"414 0 LINE",
"703 0 LINE",
"703 79 LINE",
"669 86 LINE SMOOTH",
"643 91 OFFCURVE",
"634 96 OFFCURVE",
"621 132 CURVE SMOOTH",
"409 684 LINE",
"290 684 LINE"
);
},
{
closed = 1;
nodes = (
"418 316 LINE",
"266 316 LINE",
"330 485 LINE",
"340 534 LINE",
"353 483 LINE"
);
}
);
width = 705;
}
);
unicode = 01FA;
},
{
color = 7;
glyphname = AE;
lastChange = "2016-09-05 13:29:48 +0000";
layers = (
{
layerId = UUID0;
paths = (
{
closed = 1;
nodes = (
"385 0 LINE",
"385 60 LINE",
"438 69 LINE SMOOTH",
"463 73 OFFCURVE",
"467 82 OFFCURVE",
"467 107 CURVE SMOOTH",
"467 607 LINE SMOOTH",
"467 632 OFFCURVE",
"463 645 OFFCURVE",
"438 647 CURVE SMOOTH",
"385 651 LINE",
"385 720 LINE",
"877 720 LINE",
"871 548 LINE",
"807 548 LINE",
"801 618 LINE SMOOTH",
"799 643 OFFCURVE",
"787 647 OFFCURVE",
"763 647 CURVE SMOOTH",
"550 647 LINE",
"550 374 LINE",
"769 374 LINE",
"769 304 LINE",
"550 304 LINE",
"550 73 LINE",
"773 73 LINE SMOOTH",
"797 73 OFFCURVE",
"809 77 OFFCURVE",
"811 102 CURVE SMOOTH",
"817 177 LINE",
"884 177 LINE",
"890 0 LINE"
);
},
{
closed = 1;
nodes = (
"347 720 LINE",
"417 720 LINE",
"190 113 LINE SMOOTH",
"187 105 OFFCURVE",
"185 98 OFFCURVE",
"185 92 CURVE SMOOTH",
"185 77 OFFCURVE",
"195 69 OFFCURVE",
"213 66 CURVE SMOOTH",
"267 57 LINE",
"267 0 LINE",
"23 0 LINE",
"23 59 LINE",
"65 66 LINE SMOOTH",
"90 71 OFFCURVE",
"99 77 OFFCURVE",
"112 112 CURVE SMOOTH"
);
},
{
closed = 1;
nodes = (
"246 373 LINE",
"512 373 LINE",
"512 303 LINE",
"246 303 LINE"
);
},
{
closed = 1;
nodes = (
"341 618 LINE",
"341 631 OFFCURVE",
"337 657 OFFCURVE",
"312 659 CURVE SMOOTH",
"259 664 LINE",
"259 720 LINE",
"363 720 LINE",
"363 618 LINE"
);
}
);
width = 929;
},
{
anchors = (
{
name = top;
position = "{507, 190}";
}
);
layerId = "986A7A88-D3C4-446F-ACB8-D1DF408CF975";
paths = (
{
closed = 1;
nodes = (
"236 720 LINE",
"873 720 LINE",
"866 522 LINE",
"777 522 LINE",
"772 587 LINE SMOOTH",
"770 612 OFFCURVE",
"758 616 OFFCURVE",
"734 616 CURVE SMOOTH",
"572 616 LINE",
"572 426 LINE",
"770 426 LINE",
"770 322 LINE",
"572 322 LINE",
"572 104 LINE",
"754 104 LINE SMOOTH",
"778 104 OFFCURVE",
"790 108 OFFCURVE",
"792 133 CURVE SMOOTH",
"798 208 LINE",
"885 208 LINE",
"892 0 LINE",
"367 0 LINE",
"367 80 LINE",
"416 89 LINE",
"441 92 OFFCURVE",
"445 102 OFFCURVE",
"445 127 CURVE SMOOTH",
"445 322 LINE",
"275 322 LINE",
"204 133 LINE SMOOTH",
"201 126 OFFCURVE",
"199 120 OFFCURVE",
"199 112 CURVE SMOOTH",
"199 97 OFFCURVE",
"209 89 OFFCURVE",
"227 86 CURVE SMOOTH",
"276 77 LINE",
"276 0 LINE",
"2 0 LINE",
"2 79 LINE",
"39 86 LINE SMOOTH",
"64 90 OFFCURVE",
"73 97 OFFCURVE",
"86 132 CURVE SMOOTH",
"283 641 LINE",
"236 645 LINE"
);
},
{
closed = 1;
nodes = (
"445 588 LINE",
"445 613 OFFCURVE",
"441 626 OFFCURVE",
"416 628 CURVE SMOOTH",
"390 630 LINE",
"314 426 LINE",
"445 426 LINE"
);
}
);
width = 946;
}
);
unicode = 00C6;
},
{
color = 7;
glyphname = AEacute;
lastChange = "2016-09-05 13:29:48 +0000";
layers = (
{
components = (
{
name = AE;
}
);
layerId = UUID0;
paths = (
{
closed = 1;
nodes = (
"680 868 LINE",
"527 764 LINE SMOOTH",
"516 757 OFFCURVE",
"508 754 OFFCURVE",
"500 754 CURVE SMOOTH",
"480 754 OFFCURVE",
"464 769 OFFCURVE",
"452 783 CURVE",
"631 935 LINE"
);
}
);
width = 949;
},
{
components = (
{
name = AE;
},
{
name = acute.case;
transform = "{1, 0, 0, 1, 420, 0}";
}
);
layerId = "986A7A88-D3C4-446F-ACB8-D1DF408CF975";
width = 946;
}
);
unicode = 01FC;
},
{
glyphname = B;
lastChange = "2016-09-05 13:29:48 +0000";
layers = (
{
layerId = UUID0;
paths = (
{
closed = 1;
nodes = (
"140 614 LINE",
"140 639 OFFCURVE",
"136 648 OFFCURVE",
"111 652 CURVE SMOOTH",
"58 661 LINE",
"58 720 LINE",
"314 720 LINE SMOOTH",
"452 720 OFFCURVE",
"544 693 OFFCURVE",
"544 558 CURVE SMOOTH",
"544 461 OFFCURVE",
"478 399 OFFCURVE",
"431 387 CURVE",
"522 379 OFFCURVE",
"594 332 OFFCURVE",
"594 217 CURVE SMOOTH",
"594 81 OFFCURVE",
"499 0 OFFCURVE",
"348 0 CURVE SMOOTH",
"58 0 LINE",
"58 59 LINE",
"111 68 LINE SMOOTH",
"136 72 OFFCURVE",
"140 81 OFFCURVE",
"140 106 CURVE SMOOTH"
);
},
{
closed = 1;
nodes = (
"226 408 LINE",
"304 408 LINE SMOOTH",
"345 408 OFFCURVE",
"385 410 OFFCURVE",
"413 431 CURVE SMOOTH",
"441 452 OFFCURVE",
"450 494 OFFCURVE",
"450 541 CURVE SMOOTH",
"450 633 OFFCURVE",
"381 650 OFFCURVE",
"291 650 CURVE SMOOTH",
"226 650 LINE"
);
},
{
closed = 1;
nodes = (
"226 70 LINE",
"334 70 LINE SMOOTH",
"378 70 OFFCURVE",
"418 74 OFFCURVE",
"449 92 CURVE SMOOTH",
"484 113 OFFCURVE",
"500 155 OFFCURVE",
"500 215 CURVE SMOOTH",
"500 310 OFFCURVE",
"429 340 OFFCURVE",
"334 340 CURVE SMOOTH",
"226 340 LINE"
);
}
);
width = 618;
},
{
layerId = "986A7A88-D3C4-446F-ACB8-D1DF408CF975";
paths = (
{
closed = 1;
nodes = (
"125 126 LINE",
"125 101 OFFCURVE",
"121 93 OFFCURVE",
"96 88 CURVE SMOOTH",
"48 79 LINE",
"48 0 LINE",
"354 0 LINE SMOOTH",
"511 0 OFFCURVE",
"610 81 OFFCURVE",
"610 217 CURVE SMOOTH",
"610 329 OFFCURVE",
"538 374 OFFCURVE",
"447 382 CURVE",
"494 394 OFFCURVE",
"560 458 OFFCURVE",
"560 558 CURVE SMOOTH",
"560 693 OFFCURVE",
"464 720 OFFCURVE",
"320 720 CURVE SMOOTH",
"48 720 LINE",
"48 641 LINE",
"96 632 LINE SMOOTH",
"121 627 OFFCURVE",
"125 619 OFFCURVE",
"125 594 CURVE"
);
},
{
closed = 1;
nodes = (
"252 620 LINE",
"302 620 LINE SMOOTH",
"371 620 OFFCURVE",
"426 606 OFFCURVE",
"426 529 CURVE SMOOTH",
"426 488 OFFCURVE",
"421 449 OFFCURVE",
"389 431 CURVE SMOOTH",
"369 418 OFFCURVE",
"339 418 OFFCURVE",
"310 418 CURVE SMOOTH",
"252 418 LINE"
);
},
{
closed = 1;
nodes = (
"252 320 LINE",
"340 320 LINE SMOOTH",
"417 320 OFFCURVE",
"476 294 OFFCURVE",
"476 215 CURVE SMOOTH",
"476 136 OFFCURVE",
"430 100 OFFCURVE",
"345 100 CURVE SMOOTH",
"252 100 LINE"
);
}
);
width = 650;
}
);
unicode = 0042;
},
{
glyphname = C;
lastChange = "2016-09-05 13:29:48 +0000";
layers = (
{
anchors = (
{
name = _top;
position = "{318, 190}";
}
);
layerId = UUID0;
paths = (
{
closed = 1;
nodes = (
"588 50 LINE",
"565 41 OFFCURVE",
"456 -10 OFFCURVE",
"342 -10 CURVE SMOOTH",
"133 -10 OFFCURVE",
"42 122 OFFCURVE",
"42 352 CURVE SMOOTH",
"42 562 OFFCURVE",
"139 730 OFFCURVE",
"368 730 CURVE SMOOTH",
"431 730 OFFCURVE",
"495 726 OFFCURVE",
"592 673 CURVE",
"576 510 LINE",
"504 510 LINE",
"483 620 LINE",
"436 643 OFFCURVE",
"405 655 OFFCURVE",
"338 655 CURVE SMOOTH",
"260 655 OFFCURVE",
"225 631 OFFCURVE",
"195 601 CURVE SMOOTH",
"160 566 OFFCURVE",
"139 433 OFFCURVE",
"139 359 CURVE SMOOTH",
"139 182 OFFCURVE",
"215 68 OFFCURVE",
"360 68 CURVE SMOOTH",
"444 68 OFFCURVE",
"544 106 OFFCURVE",
"568 115 CURVE"
);
}
);
width = 636;
},
{
anchors = (
{
name = bottom;
position = "{354, 0}";
},
{
name = top;
position = "{351, 190}";
}
);
layerId = "986A7A88-D3C4-446F-ACB8-D1DF408CF975";
paths = (
{
closed = 1;
nodes = (
"592 140 LINE",
"564 130 OFFCURVE",
"464 98 OFFCURVE",
"372 98 CURVE SMOOTH",
"242 98 OFFCURVE",
"176 200 OFFCURVE",
"176 359 CURVE SMOOTH",
"176 428 OFFCURVE",
"195 560 OFFCURVE",
"232 591 CURVE SMOOTH",
"256 611 OFFCURVE",
"287 625 OFFCURVE",
"350 625 CURVE SMOOTH",
"411 625 OFFCURVE",
"439 618 OFFCURVE",
"480 605 CURVE",
"501 500 LINE",
"598 500 LINE",
"614 673 LINE",
"513 726 OFFCURVE",
"445 730 OFFCURVE",
"380 730 CURVE SMOOTH",
"139 730 OFFCURVE",
"39 562 OFFCURVE",
"39 352 CURVE SMOOTH",
"39 122 OFFCURVE",
"136 -10 OFFCURVE",
"354 -10 CURVE SMOOTH",
"476 -10 OFFCURVE",
"592 42 OFFCURVE",
"619 51 CURVE"
);
}
);
width = 663;
}
);
unicode = 0043;
},
{
color = 7;
glyphname = Cacute;
lastChange = "2016-09-05 13:29:48 +0000";
layers = (
{
components = (
{
name = C;
}
);
layerId = UUID0;
paths = (
{
closed = 1;
nodes = (
"519 868 LINE",
"366 764 LINE SMOOTH",
"355 757 OFFCURVE",
"347 754 OFFCURVE",
"339 754 CURVE SMOOTH",
"319 754 OFFCURVE",
"303 769 OFFCURVE",
"291 783 CURVE",
"470 935 LINE"
);
}
);
width = 636;
},
{
components = (
{
name = C;
},
{
name = acute.case;
transform = "{1, 0, 0, 1, 243, 0}";
}
);
layerId = "986A7A88-D3C4-446F-ACB8-D1DF408CF975";
width = 663;
}
);
unicode = 0106;
},
{
color = 7;
glyphname = Ccaron;
lastChange = "2016-09-05 13:29:48 +0000";
layers = (
{
components = (
{
name = C;
}
);
layerId = UUID0;
paths = (
{
closed = 1;
nodes = (
"314 753 LINE",
"200 888 LINE",
"238 920 LINE",
"352 814 LINE",
"465 920 LINE",
"504 888 LINE",
"389 753 LINE"
);
}
);
width = 636;
},
{
components = (
{
name = C;
},
{
name = caron.case;
transform = "{1, 0, 0, 1, 222, 0}";
}
);
layerId = "986A7A88-D3C4-446F-ACB8-D1DF408CF975";
width = 663;
}
);
unicode = 010C;
},
{
color = 7;
glyphname = Ccircumflex;
lastChange = "2016-09-05 13:29:48 +0000";
layers = (
{
components = (
{
name = C;
}
);
layerId = UUID0;
paths = (
{
closed = 1;
nodes = (
"390 913 LINE",
"504 778 LINE",
"466 746 LINE",
"352 852 LINE",
"239 746 LINE",
"200 778 LINE",
"315 913 LINE"
);
}
);
width = 636;
},
{
components = (
{
name = C;
},
{
name = circumflex.case;
transform = "{1, 0, 0, 1, 223, 0}";
}
);
layerId = "986A7A88-D3C4-446F-ACB8-D1DF408CF975";
width = 663;
}
);
unicode = 0108;
},
{
glyphname = D;
lastChange = "2016-09-05 13:29:48 +0000";
layers = (
{
layerId = UUID0;
paths = (
{
closed = 1;
nodes = (
"575 370 LINE SMOOTH",
"575 585 OFFCURVE",
"498 647 OFFCURVE",
"342 647 CURVE SMOOTH",
"226 647 LINE",
"226 73 LINE",
"342 73 LINE SMOOTH",
"498 73 OFFCURVE",
"575 154 OFFCURVE",
"575 370 CURVE SMOOTH"
);
},
{
closed = 1;
nodes = (
"357 720 LINE",
"585 720 OFFCURVE",
"672 586 OFFCURVE",
"672 371 CURVE SMOOTH",
"672 155 OFFCURVE",
"585 0 OFFCURVE",
"357 0 CURVE SMOOTH",
"58 0 LINE",
"58 60 LINE",
"111 69 LINE SMOOTH",
"136 73 OFFCURVE",
"140 84 OFFCURVE",
"140 109 CURVE SMOOTH",
"140 618 LINE SMOOTH",
"140 643 OFFCURVE",
"136 655 OFFCURVE",
"111 658 CURVE SMOOTH",
"58 664 LINE",
"58 720 LINE"
);
}
);
width = 718;
},
{
anchors = (
{
name = top;
position = "{295, 190}";
}
);
layerId = "986A7A88-D3C4-446F-ACB8-D1DF408CF975";
paths = (
{
closed = 1;
nodes = (
"551 370 LINE",
"551 178 OFFCURVE",
"488 102 OFFCURVE",
"353 102 CURVE SMOOTH",
"252 102 LINE",
"252 618 LINE",
"353 618 LINE SMOOTH",
"488 618 OFFCURVE",
"551 561 OFFCURVE",
"551 370 CURVE SMOOTH"
);
},
{
closed = 1;
nodes = (
"48 720 LINE",
"48 644 LINE",
"96 638 LINE SMOOTH",
"121 635 OFFCURVE",
"125 623 OFFCURVE",
"125 598 CURVE SMOOTH",
"125 129 LINE SMOOTH",
"125 104 OFFCURVE",
"121 94 OFFCURVE",
"96 89 CURVE SMOOTH",
"48 80 LINE",
"48 0 LINE",
"363 0 LINE SMOOTH",
"591 0 OFFCURVE",
"688 163 OFFCURVE",
"688 371 CURVE SMOOTH",
"688 586 OFFCURVE",
"599 720 OFFCURVE",
"363 720 CURVE"
);
}
);
width = 727;
}
);
unicode = 0044;
},
{
color = 7;
glyphname = Eth;
lastChange = "2016-09-05 13:29:48 +0000";
layers = (
{
layerId = UUID0;
paths = (
{
closed = 1;
nodes = (
"575 370 LINE SMOOTH",
"575 585 OFFCURVE",
"498 647 OFFCURVE",
"342 647 CURVE SMOOTH",
"226 647 LINE",
"226 73 LINE",
"342 73 LINE SMOOTH",
"498 73 OFFCURVE",
"575 154 OFFCURVE",
"575 370 CURVE SMOOTH"
);
},
{
closed = 1;
nodes = (
"357 720 LINE",
"585 720 OFFCURVE",
"672 586 OFFCURVE",
"672 371 CURVE SMOOTH",
"672 155 OFFCURVE",
"585 0 OFFCURVE",
"357 0 CURVE SMOOTH",
"58 0 LINE",
"58 60 LINE",
"111 69 LINE SMOOTH",
"136 73 OFFCURVE",
"140 84 OFFCURVE",
"140 109 CURVE SMOOTH",
"140 618 LINE SMOOTH",
"140 643 OFFCURVE",
"136 655 OFFCURVE",
"111 658 CURVE SMOOTH",
"58 664 LINE",
"58 720 LINE"
);
},
{
closed = 1;
nodes = (
"58 392 LINE",
"409 392 LINE",
"409 319 LINE",
"58 319 LINE"
);
}
);
width = 718;
},
{
layerId = "986A7A88-D3C4-446F-ACB8-D1DF408CF975";
paths = (
{
closed = 1;
nodes = (
"551 370 LINE",
"551 178 OFFCURVE",
"488 102 OFFCURVE",
"353 102 CURVE SMOOTH",
"252 102 LINE",
"252 618 LINE",
"353 618 LINE SMOOTH",
"488 618 OFFCURVE",
"551 561 OFFCURVE",
"551 370 CURVE SMOOTH"
);
},
{
closed = 1;
nodes = (
"48 720 LINE",
"48 644 LINE",
"96 638 LINE SMOOTH",
"121 635 OFFCURVE",
"125 623 OFFCURVE",
"125 598 CURVE SMOOTH",
"125 129 LINE SMOOTH",
"125 104 OFFCURVE",
"121 94 OFFCURVE",
"96 89 CURVE SMOOTH",
"48 80 LINE",
"48 0 LINE",
"363 0 LINE SMOOTH",
"591 0 OFFCURVE",
"688 163 OFFCURVE",
"688 371 CURVE SMOOTH",
"688 586 OFFCURVE",
"599 720 OFFCURVE",
"363 720 CURVE"
);
},
{
closed = 1;
nodes = (
"48 304 LINE",
"419 304 LINE",
"419 412 LINE",
"48 412 LINE"
);
}
);
width = 727;
}
);
unicode = 00D0;
},
{
color = 7;
glyphname = Dcaron;
lastChange = "2016-09-05 13:29:48 +0000";
layers = (
{
components = (
{
name = D;
}
);
layerId = UUID0;
paths = (
{
closed = 1;
nodes = (
"314 753 LINE",
"200 888 LINE",
"238 920 LINE",
"352 814 LINE",
"465 920 LINE",
"504 888 LINE",
"389 753 LINE"
);
}
);
width = 714;
},
{
components = (
{
name = D;
},
{
name = caron.case;
transform = "{1, 0, 0, 1, 166, 0}";
}
);
layerId = "986A7A88-D3C4-446F-ACB8-D1DF408CF975";
width = 727;
}
);
unicode = 010E;
},
{
color = 7;
glyphname = Dcroat;
lastChange = "2016-09-05 13:29:48 +0000";
layers = (
{
components = (
{
name = D;
}
);
layerId = UUID0;
paths = (
{
closed = 1;
nodes = (
"61 417 LINE",
"400 417 LINE",
"400 348 LINE",
"61 348 LINE"
);
}
);
width = 714;
},
{
layerId = "986A7A88-D3C4-446F-ACB8-D1DF408CF975";
paths = (
{
closed = 1;
nodes = (
"551 370 LINE",
"551 178 OFFCURVE",
"488 102 OFFCURVE",
"353 102 CURVE SMOOTH",
"252 102 LINE",
"252 618 LINE",
"353 618 LINE SMOOTH",
"488 618 OFFCURVE",
"551 561 OFFCURVE",
"551 370 CURVE SMOOTH"
);
},
{
closed = 1;
nodes = (
"48 720 LINE",
"48 644 LINE",
"96 638 LINE SMOOTH",
"121 635 OFFCURVE",
"125 623 OFFCURVE",
"125 598 CURVE SMOOTH",
"125 129 LINE SMOOTH",
"125 104 OFFCURVE",
"121 94 OFFCURVE",
"96 89 CURVE SMOOTH",
"48 80 LINE",
"48 0 LINE",
"363 0 LINE SMOOTH",
"591 0 OFFCURVE",
"688 163 OFFCURVE",
"688 371 CURVE SMOOTH",
"688 586 OFFCURVE",
"599 720 OFFCURVE",
"363 720 CURVE"
);
},
{
closed = 1;
nodes = (
"48 304 LINE",
"419 304 LINE",
"419 412 LINE",
"48 412 LINE"
);
}
);
width = 727;
}
);
unicode = 0110;
},
{
glyphname = E;
lastChange = "2016-09-05 13:29:48 +0000";
layers = (
{
anchors = (
{
name = bottom;
position = "{339, 0}";
},
{
name = top;
position = "{339, 190}";
}
);
layerId = UUID0;
paths = (
{
closed = 1;
nodes = (
"58 0 LINE",
"58 60 LINE",
"111 69 LINE SMOOTH",
"136 73 OFFCURVE",
"140 82 OFFCURVE",
"140 107 CURVE SMOOTH",
"140 618 LINE SMOOTH",
"140 643 OFFCURVE",
"136 655 OFFCURVE",
"111 658 CURVE SMOOTH",
"58 664 LINE",
"58 720 LINE",
"572 720 LINE",
"566 548 LINE",
"502 548 LINE",
"496 618 LINE SMOOTH",
"494 643 OFFCURVE",
"482 647 OFFCURVE",
"458 647 CURVE SMOOTH",
"226 647 LINE",
"226 412 LINE",
"460 412 LINE",
"460 339 LINE",
"226 339 LINE",
"226 73 LINE",
"459 73 LINE SMOOTH",
"483 73 OFFCURVE",
"495 77 OFFCURVE",
"497 102 CURVE SMOOTH",
"503 177 LINE",
"570 177 LINE",
"576 0 LINE"
);
}
);
width = 620;
},
{
anchors = (
{
name = bottom;
position = "{480, 0}";
},
{
name = top;
position = "{340, 190}";
}
);
layerId = "986A7A88-D3C4-446F-ACB8-D1DF408CF975";
paths = (
{
closed = 1;
nodes = (
"579 0 LINE",
"572 203 LINE",
"485 203 LINE",
"478 133 LINE SMOOTH",
"476 108 OFFCURVE",
"464 104 OFFCURVE",
"440 104 CURVE SMOOTH",
"252 104 LINE",
"252 322 LINE",
"463 322 LINE",
"463 426 LINE",
"252 426 LINE",
"252 616 LINE",
"439 616 LINE SMOOTH",
"463 616 OFFCURVE",
"474 612 OFFCURVE",
"477 587 CURVE SMOOTH",
"484 522 LINE",
"568 522 LINE",
"575 720 LINE",
"48 720 LINE",
"48 644 LINE",
"96 638 LINE SMOOTH",
"121 635 OFFCURVE",
"125 623 OFFCURVE",
"125 598 CURVE SMOOTH",
"125 127 LINE SMOOTH",
"125 102 OFFCURVE",
"121 94 OFFCURVE",
"96 89 CURVE SMOOTH",
"48 80 LINE",
"48 0 LINE"
);
}
);
width = 633;
}
);
unicode = 0045;
},
{
color = 7;
glyphname = Eacute;
lastChange = "2016-09-05 13:29:48 +0000";
layers = (
{
components = (
{
name = E;
}
);
layerId = UUID0;
paths = (
{
closed = 1;
nodes = (
"495 868 LINE",
"342 764 LINE SMOOTH",
"331 757 OFFCURVE",
"323 754 OFFCURVE",
"315 754 CURVE SMOOTH",
"295 754 OFFCURVE",
"279 769 OFFCURVE",
"267 783 CURVE",
"446 935 LINE"
);
}
);
width = 620;
},
{
components = (
{
name = E;
},
{
name = acute.case;
transform = "{1, 0, 0, 1, 253, 0}";
}
);
layerId = "986A7A88-D3C4-446F-ACB8-D1DF408CF975";
width = 633;
}
);
unicode = 00C9;
},
{
color = 7;
glyphname = Ecaron;
lastChange = "2016-09-05 13:29:48 +0000";
layers = (
{
components = (
{
name = E;
}
);
layerId = UUID0;
paths = (
{
closed = 1;
nodes = (
"379 753 LINE",
"493 888 LINE",
"455 920 LINE",
"341 814 LINE",
"228 920 LINE",
"189 888 LINE",
"304 753 LINE"
);
}
);
width = 620;
},
{
components = (
{
name = E;
},
{
name = caron.case;
transform = "{1, 0, 0, 1, 211, 0}";
}
);
layerId = "986A7A88-D3C4-446F-ACB8-D1DF408CF975";
width = 633;
}
);
unicode = 011A;
},
{
color = 7;
glyphname = Ecircumflex;
lastChange = "2016-09-05 13:29:48 +0000";
layers = (
{
components = (
{
name = E;
}
);
layerId = UUID0;
paths = (
{
closed = 1;
nodes = (
"370 913 LINE",
"484 778 LINE",
"446 746 LINE",
"332 852 LINE",
"219 746 LINE",
"180 778 LINE",
"295 913 LINE"
);
}
);
width = 620;
},
{
components = (
{
name = E;
},
{
name = circumflex.case;
transform = "{1, 0, 0, 1, 212, 0}";
}
);
layerId = "986A7A88-D3C4-446F-ACB8-D1DF408CF975";
width = 633;
}
);
unicode = 00CA;
},
{
color = 7;
glyphname = Egrave;
lastChange = "2016-09-05 13:29:48 +0000";
layers = (
{
components = (
{
name = E;
}
);
layerId = UUID0;
paths = (
{
closed = 1;
nodes = (
"154 868 LINE",
"307 764 LINE SMOOTH",
"318 757 OFFCURVE",
"326 754 OFFCURVE",
"334 754 CURVE SMOOTH",
"354 754 OFFCURVE",
"370 769 OFFCURVE",
"382 783 CURVE",
"203 935 LINE"
);
}
);
width = 620;
},
{
components = (
{
name = E;
},
{
name = grave.case;
transform = "{1, 0, 0, 1, 162, 0}";
}
);
layerId = "986A7A88-D3C4-446F-ACB8-D1DF408CF975";
width = 633;
}
);
unicode = 00C8;
},
{
glyphname = F;
lastChange = "2016-09-05 13:29:48 +0000";
layers = (
{
layerId = UUID0;
paths = (
{
closed = 1;
nodes = (
"58 720 LINE",
"58 664 LINE",
"111 658 LINE SMOOTH",
"134 655 OFFCURVE",
"140 645 OFFCURVE",
"140 622 CURVE SMOOTH",
"140 106 LINE SMOOTH",
"140 81 OFFCURVE",
"136 72 OFFCURVE",
"111 68 CURVE SMOOTH",
"58 59 LINE",
"58 0 LINE",
"327 0 LINE",
"327 60 LINE",
"256 68 LINE SMOOTH",
"231 71 OFFCURVE",
"226 81 OFFCURVE",
"226 106 CURVE SMOOTH",
"226 333 LINE",
"440 333 LINE",
"440 406 LINE",
"226 406 LINE",
"226 647 LINE",
"448 647 LINE SMOOTH",
"472 647 OFFCURVE",
"484 643 OFFCURVE",
"486 618 CURVE SMOOTH",
"492 548 LINE",
"556 548 LINE",
"562 720 LINE"
);
}
);
width = 580;
},
{
layerId = "986A7A88-D3C4-446F-ACB8-D1DF408CF975";
paths = (
{
closed = 1;
nodes = (
"48 720 LINE",
"48 644 LINE",
"96 638 LINE SMOOTH",
"119 635 OFFCURVE",
"125 625 OFFCURVE",
"125 602 CURVE SMOOTH",
"125 126 LINE SMOOTH",
"125 101 OFFCURVE",
"121 93 OFFCURVE",
"96 88 CURVE SMOOTH",
"48 79 LINE",
"48 0 LINE",
"348 0 LINE",
"348 80 LINE",
"282 88 LINE SMOOTH",
"257 91 OFFCURVE",
"252 101 OFFCURVE",
"252 126 CURVE SMOOTH",
"252 315 LINE",
"443 315 LINE",
"443 419 LINE",
"252 419 LINE",
"252 621 LINE",
"429 621 LINE SMOOTH",
"453 621 OFFCURVE",
"464 617 OFFCURVE",
"467 592 CURVE SMOOTH",
"474 527 LINE",
"558 527 LINE",
"565 720 LINE"
);
}
);
width = 577;
}
);
unicode = 0046;
},
{
glyphname = G;
lastChange = "2016-09-05 13:29:48 +0000";
layers = (
{
anchors = (
{
name = top;
position = "{332, 190}";
}
);
layerId = UUID0;
paths = (
{
closed = 1;
nodes = (
"142 359 LINE SMOOTH",
"142 194 OFFCURVE",
"205 66 OFFCURVE",
"361 66 CURVE SMOOTH",
"416 66 OFFCURVE",
"458 75 OFFCURVE",
"509 91 CURVE",
"509 224 LINE SMOOTH",
"509 249 OFFCURVE",
"504 258 OFFCURVE",
"480 262 CURVE SMOOTH",
"423 271 LINE",
"423 330 LINE",
"659 330 LINE",
"659 271 LINE",
"620 264 LINE SMOOTH",
"595 259 OFFCURVE",
"593 251 OFFCURVE",
"593 226 CURVE SMOOTH",
"593 51 LINE",
"541 28 OFFCURVE",
"456 -10 OFFCURVE",
"346 -10 CURVE SMOOTH",
"134 -10 OFFCURVE",
"45 122 OFFCURVE",
"45 352 CURVE SMOOTH",
"45 562 OFFCURVE",
"142 730 OFFCURVE",
"371 730 CURVE SMOOTH",
"437 730 OFFCURVE",
"506 726 OFFCURVE",
"607 673 CURVE",
"591 510 LINE",
"519 510 LINE",
"498 620 LINE",
"448 643 OFFCURVE",
"413 655 OFFCURVE",
"341 655 CURVE SMOOTH",
"263 655 OFFCURVE",
"228 631 OFFCURVE",
"198 601 CURVE SMOOTH",
"163 566 OFFCURVE",
"142 434 OFFCURVE",
"142 359 CURVE SMOOTH"
);
}
);
width = 687;
},
{
anchors = (
{
name = bottom;
position = "{355, 0}";
},
{
name = top;
position = "{351, 190}";
}
);
layerId = "986A7A88-D3C4-446F-ACB8-D1DF408CF975";
paths = (
{
closed = 1;
nodes = (
"176 359 LINE SMOOTH",
"176 430 OFFCURVE",
"195 560 OFFCURVE",
"232 591 CURVE SMOOTH",
"256 611 OFFCURVE",
"287 625 OFFCURVE",
"350 625 CURVE SMOOTH",
"416 625 OFFCURVE",
"448 617 OFFCURVE",
"492 600 CURVE",
"513 500 LINE",
"610 500 LINE",
"626 673 LINE",
"521 726 OFFCURVE",
"448 730 OFFCURVE",
"380 730 CURVE SMOOTH",
"139 730 OFFCURVE",
"39 562 OFFCURVE",
"39 352 CURVE SMOOTH",
"39 122 OFFCURVE",
"131 -10 OFFCURVE",
"355 -10 CURVE SMOOTH",
"471 -10 OFFCURVE",
"562 28 OFFCURVE",
"617 51 CURVE",
"617 214 LINE SMOOTH",
"617 240 OFFCURVE",
"618 247 OFFCURVE",
"644 252 CURVE SMOOTH",
"678 259 LINE",
"678 338 LINE",
"412 338 LINE",
"412 259 LINE",
"464 250 LINE SMOOTH",
"488 246 OFFCURVE",
"493 237 OFFCURVE",
"493 212 CURVE SMOOTH",
"493 116 LINE",
"452 101 OFFCURVE",
"415 96 OFFCURVE",
"370 96 CURVE SMOOTH",
"234 96 OFFCURVE",
"176 212 OFFCURVE",
"176 359 CURVE SMOOTH"
);
}
);
width = 722;
}
);
unicode = 0047;
},
{
color = 7;
glyphname = Gcircumflex;
lastChange = "2016-09-05 13:29:48 +0000";
layers = (
{
components = (
{
name = G;
transform = "{1, 0, 0, 1, -3, 0}";
}
);
layerId = UUID0;
paths = (
{
closed = 1;
nodes = (
"379 913 LINE",
"493 778 LINE",
"455 746 LINE",
"341 852 LINE",
"228 746 LINE",
"189 778 LINE",
"304 913 LINE"
);
}
);
width = 710;
},
{
components = (
{
name = G;
},
{
name = circumflex.case;
transform = "{1, 0, 0, 1, 223, 0}";
}
);
layerId = "986A7A88-D3C4-446F-ACB8-D1DF408CF975";
width = 722;
}
);
unicode = 011C;
},
{
color = 7;
glyphname = Gcommaaccent;
lastChange = "2016-09-05 13:29:48 +0000";
layers = (
{
components = (
{
name = G;
transform = "{1, 0, 0, 1, -3, 0}";
}
);
layerId = UUID0;
paths = (
{
closed = 1;
nodes = (
"422 -105 LINE SMOOTH",
"422 -174 OFFCURVE",
"374 -230 OFFCURVE",
"328 -251 CURVE",
"305 -227 LINE",
"337 -206 OFFCURVE",
"370 -172 OFFCURVE",
"370 -146 CURVE",
"365 -148 OFFCURVE",
"355 -149 OFFCURVE",
"349 -149 CURVE SMOOTH",
"315 -149 OFFCURVE",
"300 -123 OFFCURVE",
"300 -95 CURVE SMOOTH",
"300 -52 OFFCURVE",
"323 -37 OFFCURVE",
"358 -37 CURVE SMOOTH",
"403 -37 OFFCURVE",
"422 -69 OFFCURVE",
"422 -105 CURVE SMOOTH"
);
}
);
width = 710;
},
{
components = (
{
name = G;
},
{
name = commaaccent;
transform = "{1, 0, 0, 1, 231, 0}";
}
);
layerId = "986A7A88-D3C4-446F-ACB8-D1DF408CF975";
width = 722;
}
);
unicode = 0122;
},
{
glyphname = H;
lastChange = "2016-09-05 13:29:48 +0000";
layers = (
{
anchors = (
{
name = top;
position = "{394, 190}";
}
);
layerId = UUID0;
paths = (
{
closed = 1;
nodes = (
"650 614 LINE",
"650 639 OFFCURVE",
"654 648 OFFCURVE",
"679 652 CURVE SMOOTH",
"732 661 LINE",
"732 720 LINE",
"477 720 LINE",
"477 661 LINE",
"535 652 LINE SMOOTH",
"560 648 OFFCURVE",
"564 639 OFFCURVE",
"564 614 CURVE SMOOTH",
"564 413 LINE",
"226 413 LINE",
"226 614 LINE SMOOTH",
"226 639 OFFCURVE",
"230 648 OFFCURVE",
"255 652 CURVE SMOOTH",
"313 661 LINE",
"313 720 LINE",
"58 720 LINE",
"58 661 LINE",
"111 652 LINE SMOOTH",
"136 648 OFFCURVE",
"140 639 OFFCURVE",
"140 614 CURVE SMOOTH",
"140 106 LINE SMOOTH",
"140 81 OFFCURVE",
"136 72 OFFCURVE",
"111 68 CURVE SMOOTH",
"58 59 LINE",
"58 0 LINE",
"313 0 LINE",
"313 59 LINE",
"255 68 LINE SMOOTH",
"230 72 OFFCURVE",
"226 81 OFFCURVE",
"226 106 CURVE SMOOTH",
"226 341 LINE",
"564 341 LINE",
"564 106 LINE SMOOTH",
"564 81 OFFCURVE",
"560 72 OFFCURVE",
"535 68 CURVE SMOOTH",
"477 59 LINE",
"477 0 LINE",
"732 0 LINE",
"732 59 LINE",
"679 68 LINE SMOOTH",
"654 72 OFFCURVE",
"650 81 OFFCURVE",
"650 106 CURVE SMOOTH"
);
}
);
width = 790;
},
{
anchors = (
{
name = top;
position = "{396, 188}";
}
);
layerId = "986A7A88-D3C4-446F-ACB8-D1DF408CF975";
paths = (
{
closed = 1;
nodes = (
"667 594 LINE",
"667 619 OFFCURVE",
"671 627 OFFCURVE",
"696 632 CURVE SMOOTH",
"744 641 LINE",
"744 720 LINE",
"458 720 LINE",
"458 641 LINE",
"511 632 LINE SMOOTH",
"536 628 OFFCURVE",
"540 619 OFFCURVE",
"540 594 CURVE SMOOTH",
"540 428 LINE",
"252 428 LINE",
"252 594 LINE SMOOTH",
"252 619 OFFCURVE",
"256 628 OFFCURVE",
"281 632 CURVE SMOOTH",
"334 641 LINE",
"334 720 LINE",
"48 720 LINE",
"48 641 LINE",
"96 632 LINE SMOOTH",
"121 627 OFFCURVE",
"125 619 OFFCURVE",
"125 594 CURVE SMOOTH",
"125 126 LINE SMOOTH",
"125 101 OFFCURVE",
"121 93 OFFCURVE",
"96 88 CURVE SMOOTH",
"48 79 LINE",
"48 0 LINE",
"334 0 LINE",
"334 79 LINE",
"281 88 LINE SMOOTH",
"256 92 OFFCURVE",
"252 101 OFFCURVE",
"252 126 CURVE SMOOTH",
"252 326 LINE",
"540 326 LINE",
"540 126 LINE SMOOTH",
"540 101 OFFCURVE",
"536 92 OFFCURVE",
"511 88 CURVE SMOOTH",
"458 79 LINE",
"458 0 LINE",
"744 0 LINE",
"744 79 LINE",
"696 88 LINE SMOOTH",
"671 93 OFFCURVE",
"667 101 OFFCURVE",
"667 126 CURVE SMOOTH"
);
}
);
width = 792;
}
);
unicode = 0048;
},
{
color = 7;
glyphname = Hbar;
lastChange = "2016-09-05 13:29:48 +0000";
layers = (
{
components = (
{
name = H;
}
);
layerId = UUID0;
paths = (
{
closed = 1;
nodes = (
"78 505 LINE",
"708 505 LINE",
"708 565 LINE",
"78 565 LINE"
);
}
);
width = 790;
},
{
components = (
{
name = H;
}
);
layerId = "986A7A88-D3C4-446F-ACB8-D1DF408CF975";
paths = (
{
closed = 1;
nodes = (
"56 488 LINE",
"736 488 LINE",
"736 578 LINE",
"56 578 LINE"
);
}
);
width = 792;
}
);
unicode = 0126;
},
{
color = 7;
glyphname = Hcircumflex;
lastChange = "2016-09-05 13:29:48 +0000";
layers = (
{
components = (
{
name = H;
}
);
layerId = UUID0;
paths = (
{
closed = 1;
nodes = (
"437 913 LINE",
"551 778 LINE",
"513 746 LINE",
"399 852 LINE",
"286 746 LINE",
"247 778 LINE",
"362 913 LINE"
);
}
);
width = 790;
},
{
components = (
{
name = H;
},
{
name = circumflex.case;
transform = "{1, 0, 0, 1, 268, -2}";
}
);
layerId = "986A7A88-D3C4-446F-ACB8-D1DF408CF975";
width = 792;
}
);
unicode = 0124;
},
{
glyphname = I;
lastChange = "2016-09-05 13:29:48 +0000";
layers = (
{
anchors = (
{
name = top;
position = "{183, 190}";
}
);
layerId = UUID0;
paths = (
{
closed = 1;
nodes = (
"308 0 LINE",
"58 0 LINE",
"58 59 LINE",
"111 68 LINE SMOOTH",
"136 72 OFFCURVE",
"140 81 OFFCURVE",
"140 106 CURVE SMOOTH",
"140 614 LINE SMOOTH",
"140 639 OFFCURVE",
"136 648 OFFCURVE",
"111 652 CURVE SMOOTH",
"58 661 LINE",
"58 720 LINE",
"308 720 LINE",
"308 661 LINE",
"255 652 LINE SMOOTH",
"230 648 OFFCURVE",
"226 639 OFFCURVE",
"226 614 CURVE SMOOTH",
"226 106 LINE SMOOTH",
"226 81 OFFCURVE",
"230 72 OFFCURVE",
"255 68 CURVE SMOOTH",
"308 59 LINE"
);
}
);
width = 366;
},
{
anchors = (
{
name = bottom;
position = "{227, 0}";
},
{
name = top;
position = "{188, 190}";
}
);
layerId = "986A7A88-D3C4-446F-ACB8-D1DF408CF975";
paths = (
{
closed = 1;
nodes = (
"329 79 LINE",
"281 88 LINE SMOOTH",
"256 93 OFFCURVE",
"252 101 OFFCURVE",
"252 126 CURVE SMOOTH",
"252 594 LINE SMOOTH",
"252 619 OFFCURVE",
"256 627 OFFCURVE",
"281 632 CURVE SMOOTH",
"329 641 LINE",
"329 720 LINE",
"48 720 LINE",
"48 641 LINE",
"96 632 LINE SMOOTH",
"121 627 OFFCURVE",
"125 619 OFFCURVE",
"125 594 CURVE SMOOTH",
"125 126 LINE SMOOTH",
"125 101 OFFCURVE",
"121 93 OFFCURVE",
"96 88 CURVE SMOOTH",
"48 79 LINE",
"48 0 LINE",
"329 0 LINE"
);
}
);
width = 377;
}
);
unicode = 0049;
},
{
color = 7;
glyphname = Iacute;
lastChange = "2016-09-05 13:29:48 +0000";
layers = (
{
components = (
{
name = I;
}
);
layerId = UUID0;
paths = (
{
closed = 1;
nodes = (
"354 868 LINE",
"201 764 LINE SMOOTH",
"190 757 OFFCURVE",
"182 754 OFFCURVE",
"174 754 CURVE SMOOTH",
"154 754 OFFCURVE",
"138 769 OFFCURVE",
"126 783 CURVE",
"305 935 LINE"
);
}
);
width = 366;
},
{
components = (
{
name = I;
},
{
name = acute.case;
transform = "{1, 0, 0, 1, 101, 0}";
}
);
layerId = "986A7A88-D3C4-446F-ACB8-D1DF408CF975";
width = 377;
}
);
unicode = 00CD;
},
{
color = 7;
glyphname = Icircumflex;
lastChange = "2016-09-05 13:29:48 +0000";
layers = (
{
components = (
{
name = I;
}
);
layerId = UUID0;
paths = (
{
closed = 1;
nodes = (
"222 913 LINE",
"321 778 LINE",
"283 746 LINE",
"184 852 LINE",
"86 746 LINE",
"47 778 LINE",
"147 913 LINE"
);
}
);
width = 366;
},
{
components = (
{
name = I;
},
{
name = circumflex.case;
transform = "{1, 0, 0, 1, 60, 0}";
}
);
layerId = "986A7A88-D3C4-446F-ACB8-D1DF408CF975";
width = 377;
}
);
unicode = 00CE;
},
{
color = 7;
glyphname = Idieresis;
lastChange = "2016-09-05 13:29:48 +0000";
layers = (
{
components = (
{
name = I;
}
);
layerId = UUID0;
paths = (
{
closed = 1;
nodes = (
"146 834 LINE SMOOTH",
"146 790 OFFCURVE",
"129 780 OFFCURVE",
"84 780 CURVE SMOOTH",
"48 780 OFFCURVE",
"34 796 OFFCURVE",
"34 831 CURVE SMOOTH",
"34 872 OFFCURVE",
"46 892 OFFCURVE",
"98 892 CURVE SMOOTH",
"138 892 OFFCURVE",
"146 872 OFFCURVE",
"146 834 CURVE SMOOTH"
);
},
{
closed = 1;
nodes = (
"331 834 LINE SMOOTH",
"331 790 OFFCURVE",
"314 780 OFFCURVE",
"269 780 CURVE SMOOTH",
"233 780 OFFCURVE",
"219 796 OFFCURVE",
"219 831 CURVE SMOOTH",
"219 872 OFFCURVE",
"231 892 OFFCURVE",
"283 892 CURVE SMOOTH",
"323 892 OFFCURVE",
"331 872 OFFCURVE",
"331 834 CURVE SMOOTH"
);
}
);
width = 366;
},
{
components = (
{
name = I;
},
{
name = dieresis;
transform = "{1, 0, 0, 1, -86, 190}";
}
);
layerId = "986A7A88-D3C4-446F-ACB8-D1DF408CF975";
width = 377;
}
);
unicode = 00CF;
},
{
color = 7;
glyphname = Igrave;
lastChange = "2016-09-05 13:29:48 +0000";
layers = (
{
components = (
{
name = I;
}
);
layerId = UUID0;
paths = (
{
closed = 1;
nodes = (
"12 868 LINE",
"165 764 LINE SMOOTH",
"176 757 OFFCURVE",
"184 754 OFFCURVE",
"192 754 CURVE SMOOTH",
"212 754 OFFCURVE",
"228 769 OFFCURVE",
"240 783 CURVE",
"61 935 LINE"
);
}
);
width = 366;
},
{
components = (
{
name = I;
},
{
name = grave.case;
transform = "{1, 0, 0, 1, 10, 0}";
}
);
layerId = "986A7A88-D3C4-446F-ACB8-D1DF408CF975";
width = 377;
}
);
unicode = 00CC;
},
{
color = 7;
glyphname = Itilde;
lastChange = "2016-09-05 13:29:48 +0000";
layers = (
{
components = (
{
name = I;
}
);
layerId = UUID0;
paths = (
{
closed = 1;
nodes = (
"116 811 LINE SMOOTH",
"90 811 OFFCURVE",
"65 794 OFFCURVE",
"48 780 CURVE",
"33 822 LINE",
"54 852 OFFCURVE",
"86 880 OFFCURVE",
"123 880 CURVE SMOOTH",
"175 880 OFFCURVE",
"211 845 OFFCURVE",
"251 845 CURVE SMOOTH",
"273 845 OFFCURVE",
"303 860 OFFCURVE",
"317 872 CURVE",
"333 832 LINE",
"313 803 OFFCURVE",
"280 774 OFFCURVE",
"244 774 CURVE SMOOTH",
"195 774 OFFCURVE",
"159 811 OFFCURVE",
"116 811 CURVE SMOOTH"
);
}
);
width = 366;
},
{
components = (
{
name = I;
},
{
name = tilde;
transform = "{1, 0, 0, 1, -14, 190}";
}
);
layerId = "986A7A88-D3C4-446F-ACB8-D1DF408CF975";
width = 377;
}
);
unicode = 0128;
},
{
glyphname = J;
lastChange = "2016-09-05 13:29:48 +0000";
layers = (
{
layerId = UUID0;
paths = (
{
closed = 1;
nodes = (
"-25 -100 LINE",
"120 -10 OFFCURVE",
"140 24 OFFCURVE",
"140 179 CURVE SMOOTH",
"140 614 LINE SMOOTH",
"140 639 OFFCURVE",
"136 648 OFFCURVE",
"111 652 CURVE SMOOTH",
"58 661 LINE",
"58 720 LINE",
"308 720 LINE",
"308 661 LINE",
"255 652 LINE SMOOTH",
"230 648 OFFCURVE",
"226 639 OFFCURVE",
"226 614 CURVE SMOOTH",
"226 148 LINE SMOOTH",
"226 -33 OFFCURVE",
"189 -62 OFFCURVE",
"14 -154 CURVE"
);
}
);
width = 341;
},
{
anchors = (
{
name = top;
position = "{188, 190}";
}
);
layerId = "986A7A88-D3C4-446F-ACB8-D1DF408CF975";
paths = (
{
closed = 1;
nodes = (
"25 -156 LINE",
"204 -64 OFFCURVE",
"245 -33 OFFCURVE",
"245 148 CURVE SMOOTH",
"245 594 LINE SMOOTH",
"245 619 OFFCURVE",
"249 627 OFFCURVE",
"274 632 CURVE SMOOTH",
"322 641 LINE",
"322 720 LINE",
"41 720 LINE",
"41 641 LINE",
"89 632 LINE SMOOTH",
"114 627 OFFCURVE",
"118 619 OFFCURVE",
"118 594 CURVE SMOOTH",
"118 179 LINE SMOOTH",
"118 40 OFFCURVE",
"94 5 OFFCURVE",
"-35 -75 CURVE"
);
}
);
width = 349;
}
);
unicode = 004A;
},
{
color = 7;
glyphname = Jcircumflex;
lastChange = "2016-09-05 13:29:48 +0000";
layers = (
{
components = (
{
name = J;
}
);
layerId = UUID0;
paths = (
{
closed = 1;
nodes = (
"217 913 LINE",
"316 778 LINE",
"278 746 LINE",
"179 852 LINE",
"81 746 LINE",
"42 778 LINE",
"142 913 LINE"
);
}
);
width = 341;
},
{
components = (
{
name = J;
},
{
name = circumflex.case;
transform = "{1, 0, 0, 1, 60, 0}";
}
);
layerId = "986A7A88-D3C4-446F-ACB8-D1DF408CF975";
width = 349;
}
);
unicode = 0134;
},
{
glyphname = K;
lastChange = "2016-09-05 13:29:48 +0000";
layers = (
{
anchors = (
{
name = bottom;
position = "{359, -10}";
}
);
layerId = UUID0;
paths = (
{
closed = 1;
nodes = (
"623 658 LINE",
"583 658 OFFCURVE",
"561 654 OFFCURVE",
"526 617 CURVE SMOOTH",
"324 398 LINE",
"504 153 LINE SMOOTH",
"559 78 OFFCURVE",
"584 60 OFFCURVE",
"616 60 CURVE SMOOTH",
"630 60 OFFCURVE",
"647 62 OFFCURVE",
"661 67 CURVE",
"655 9 LINE",
"636 -1 OFFCURVE",
"612 -10 OFFCURVE",
"569 -10 CURVE SMOOTH",
"509 -10 OFFCURVE",
"474 36 OFFCURVE",
"431 97 CURVE SMOOTH",
"226 384 LINE",
"226 403 LINE",
"481 677 LINE SMOOTH",
"507 705 OFFCURVE",
"538 720 OFFCURVE",
"574 720 CURVE SMOOTH",
"623 720 LINE"
);
},
{
closed = 1;
nodes = (
"226 106 LINE",
"226 81 OFFCURVE",
"230 72 OFFCURVE",
"255 68 CURVE SMOOTH",
"312 59 LINE",
"312 0 LINE",
"58 0 LINE",
"58 59 LINE",
"111 68 LINE SMOOTH",
"136 72 OFFCURVE",
"140 81 OFFCURVE",
"140 106 CURVE SMOOTH",
"140 614 LINE SMOOTH",
"140 639 OFFCURVE",
"136 648 OFFCURVE",
"111 652 CURVE SMOOTH",
"58 661 LINE",
"58 720 LINE",
"312 720 LINE",
"312 661 LINE",
"255 652 LINE SMOOTH",
"230 648 OFFCURVE",
"226 639 OFFCURVE",
"226 614 CURVE SMOOTH"
);
}
);
width = 646;
},
{
anchors = (
{
name = bottom;
position = "{347, 0}";
}
);
layerId = "986A7A88-D3C4-446F-ACB8-D1DF408CF975";
paths = (
{
closed = 1;
nodes = (
"562 601 LINE",
"591 632 OFFCURVE",
"616 632 OFFCURVE",
"654 632 CURVE",
"654 720 LINE",
"589 720 LINE SMOOTH",
"549 720 OFFCURVE",
"516 706 OFFCURVE",
"490 676 CURVE SMOOTH",
"252 410 LINE",
"252 594 LINE SMOOTH",
"252 619 OFFCURVE",
"256 628 OFFCURVE",
"281 632 CURVE SMOOTH",
"333 641 LINE",
"333 720 LINE",
"48 720 LINE",
"48 641 LINE",
"96 632 LINE SMOOTH",
"121 627 OFFCURVE",
"125 619 OFFCURVE",
"125 594 CURVE SMOOTH",
"125 126 LINE SMOOTH",
"125 101 OFFCURVE",
"121 93 OFFCURVE",
"96 88 CURVE SMOOTH",
"48 79 LINE",
"48 0 LINE",
"333 0 LINE",
"333 79 LINE",
"281 88 LINE SMOOTH",
"256 92 OFFCURVE",
"252 101 OFFCURVE",
"252 126 CURVE SMOOTH",
"252 378 LINE",
"442 97 LINE SMOOTH",
"486 31 OFFCURVE",
"527 -10 OFFCURVE",
"593 -10 CURVE SMOOTH",
"639 -10 OFFCURVE",
"666 -1 OFFCURVE",
"687 12 CURVE",
"695 104 LINE",
"679 97 OFFCURVE",
"661 94 OFFCURVE",
"645 94 CURVE SMOOTH",
"616 94 OFFCURVE",
"594 104 OFFCURVE",
"548 168 CURVE SMOOTH",
"379 401 LINE"
);
}
);
width = 697;
}
);
unicode = 004B;
},
{
glyphname = L;
lastChange = "2016-09-05 13:29:48 +0000";
layers = (
{
layerId = UUID0;
paths = (
{
closed = 1;
nodes = (
"542 0 LINE",
"536 177 LINE",
"469 177 LINE",
"463 102 LINE SMOOTH",
"461 77 OFFCURVE",
"449 73 OFFCURVE",
"425 73 CURVE SMOOTH",
"226 73 LINE",
"226 614 LINE SMOOTH",
"226 639 OFFCURVE",
"230 648 OFFCURVE",
"255 652 CURVE SMOOTH",
"314 661 LINE",
"314 720 LINE",
"58 720 LINE",
"58 661 LINE",
"111 652 LINE SMOOTH",
"136 648 OFFCURVE",
"140 639 OFFCURVE",
"140 614 CURVE SMOOTH",
"140 106 LINE SMOOTH",
"140 81 OFFCURVE",
"136 72 OFFCURVE",
"111 68 CURVE SMOOTH",
"58 59 LINE",
"58 0 LINE"
);
}
);
width = 556;
},
{
anchors = (
{
name = bottom;
position = "{277, 0}";
},
{
name = top;
position = "{197, 190}";
}
);
layerId = "986A7A88-D3C4-446F-ACB8-D1DF408CF975";
paths = (
{
closed = 1;
nodes = (
"545 0 LINE",
"538 203 LINE",
"452 203 LINE",
"445 133 LINE SMOOTH",
"443 108 OFFCURVE",
"431 104 OFFCURVE",
"407 104 CURVE SMOOTH",
"252 104 LINE",
"252 594 LINE SMOOTH",
"252 619 OFFCURVE",
"256 628 OFFCURVE",
"281 632 CURVE SMOOTH",
"336 641 LINE",
"336 720 LINE",
"48 720 LINE",
"48 641 LINE",
"96 632 LINE SMOOTH",
"121 627 OFFCURVE",
"125 619 OFFCURVE",
"125 594 CURVE SMOOTH",
"125 126 LINE SMOOTH",
"125 101 OFFCURVE",
"121 93 OFFCURVE",
"96 88 CURVE SMOOTH",
"48 79 LINE",
"48 0 LINE"
);
}
);
width = 557;
}
);
unicode = 004C;
},
{
color = 7;
glyphname = Lacute;
lastChange = "2016-09-05 13:29:48 +0000";
layers = (
{
components = (
{
name = L;
}
);
layerId = UUID0;
paths = (
{
closed = 1;
nodes = (
"365 868 LINE",
"212 764 LINE SMOOTH",
"201 757 OFFCURVE",
"193 754 OFFCURVE",
"185 754 CURVE SMOOTH",
"165 754 OFFCURVE",
"149 769 OFFCURVE",
"137 783 CURVE",
"316 935 LINE"
);
}
);
width = 556;
},
{
components = (
{
name = L;
},
{
name = acute.case;
transform = "{1, 0, 0, 1, 110, 0}";
}
);
layerId = "986A7A88-D3C4-446F-ACB8-D1DF408CF975";
width = 557;
}
);
unicode = 0139;
},
{
color = 7;
glyphname = Lcaron;
lastChange = "2016-09-05 13:29:48 +0000";
layers = (
{
components = (
{
name = L;
}
);
layerId = UUID0;
paths = (
{
closed = 1;
nodes = (
"524 690 LINE SMOOTH",
"524 615 OFFCURVE",
"480 566 OFFCURVE",
"425 532 CURVE",
"398 561 LINE",
"425 575 OFFCURVE",
"462 614 OFFCURVE",
"462 645 CURVE",
"458 644 OFFCURVE",
"451 644 OFFCURVE",
"447 644 CURVE SMOOTH",
"414 646 OFFCURVE",
"395 667 OFFCURVE",
"395 698 CURVE SMOOTH",
"395 742 OFFCURVE",
"421 759 OFFCURVE",
"454 759 CURVE SMOOTH",
"501 759 OFFCURVE",
"524 729 OFFCURVE",
"524 690 CURVE SMOOTH"
);
}
);
width = 566;
},
{
components = (
{
name = L;
}
);
layerId = "986A7A88-D3C4-446F-ACB8-D1DF408CF975";
paths = (
{
closed = 1;
nodes = (
"538 690 LINE SMOOTH",
"538 617 OFFCURVE",
"481 557 OFFCURVE",
"429 534 CURVE",
"396 568 LINE",
"428 587 OFFCURVE",
"461 617 OFFCURVE",
"461 639 CURVE",
"457 637 OFFCURVE",
"454 636 OFFCURVE",
"450 636 CURVE SMOOTH",
"407 636 OFFCURVE",
"386 666 OFFCURVE",
"386 700 CURVE SMOOTH",
"386 747 OFFCURVE",
"415 763 OFFCURVE",
"459 763 CURVE SMOOTH",
"516 763 OFFCURVE",
"538 729 OFFCURVE",
"538 690 CURVE SMOOTH"
);
}
);
width = 557;
}
);
unicode = 013D;
},
{
color = 7;
glyphname = Ldot;
lastChange = "2016-09-05 13:29:48 +0000";
layers = (
{
components = (
{
name = L;
}
);
layerId = UUID0;
paths = (
{
closed = 1;
nodes = (
"466 364 LINE",
"466 403 OFFCURVE",
"459 425 OFFCURVE",
"416 425 CURVE SMOOTH",
"359 425 OFFCURVE",
"348 403 OFFCURVE",
"348 360 CURVE SMOOTH",
"348 324 OFFCURVE",
"363 307 OFFCURVE",
"400 307 CURVE SMOOTH",
"447 307 OFFCURVE",
"466 317 OFFCURVE",
"466 364 CURVE SMOOTH"
);
}
);
width = 556;
},
{
components = (
{
name = L;
},
{
name = periodcentered;
transform = "{1, 0, 0, 1, 273, 82}";
}
);
layerId = "986A7A88-D3C4-446F-ACB8-D1DF408CF975";
width = 557;
}
);
unicode = 013F;
},
{
color = 7;
glyphname = Lslash;
lastChange = "2016-09-05 13:29:48 +0000";
layers = (
{
components = (
{
name = L;
}
);
layerId = UUID0;
paths = (
{
closed = 1;
nodes = (
"61 242 LINE",
"371 423 LINE",
"371 492 LINE",
"61 312 LINE"
);
}
);
width = 556;
},
{
components = (
{
name = L;
}
);
layerId = "986A7A88-D3C4-446F-ACB8-D1DF408CF975";
paths = (
{
closed = 1;
nodes = (
"51 222 LINE",
"391 419 LINE",
"391 518 LINE",
"51 322 LINE"
);
}
);
width = 557;
}
);
unicode = 0141;
},
{
glyphname = M;
lastChange = "2016-09-05 13:29:48 +0000";
layers = (
{
layerId = UUID0;
paths = (
{
closed = 1;
nodes = (
"19 0 LINE",
"19 59 LINE",
"72 68 LINE SMOOTH",
"97 72 OFFCURVE",
"99 80 OFFCURVE",
"101 105 CURVE SMOOTH",
"136 625 LINE",
"136 644 OFFCURVE",
"128 652 OFFCURVE",
"106 655 CURVE SMOOTH",
"54 661 LINE",
"54 720 LINE",
"254 720 LINE",
"452 134 LINE",
"629 720 LINE",
"841 720 LINE",
"841 661 LINE",
"785 655 LINE SMOOTH",
"762 652 OFFCURVE",
"754 645 OFFCURVE",
"754 623 CURVE",
"794 105 LINE SMOOTH",
"796 80 OFFCURVE",
"798 72 OFFCURVE",
"823 68 CURVE SMOOTH",
"882 59 LINE",
"882 0 LINE",
"626 0 LINE",
"626 59 LINE",
"680 65 LINE SMOOTH",
"702 68 OFFCURVE",
"709 78 OFFCURVE",
"709 97 CURVE",
"672 611 LINE",
"481 0 LINE",
"410 0 LINE",
"198 611 LINE",
"174 99 LINE",
"175 78 OFFCURVE",
"181 68 OFFCURVE",
"204 65 CURVE SMOOTH",
"257 59 LINE",
"257 0 LINE"
);
}
);
width = 893;
},
{
anchors = (
{
name = top;
position = "{492, 190}";
}
);
layerId = "986A7A88-D3C4-446F-ACB8-D1DF408CF975";
paths = (
{
closed = 1;
nodes = (
"263 461 LINE",
"427 0 LINE",
"543 0 LINE",
"699 463 LINE",
"714 525 LINE",
"716 460 LINE",
"744 117 LINE SMOOTH",
"746 98 OFFCURVE",
"737 88 OFFCURVE",
"715 85 CURVE SMOOTH",
"666 79 LINE",
"666 0 LINE",
"952 0 LINE",
"952 79 LINE",
"898 88 LINE SMOOTH",
"873 92 OFFCURVE",
"871 100 OFFCURVE",
"869 125 CURVE SMOOTH",
"826 603 LINE SMOOTH",
"824 625 OFFCURVE",
"834 632 OFFCURVE",
"857 635 CURVE SMOOTH",
"908 641 LINE",
"908 720 LINE",
"668 720 LINE",
"502 210 LINE",
"492 158 LINE",
"481 210 LINE",
"302 720 LINE",
"71 720 LINE",
"71 641 LINE",
"118 635 LINE SMOOTH",
"140 632 OFFCURVE",
"150 624 OFFCURVE",
"148 605 CURVE SMOOTH",
"108 125 LINE SMOOTH",
"106 100 OFFCURVE",
"104 93 OFFCURVE",
"79 88 CURVE SMOOTH",
"31 79 LINE",
"31 0 LINE",
"298 0 LINE",
"298 79 LINE",
"251 85 LINE SMOOTH",
"228 88 OFFCURVE",
"220 98 OFFCURVE",
"221 119 CURVE SMOOTH",
"243 460 LINE",
"243 525 LINE"
);
}
);
width = 975;
}
);
unicode = 004D;
},
{
glyphname = N;
lastChange = "2016-09-05 13:29:48 +0000";
layers = (
{
anchors = (
{
name = top;
position = "{406, 189}";
}
);
layerId = UUID0;
paths = (
{
closed = 1;
nodes = (
"226 106 LINE",
"226 81 OFFCURVE",
"230 72 OFFCURVE",
"255 68 CURVE SMOOTH",
"308 59 LINE",
"308 0 LINE",
"58 0 LINE",
"58 59 LINE",
"111 68 LINE SMOOTH",
"136 72 OFFCURVE",
"140 81 OFFCURVE",
"140 106 CURVE SMOOTH",
"140 615 LINE SMOOTH",
"140 640 OFFCURVE",
"136 652 OFFCURVE",
"111 655 CURVE SMOOTH",
"59 661 LINE",
"59 720 LINE",
"227 720 LINE",
"586 158 LINE",
"586 615 LINE SMOOTH",
"586 640 OFFCURVE",
"583 652 OFFCURVE",
"558 655 CURVE SMOOTH",
"506 661 LINE",
"506 720 LINE",
"753 720 LINE",
"753 661 LINE",
"701 655 LINE SMOOTH",
"676 652 OFFCURVE",
"672 640 OFFCURVE",
"672 615 CURVE SMOOTH",
"672 0 LINE",
"584 0 LINE",
"226 562 LINE"
);
}
);
width = 787;
},
{
anchors = (
{
name = bottom;
position = "{410, 0}";
},
{
name = top;
position = "{408, 190}";
}
);
layerId = "986A7A88-D3C4-446F-ACB8-D1DF408CF975";
paths = (
{
closed = 1;
nodes = (
"49 720 LINE",
"49 641 LINE",
"96 635 LINE SMOOTH",
"121 632 OFFCURVE",
"125 620 OFFCURVE",
"125 595 CURVE SMOOTH",
"125 126 LINE SMOOTH",
"125 101 OFFCURVE",
"121 92 OFFCURVE",
"96 88 CURVE SMOOTH",
"48 79 LINE",
"48 0 LINE",
"329 0 LINE",
"329 79 LINE",
"281 88 LINE",
"256 91 OFFCURVE",
"252 101 OFFCURVE",
"252 126 CURVE SMOOTH",
"252 491 LINE",
"559 0 LINE",
"691 0 LINE",
"691 595 LINE SMOOTH",
"691 620 OFFCURVE",
"695 632 OFFCURVE",
"720 635 CURVE SMOOTH",
"767 641 LINE",
"767 720 LINE",
"489 720 LINE",
"489 641 LINE",
"536 635 LINE SMOOTH",
"561 632 OFFCURVE",
"564 620 OFFCURVE",
"564 595 CURVE SMOOTH",
"564 229 LINE",
"257 720 LINE"
);
}
);
width = 802;
}
);
unicode = 004E;
},
{
color = 7;
glyphname = Nacute;
lastChange = "2016-09-05 13:29:48 +0000";
layers = (
{
components = (
{
name = N;
}
);
layerId = UUID0;
paths = (
{
closed = 1;
nodes = (
"522 868 LINE",
"369 764 LINE SMOOTH",
"358 757 OFFCURVE",
"350 754 OFFCURVE",
"342 754 CURVE SMOOTH",
"322 754 OFFCURVE",
"306 769 OFFCURVE",
"294 783 CURVE",
"473 935 LINE"
);
}
);
width = 787;
},
{
components = (
{
name = N;
},
{
name = acute.case;
transform = "{1, 0, 0, 1, 321, 0}";
}
);
layerId = "986A7A88-D3C4-446F-ACB8-D1DF408CF975";
width = 802;
}
);
unicode = 0143;
},
{
color = 7;
glyphname = Eng;
lastChange = "2016-09-05 13:29:48 +0000";
layers = (
{
layerId = UUID0;
paths = (
{
closed = 1;
nodes = (
"576 128 LINE",
"576 500 LINE SMOOTH",
"576 605 OFFCURVE",
"508 647 OFFCURVE",
"431 647 CURVE SMOOTH",
"336 647 OFFCURVE",
"265 596 OFFCURVE",
"228 531 CURVE",
"228 113 LINE SMOOTH",
"228 82 OFFCURVE",
"230 73 OFFCURVE",
"252 69 CURVE SMOOTH",
"316 58 LINE",
"316 0 LINE",
"56 0 LINE",
"56 59 LINE",
"115 69 LINE SMOOTH",
"137 73 OFFCURVE",
"140 82 OFFCURVE",
"140 113 CURVE SMOOTH",
"140 614 LINE SMOOTH",
"140 639 OFFCURVE",
"137 652 OFFCURVE",
"110 655 CURVE SMOOTH",
"59 661 LINE",
"59 720 LINE",
"218 720 LINE",
"229 612 LINE",
"287 677 OFFCURVE",
"356 730 OFFCURVE",
"468 730 CURVE SMOOTH",
"601 730 OFFCURVE",
"664 649 OFFCURVE",
"664 541 CURVE SMOOTH",
"664 128 LINE"
);
},
{
closed = 1;
nodes = (
"664 145 LINE",
"664 129 LINE SMOOTH",
"664 -32 OFFCURVE",
"594 -89 OFFCURVE",
"450 -154 CURVE",
"411 -93 LINE",
"554 -24 OFFCURVE",
"576 34 OFFCURVE",
"576 153 CURVE SMOOTH",
"576 179 LINE"
);
}
);
width = 779;
},
{
layerId = "986A7A88-D3C4-446F-ACB8-D1DF408CF975";
paths = (
{
closed = 1;
nodes = (
"550 153 LINE",
"550 38 OFFCURVE",
"530 -16 OFFCURVE",
"395 -83 CURVE",
"447 -164 LINE",
"600 -97 OFFCURVE",
"678 -38 OFFCURVE",
"678 129 CURVE SMOOTH",
"678 541 LINE SMOOTH",
"678 649 OFFCURVE",
"609 730 OFFCURVE",
"467 730 CURVE SMOOTH",
"365 730 OFFCURVE",
"306 683 OFFCURVE",
"253 627 CURVE",
"242 720 LINE",
"49 720 LINE",
"49 641 LINE",
"95 635 LINE SMOOTH",
"121 632 OFFCURVE",
"125 619 OFFCURVE",
"125 594 CURVE SMOOTH",
"125 133 LINE SMOOTH",
"125 103 OFFCURVE",
"122 93 OFFCURVE",
"100 89 CURVE SMOOTH",
"46 79 LINE",
"46 0 LINE",
"335 0 LINE",
"335 78 LINE",
"276 89 LINE SMOOTH",
"255 93 OFFCURVE",
"252 102 OFFCURVE",
"252 133 CURVE SMOOTH",
"252 529 LINE",
"284 582 OFFCURVE",
"345 625 OFFCURVE",
"430 625 CURVE SMOOTH",
"492 625 OFFCURVE",
"550 587 OFFCURVE",
"550 498 CURVE SMOOTH"
);
}
);
width = 758;
}
);
unicode = 014A;
},
{
glyphname = O;
lastChange = "2016-09-05 13:29:48 +0000";
layers = (
{
anchors = (
{
name = top;
position = "{359, 190}";
}
);
layerId = UUID0;
paths = (
{
closed = 1;
nodes = (
"675 360 LINE SMOOTH",
"675 170 OFFCURVE",
"580 -10 OFFCURVE",
"335 -10 CURVE SMOOTH",
"123 -10 OFFCURVE",
"42 145 OFFCURVE",
"42 360 CURVE SMOOTH",
"42 550 OFFCURVE",
"137 730 OFFCURVE",
"382 730 CURVE SMOOTH",
"594 730 OFFCURVE",
"675 575 OFFCURVE",
"675 360 CURVE SMOOTH"
);
},
{
closed = 1;
nodes = (
"346 656 LINE SMOOTH",
"281 656 OFFCURVE",
"231 641 OFFCURVE",
"196 601 CURVE SMOOTH",
"161 561 OFFCURVE",
"139 444 OFFCURVE",
"139 354 CURVE SMOOTH",
"139 174 OFFCURVE",
"221 64 OFFCURVE",
"371 64 CURVE SMOOTH",
"436 64 OFFCURVE",
"486 79 OFFCURVE",
"521 119 CURVE SMOOTH",
"556 159 OFFCURVE",
"578 276 OFFCURVE",
"578 366 CURVE SMOOTH",
"578 546 OFFCURVE",
"496 656 OFFCURVE",
"346 656 CURVE SMOOTH"
);
}
);
width = 717;
},
{
anchors = (
{
name = top;
position = "{371, 190}";
}
);
layerId = "986A7A88-D3C4-446F-ACB8-D1DF408CF975";
paths = (
{
closed = 1;
nodes = (
"702 360 LINE",
"702 575 OFFCURVE",
"618 730 OFFCURVE",
"394 730 CURVE SMOOTH",
"137 730 OFFCURVE",
"39 550 OFFCURVE",
"39 360 CURVE SMOOTH",
"39 145 OFFCURVE",
"123 -10 OFFCURVE",
"347 -10 CURVE SMOOTH",
"604 -10 OFFCURVE",
"702 170 OFFCURVE",
"702 360 CURVE SMOOTH"
);
},
{
closed = 1;
nodes = (
"358 626 LINE",
"493 626 OFFCURVE",
"565 528 OFFCURVE",
"565 366 CURVE SMOOTH",
"565 280 OFFCURVE",
"545 165 OFFCURVE",
"508 129 CURVE SMOOTH",
"480 102 OFFCURVE",
"438 94 OFFCURVE",
"383 94 CURVE SMOOTH",
"248 94 OFFCURVE",
"176 192 OFFCURVE",
"176 354 CURVE SMOOTH",
"176 440 OFFCURVE",
"195 556 OFFCURVE",
"233 591 CURVE SMOOTH",
"261 617 OFFCURVE",
"303 626 OFFCURVE",
"358 626 CURVE SMOOTH"
);
}
);
width = 741;
}
);
unicode = 004F;
},
{
color = 7;
glyphname = Oacute;
lastChange = "2016-09-05 13:29:48 +0000";
layers = (
{
components = (
{
name = O;
}
);
layerId = UUID0;
paths = (
{
closed = 1;
nodes = (
"551 868 LINE",
"398 764 LINE SMOOTH",
"387 757 OFFCURVE",
"379 754 OFFCURVE",
"371 754 CURVE SMOOTH",
"351 754 OFFCURVE",
"335 769 OFFCURVE",
"323 783 CURVE",
"502 935 LINE"
);
}
);
width = 717;
},
{
components = (
{
name = O;
},
{
name = acute.case;
transform = "{1, 0, 0, 1, 284, 0}";
}
);
layerId = "986A7A88-D3C4-446F-ACB8-D1DF408CF975";
width = 741;
}
);
unicode = 00D3;
},
{
color = 7;
glyphname = Ocircumflex;
lastChange = "2016-09-05 13:29:48 +0000";
layers = (
{
components = (
{
name = O;
}
);
layerId = UUID0;
paths = (
{
closed = 1;
nodes = (
"398 913 LINE",
"512 778 LINE",
"474 746 LINE",
"360 852 LINE",
"247 746 LINE",
"208 778 LINE",
"323 913 LINE"
);
}
);
width = 717;
},
{
components = (
{
name = O;
},
{
name = circumflex.case;
transform = "{1, 0, 0, 1, 243, 0}";
}
);
layerId = "986A7A88-D3C4-446F-ACB8-D1DF408CF975";
width = 741;
}
);
unicode = 00D4;
},
{
color = 7;
glyphname = Ograve;
lastChange = "2016-09-05 13:29:48 +0000";
layers = (
{
components = (
{
name = O;
}
);
layerId = UUID0;
paths = (
{
closed = 1;
nodes = (
"199 868 LINE",
"352 764 LINE SMOOTH",
"363 757 OFFCURVE",
"371 754 OFFCURVE",
"379 754 CURVE SMOOTH",
"399 754 OFFCURVE",
"415 769 OFFCURVE",
"427 783 CURVE",
"248 935 LINE"
);
}
);
width = 717;
},
{
components = (
{
name = O;
},
{
name = grave.case;
transform = "{1, 0, 0, 1, 193, 0}";
}
);
layerId = "986A7A88-D3C4-446F-ACB8-D1DF408CF975";
width = 741;
}
);
unicode = 00D2;
},
{
color = 7;
glyphname = Ohorn;
lastChange = "2016-09-05 13:29:48 +0000";
layers = (
{
components = (
{
name = O;
}
);
layerId = UUID0;
paths = (
{
closed = 1;
nodes = (
"736 790 LINE",
"739 779 OFFCURVE",
"743 762 OFFCURVE",
"743 735 CURVE SMOOTH",
"743 629 OFFCURVE",
"627 589 OFFCURVE",
"549 579 CURVE",
"544 625 LINE",
"606 635 OFFCURVE",
"661 653 OFFCURVE",
"661 727 CURVE SMOOTH",
"661 742 OFFCURVE",
"657 757 OFFCURVE",
"653 778 CURVE"
);
}
);
width = 717;
},
{
components = (
{
name = O;
}
);
layerId = "986A7A88-D3C4-446F-ACB8-D1DF408CF975";
paths = (
{
closed = 1;
nodes = (
"685 784 LINE",
"688 763 OFFCURVE",
"693 748 OFFCURVE",
"693 733 CURVE SMOOTH",
"693 667 OFFCURVE",
"648 650 OFFCURVE",
"601 641 CURVE",
"606 580 LINE",
"686 590 OFFCURVE",
"805 632 OFFCURVE",
"805 741 CURVE SMOOTH",
"805 768 OFFCURVE",
"801 785 OFFCURVE",
"798 796 CURVE"
);
}
);
width = 741;
}
);
unicode = 01A0;
},
{
color = 7;
glyphname = Oslash;
lastChange = "2016-09-05 13:29:48 +0000";
layers = (
{
anchors = (
{
name = top;
position = "{358, 190}";
}
);
components = (
{
name = O;
}
);
layerId = UUID0;
paths = (
{
closed = 1;
nodes = (
"139 -27 LINE",
"511 770 LINE",
"566 744 LINE",
"194 -53 LINE"
);
}
);
width = 717;
},
{
anchors = (
{
name = top;
position = "{358, 190}";
}
);
layerId = "986A7A88-D3C4-446F-ACB8-D1DF408CF975";
paths = (
{
closed = 1;
nodes = (
"213 -61 LINE",
"242 3 LINE",
"273 -5 OFFCURVE",
"308 -10 OFFCURVE",
"347 -10 CURVE SMOOTH",
"604 -10 OFFCURVE",
"702 170 OFFCURVE",
"702 360 CURVE SMOOTH",
"702 510 OFFCURVE",
"661 631 OFFCURVE",
"559 690 CURVE",
"585 746 LINE",
"500 787 LINE",
"470 723 LINE",
"447 727 OFFCURVE",
"421 730 OFFCURVE",
"394 730 CURVE SMOOTH",
"137 730 OFFCURVE",
"39 550 OFFCURVE",
"39 360 CURVE SMOOTH",
"39 222 OFFCURVE",
"73 108 OFFCURVE",
"158 45 CURVE",
"128 -20 LINE"
);
},
{
closed = 1;
nodes = (
"565 366 LINE SMOOTH",
"565 280 OFFCURVE",
"545 165 OFFCURVE",
"508 129 CURVE SMOOTH",
"480 102 OFFCURVE",
"438 94 OFFCURVE",
"383 94 CURVE SMOOTH",
"349 94 OFFCURVE",
"318 100 OFFCURVE",
"292 112 CURVE",
"503 568 LINE",
"544 523 OFFCURVE",
"565 454 OFFCURVE",
"565 366 CURVE SMOOTH"
);
},
{
closed = 1;
nodes = (
"358 626 LINE SMOOTH",
"381 626 OFFCURVE",
"402 623 OFFCURVE",
"422 617 CURVE",
"219 177 LINE",
"190 221 OFFCURVE",
"176 281 OFFCURVE",
"176 354 CURVE SMOOTH",
"176 440 OFFCURVE",
"195 556 OFFCURVE",
"233 591 CURVE SMOOTH",
"261 617 OFFCURVE",
"303 626 OFFCURVE",
"358 626 CURVE SMOOTH"
);
}
);
width = 717;
}
);
unicode = 00D8;
},
{
color = 7;
glyphname = Oslashacute;
lastChange = "2016-09-05 13:29:48 +0000";
layers = (
{
anchors = (
{
name = top;
position = "{358, 190}";
}
);
components = (
{
name = O;
}
);
layerId = UUID0;
paths = (
{
closed = 1;
nodes = (
"139 -27 LINE",
"511 770 LINE",
"566 744 LINE",
"194 -53 LINE"
);
},
{
closed = 1;
nodes = (
"531 868 LINE",
"378 764 LINE SMOOTH",
"367 757 OFFCURVE",
"359 754 OFFCURVE",
"351 754 CURVE SMOOTH",
"331 754 OFFCURVE",
"315 769 OFFCURVE",
"303 783 CURVE",
"482 935 LINE"
);
}
);
width = 717;
},
{
components = (
{
name = Oslash;
},
{
name = acute.case;
transform = "{1, 0, 0, 1, 271, 0}";
}
);
layerId = "986A7A88-D3C4-446F-ACB8-D1DF408CF975";
width = 717;
}
);
unicode = 01FE;
},
{
color = 7;
glyphname = OE;
lastChange = "2016-09-05 13:29:48 +0000";
layers = (
{
layerId = UUID0;
paths = (
{
closed = 1;
nodes = (
"635 360 LINE SMOOTH",
"635 214 OFFCURVE",
"594 -10 OFFCURVE",
"335 -10 CURVE SMOOTH",
"123 -10 OFFCURVE",
"42 145 OFFCURVE",
"42 360 CURVE SMOOTH",
"42 550 OFFCURVE",
"132 730 OFFCURVE",
"383 730 CURVE SMOOTH",
"566 730 OFFCURVE",
"635 575 OFFCURVE",
"635 360 CURVE SMOOTH"
);
},
{
closed = 1;
nodes = (
"336 656 LINE SMOOTH",
"281 656 OFFCURVE",
"231 641 OFFCURVE",
"196 601 CURVE SMOOTH",
"161 561 OFFCURVE",
"139 444 OFFCURVE",
"139 354 CURVE SMOOTH",
"139 174 OFFCURVE",
"221 64 OFFCURVE",
"371 64 CURVE SMOOTH",
"436 64 OFFCURVE",
"480 87 OFFCURVE",
"515 127 CURVE SMOOTH",
"538 167 OFFCURVE",
"556 235 OFFCURVE",
"556 381 CURVE SMOOTH",
"556 552 OFFCURVE",
"506 656 OFFCURVE",
"336 656 CURVE SMOOTH"
);
},
{
closed = 1;
nodes = (
"563 0 LINE",
"563 118 LINE",
"604 404 LINE",
"562 618 LINE",
"562 720 LINE",
"977 720 LINE",
"971 548 LINE",
"907 548 LINE",
"901 618 LINE SMOOTH",
"899 643 OFFCURVE",
"887 647 OFFCURVE",
"863 647 CURVE SMOOTH",
"646 647 LINE",
"646 402 LINE",
"855 402 LINE",
"855 329 LINE",
"646 329 LINE",
"646 73 LINE",
"868 73 LINE SMOOTH",
"892 73 OFFCURVE",
"904 77 OFFCURVE",
"906 102 CURVE SMOOTH",
"912 177 LINE",
"979 177 LINE",
"985 0 LINE"
);
}
);
width = 1015;
},
{
layerId = "986A7A88-D3C4-446F-ACB8-D1DF408CF975";
paths = (
{
closed = 1;
nodes = (
"1014 0 LINE",
"1007 203 LINE",
"920 203 LINE",
"913 133 LINE SMOOTH",
"911 108 OFFCURVE",
"899 104 OFFCURVE",
"875 104 CURVE SMOOTH",
"687 104 LINE",
"687 322 LINE",
"898 322 LINE",
"898 426 LINE",
"687 426 LINE",
"687 616 LINE",
"874 616 LINE SMOOTH",
"898 616 OFFCURVE",
"909 612 OFFCURVE",
"912 587 CURVE SMOOTH",
"919 522 LINE",
"1003 522 LINE",
"1010 720 LINE",
"560 720 LINE",
"560 670 LINE",
"520 708 OFFCURVE",
"466 730 OFFCURVE",
"394 730 CURVE SMOOTH",
"137 730 OFFCURVE",
"39 550 OFFCURVE",
"39 360 CURVE SMOOTH",
"39 145 OFFCURVE",
"123 -10 OFFCURVE",
"347 -10 CURVE SMOOTH",
"443 -10 OFFCURVE",
"512 22 OFFCURVE",
"560 73 CURVE",
"560 0 LINE"
);
},
{
closed = 1;
nodes = (
"358 626 LINE SMOOTH",
"486 626 OFFCURVE",
"560 533 OFFCURVE",
"560 378 CURVE SMOOTH",
"560 353 LINE SMOOTH",
"558 269 OFFCURVE",
"538 163 OFFCURVE",
"503 129 CURVE SMOOTH",
"476 102 OFFCURVE",
"436 94 OFFCURVE",
"383 94 CURVE SMOOTH",
"248 94 OFFCURVE",
"176 192 OFFCURVE",
"176 354 CURVE SMOOTH",
"176 440 OFFCURVE",
"195 556 OFFCURVE",
"233 591 CURVE SMOOTH",
"261 617 OFFCURVE",
"303 626 OFFCURVE",
"358 626 CURVE SMOOTH"
);
}
);
width = 1068;
}
);
unicode = 0152;
},
{
glyphname = P;
lastChange = "2016-09-05 13:29:48 +0000";
layers = (
{
layerId = UUID0;
paths = (
{
closed = 1;
nodes = (
"226 349 LINE",
"295 349 LINE SMOOTH",
"334 349 OFFCURVE",
"377 350 OFFCURVE",
"408 375 CURVE SMOOTH",
"442 402 OFFCURVE",
"457 442 OFFCURVE",
"457 524 CURVE SMOOTH",
"457 624 OFFCURVE",
"389 650 OFFCURVE",
"312 650 CURVE SMOOTH",
"226 650 LINE"
);
},
{
closed = 1;
nodes = (
"140 614 LINE",
"140 639 OFFCURVE",
"136 648 OFFCURVE",
"111 652 CURVE SMOOTH",
"58 661 LINE",
"58 720 LINE",
"321 720 LINE SMOOTH",
"461 720 OFFCURVE",
"554 682 OFFCURVE",
"554 534 CURVE SMOOTH",
"554 372 OFFCURVE",
"425 279 OFFCURVE",
"298 279 CURVE SMOOTH",
"226 279 LINE",
"226 106 LINE SMOOTH",
"226 81 OFFCURVE",
"231 71 OFFCURVE",
"256 68 CURVE SMOOTH",
"327 60 LINE",
"327 0 LINE",
"58 0 LINE",
"58 59 LINE",
"111 68 LINE SMOOTH",
"136 72 OFFCURVE",
"140 81 OFFCURVE",
"140 106 CURVE SMOOTH"
);
}
);
width = 569;
},
{
layerId = "986A7A88-D3C4-446F-ACB8-D1DF408CF975";
paths = (
{
closed = 1;
nodes = (
"252 620 LINE",
"313 620 LINE SMOOTH",
"376 620 OFFCURVE",
"433 600 OFFCURVE",
"433 519 CURVE SMOOTH",
"433 452 OFFCURVE",
"424 416 OFFCURVE",
"399 395 CURVE SMOOTH",
"375 375 OFFCURVE",
"337 374 OFFCURVE",
"306 374 CURVE SMOOTH",
"252 374 LINE"
);
},
{
closed = 1;
nodes = (
"125 126 LINE",
"125 101 OFFCURVE",
"121 93 OFFCURVE",
"96 88 CURVE SMOOTH",
"48 79 LINE",
"48 0 LINE",
"348 0 LINE",
"348 80 LINE",
"282 88 LINE SMOOTH",
"257 91 OFFCURVE",
"252 101 OFFCURVE",
"252 126 CURVE SMOOTH",
"252 274 LINE",
"309 274 LINE SMOOTH",
"438 274 OFFCURVE",
"570 369 OFFCURVE",
"570 534 CURVE SMOOTH",
"570 682 OFFCURVE",
"471 720 OFFCURVE",
"322 720 CURVE SMOOTH",
"48 720 LINE",
"48 641 LINE",
"96 632 LINE SMOOTH",
"121 627 OFFCURVE",
"125 619 OFFCURVE",
"125 594 CURVE"
);
}
);
width = 582;
}
);
unicode = 0050;
},
{
color = 7;
glyphname = Thorn;
lastChange = "2016-09-05 13:29:48 +0000";
layers = (
{
layerId = UUID0;
paths = (
{
closed = 1;
nodes = (
"306 0 LINE",
"56 0 LINE",
"56 59 LINE",
"111 68 LINE SMOOTH",
"136 72 OFFCURVE",
"140 81 OFFCURVE",
"140 106 CURVE SMOOTH",
"140 614 LINE SMOOTH",
"140 639 OFFCURVE",
"136 648 OFFCURVE",
"111 652 CURVE SMOOTH",
"56 661 LINE",
"56 720 LINE",
"306 720 LINE",
"306 661 LINE",
"253 652 LINE SMOOTH",
"228 648 OFFCURVE",
"224 639 OFFCURVE",
"224 614 CURVE SMOOTH",
"224 106 LINE SMOOTH",
"224 81 OFFCURVE",
"228 72 OFFCURVE",
"253 68 CURVE SMOOTH",
"306 59 LINE"
);
},
{
closed = 1;
nodes = (
"221 241 LINE",
"297 241 LINE SMOOTH",
"329 241 OFFCURVE",
"371 242 OFFCURVE",
"401 265 CURVE SMOOTH",
"433 290 OFFCURVE",
"448 331 OFFCURVE",
"448 412 CURVE SMOOTH",
"448 511 OFFCURVE",
"384 533 OFFCURVE",
"312 533 CURVE SMOOTH",
"221 533 LINE"
);
},
{
closed = 1;
nodes = (
"157 594 LINE",
"321 594 LINE SMOOTH",
"452 594 OFFCURVE",
"541 555 OFFCURVE",
"541 420 CURVE SMOOTH",
"541 264 OFFCURVE",
"419 178 OFFCURVE",
"300 178 CURVE SMOOTH",
"157 178 LINE"
);
}
);
width = 564;
},
{
layerId = "986A7A88-D3C4-446F-ACB8-D1DF408CF975";
paths = (
{
closed = 1;
nodes = (
"329 0 LINE",
"48 0 LINE",
"48 79 LINE",
"98 88 LINE",
"123 91 OFFCURVE",
"127 101 OFFCURVE",
"127 126 CURVE SMOOTH",
"127 594 LINE SMOOTH",
"127 619 OFFCURVE",
"123 628 OFFCURVE",
"98 632 CURVE SMOOTH",
"48 641 LINE",
"48 720 LINE",
"329 720 LINE",
"329 641 LINE",
"281 632 LINE",
"256 629 OFFCURVE",
"252 619 OFFCURVE",
"252 594 CURVE SMOOTH",
"252 591 LINE",
"324 591 LINE SMOOTH",
"464 591 OFFCURVE",
"559 552 OFFCURVE",
"559 417 CURVE SMOOTH",
"559 264 OFFCURVE",
"428 180 OFFCURVE",
"303 180 CURVE SMOOTH",
"252 180 LINE",
"252 126 LINE SMOOTH",
"252 101 OFFCURVE",
"256 92 OFFCURVE",
"281 88 CURVE SMOOTH",
"329 79 LINE"
);
},
{
closed = 1;
nodes = (
"300 273 LINE",
"327 273 OFFCURVE",
"370 274 OFFCURVE",
"394 292 CURVE SMOOTH",
"418 309 OFFCURVE",
"426 346 OFFCURVE",
"426 409 CURVE SMOOTH",
"426 484 OFFCURVE",
"372 500 OFFCURVE",
"315 500 CURVE SMOOTH",
"252 500 LINE",
"252 273 LINE"
);
}
);
width = 571;
}
);
unicode = 00DE;
},
{
glyphname = Q;
lastChange = "2016-09-05 13:29:48 +0000";
layers = (
{
layerId = UUID0;
paths = (
{
closed = 1;
nodes = (
"206 -82 LINE",
"242 -63 OFFCURVE",
"271 -49 OFFCURVE",
"330 -49 CURVE SMOOTH",
"436 -49 OFFCURVE",
"535 -109 OFFCURVE",
"600 -109 CURVE SMOOTH",
"624 -109 OFFCURVE",
"645 -104 OFFCURVE",
"661 -99 CURVE SMOOTH",
"670 -96 OFFCURVE",
"678 -93 OFFCURVE",
"686 -89 CURVE",
"701 -142 LINE",
"693 -151 OFFCURVE",
"683 -158 OFFCURVE",
"671 -165 CURVE SMOOTH",
"651 -176 OFFCURVE",
"622 -187 OFFCURVE",
"585 -187 CURVE SMOOTH",
"485 -187 OFFCURVE",
"400 -121 OFFCURVE",
"301 -121 CURVE SMOOTH",
"274 -121 OFFCURVE",
"250 -127 OFFCURVE",
"226 -134 CURVE"
);
},
{
closed = 1;
nodes = (
"675 360 LINE SMOOTH",
"675 170 OFFCURVE",
"580 -10 OFFCURVE",
"335 -10 CURVE SMOOTH",
"123 -10 OFFCURVE",
"42 145 OFFCURVE",
"42 360 CURVE SMOOTH",
"42 550 OFFCURVE",
"137 730 OFFCURVE",
"382 730 CURVE SMOOTH",
"594 730 OFFCURVE",
"675 575 OFFCURVE",
"675 360 CURVE SMOOTH"
);
},
{
closed = 1;
nodes = (
"346 656 LINE SMOOTH",
"281 656 OFFCURVE",
"231 641 OFFCURVE",
"196 601 CURVE SMOOTH",
"161 561 OFFCURVE",
"139 444 OFFCURVE",
"139 354 CURVE SMOOTH",
"139 174 OFFCURVE",
"221 64 OFFCURVE",
"371 64 CURVE SMOOTH",
"436 64 OFFCURVE",
"486 79 OFFCURVE",
"521 119 CURVE SMOOTH",
"556 159 OFFCURVE",
"578 276 OFFCURVE",
"578 366 CURVE SMOOTH",
"578 546 OFFCURVE",
"496 656 OFFCURVE",
"346 656 CURVE SMOOTH"
);
}
);
width = 717;
},
{
layerId = "986A7A88-D3C4-446F-ACB8-D1DF408CF975";
paths = (
{
closed = 1;
nodes = (
"239 -162 LINE",
"263 -156 OFFCURVE",
"287 -149 OFFCURVE",
"314 -149 CURVE SMOOTH",
"413 -149 OFFCURVE",
"498 -210 OFFCURVE",
"598 -210 CURVE SMOOTH",
"640 -210 OFFCURVE",
"689 -191 OFFCURVE",
"722 -159 CURVE",
"700 -82 LINE",
"675 -94 OFFCURVE",
"644 -104 OFFCURVE",
"613 -104 CURVE SMOOTH",
"548 -104 OFFCURVE",
"449 -49 OFFCURVE",
"343 -49 CURVE SMOOTH",
"280 -49 OFFCURVE",
"247 -63 OFFCURVE",
"209 -82 CURVE"
);
},
{
closed = 1;
nodes = (
"702 360 LINE SMOOTH",
"702 575 OFFCURVE",
"618 730 OFFCURVE",
"394 730 CURVE SMOOTH",
"137 730 OFFCURVE",
"39 550 OFFCURVE",
"39 360 CURVE SMOOTH",
"39 145 OFFCURVE",
"123 -10 OFFCURVE",
"347 -10 CURVE SMOOTH",
"604 -10 OFFCURVE",
"702 170 OFFCURVE",
"702 360 CURVE SMOOTH"
);
},
{
closed = 1;
nodes = (
"358 626 LINE SMOOTH",
"493 626 OFFCURVE",
"565 528 OFFCURVE",
"565 366 CURVE SMOOTH",
"565 280 OFFCURVE",
"545 165 OFFCURVE",
"508 129 CURVE SMOOTH",
"480 102 OFFCURVE",
"438 94 OFFCURVE",
"383 94 CURVE SMOOTH",
"248 94 OFFCURVE",
"176 192 OFFCURVE",
"176 354 CURVE SMOOTH",
"176 440 OFFCURVE",
"195 556 OFFCURVE",
"233 591 CURVE SMOOTH",
"261 617 OFFCURVE",
"303 626 OFFCURVE",
"358 626 CURVE SMOOTH"
);
}
);
width = 741;
}
);
unicode = 0051;
},
{
glyphname = R;
lastChange = "2016-09-05 13:29:48 +0000";
layers = (
{
layerId = UUID0;
paths = (
{
closed = 1;
nodes = (
"226 397 LINE",
"315 397 LINE SMOOTH",
"352 397 OFFCURVE",
"384 398 OFFCURVE",
"413 422 CURVE SMOOTH",
"441 445 OFFCURVE",
"453 473 OFFCURVE",
"453 530 CURVE SMOOTH",
"453 620 OFFCURVE",
"391 650 OFFCURVE",
"301 650 CURVE SMOOTH",
"226 650 LINE"
);
},
{
closed = 1;
nodes = (
"226 106 LINE",
"226 81 OFFCURVE",
"231 71 OFFCURVE",
"256 68 CURVE SMOOTH",
"321 60 LINE",
"321 0 LINE",
"58 0 LINE",
"58 59 LINE",
"111 68 LINE SMOOTH",
"136 72 OFFCURVE",
"140 81 OFFCURVE",
"140 106 CURVE SMOOTH",
"140 614 LINE SMOOTH",
"140 639 OFFCURVE",
"136 648 OFFCURVE",
"111 652 CURVE SMOOTH",
"58 661 LINE",
"58 720 LINE",
"321 720 LINE SMOOTH",
"459 720 OFFCURVE",
"550 678 OFFCURVE",
"550 540 CURVE SMOOTH",
"550 398 OFFCURVE",
"432 355 OFFCURVE",
"369 346 CURVE",
"390 341 OFFCURVE",
"415 314 OFFCURVE",
"434 284 CURVE SMOOTH",
"544 112 LINE SMOOTH",
"570 72 OFFCURVE",
"598 59 OFFCURVE",
"623 59 CURVE SMOOTH",
"634 59 OFFCURVE",
"652 64 OFFCURVE",
"658 66 CURVE",
"653 11 LINE",
"645 5 OFFCURVE",
"616 -10 OFFCURVE",
"574 -10 CURVE SMOOTH",
"520 -10 OFFCURVE",
"485 31 OFFCURVE",
"457 74 CURVE SMOOTH",
"323 287 LINE SMOOTH",
"310 307 OFFCURVE",
"293 327 OFFCURVE",
"262 327 CURVE SMOOTH",
"226 327 LINE"
);
}
);
width = 638;
},
{
anchors = (
{
name = bottom;
position = "{372, 0}";
},
{
name = top;
position = "{296, 190}";
}
);
layerId = "986A7A88-D3C4-446F-ACB8-D1DF408CF975";
paths = (
{
closed = 1;
nodes = (
"252 620 LINE",
"312 620 LINE SMOOTH",
"381 620 OFFCURVE",
"429 596 OFFCURVE",
"429 530 CURVE SMOOTH",
"429 473 OFFCURVE",
"423 443 OFFCURVE",
"399 423 CURVE SMOOTH",
"383 410 OFFCURVE",
"350 407 OFFCURVE",
"321 407 CURVE SMOOTH",
"252 407 LINE"
);
},
{
closed = 1;
nodes = (
"252 307 LINE",
"280 307 LINE SMOOTH",
"301 307 OFFCURVE",
"313 289 OFFCURVE",
"324 272 CURVE SMOOTH",
"443 74 LINE SMOOTH",
"470 29 OFFCURVE",
"509 -10 OFFCURVE",
"565 -10 CURVE SMOOTH",
"616 -10 OFFCURVE",
"648 6 OFFCURVE",
"659 12 CURVE",
"669 102 LINE",
"661 98 OFFCURVE",
"638 94 OFFCURVE",
"623 94 CURVE SMOOTH",
"598 94 OFFCURVE",
"571 109 OFFCURVE",
"545 152 CURVE SMOOTH",
"459 293 LINE SMOOTH",
"445 316 OFFCURVE",
"425 327 OFFCURVE",
"406 330 CURVE",
"459 339 OFFCURVE",
"566 382 OFFCURVE",
"566 540 CURVE SMOOTH",
"566 678 OFFCURVE",
"471 720 OFFCURVE",
"327 720 CURVE SMOOTH",
"48 720 LINE",
"48 641 LINE",
"96 632 LINE SMOOTH",
"121 628 OFFCURVE",
"125 619 OFFCURVE",
"125 594 CURVE SMOOTH",
"125 126 LINE",
"125 101 OFFCURVE",
"121 91 OFFCURVE",
"96 88 CURVE SMOOTH",
"48 79 LINE",
"48 0 LINE",
"338 0 LINE",
"338 80 LINE",
"282 88 LINE SMOOTH",
"257 91 OFFCURVE",
"252 101 OFFCURVE",
"252 126 CURVE"
);
}
);
width = 671;
}
);
unicode = 0052;
},
{
color = 7;
glyphname = Racute;
lastChange = "2016-09-05 13:29:48 +0000";
layers = (
{
components = (
{
name = R;
}
);
layerId = UUID0;
paths = (
{
closed = 1;
nodes = (
"445 868 LINE",
"292 764 LINE SMOOTH",
"281 757 OFFCURVE",
"273 754 OFFCURVE",
"265 754 CURVE SMOOTH",
"245 754 OFFCURVE",
"229 769 OFFCURVE",
"217 783 CURVE",
"396 935 LINE"
);
}
);
width = 638;
},
{
components = (
{
name = R;
},
{
name = acute.case;
transform = "{1, 0, 0, 1, 204, 0}";
}
);
layerId = "986A7A88-D3C4-446F-ACB8-D1DF408CF975";
width = 671;
}
);
unicode = 0154;
},
{
color = 7;
glyphname = Rcaron;
lastChange = "2016-09-05 13:29:48 +0000";
layers = (
{
components = (
{
name = R;
}
);
layerId = UUID0;
paths = (
{
closed = 1;
nodes = (
"354 753 LINE",
"468 888 LINE",
"430 920 LINE",
"316 814 LINE",
"203 920 LINE",
"164 888 LINE",
"279 753 LINE"
);
}
);
width = 638;
},
{
components = (
{
name = R;
},
{
name = caron.case;
transform = "{1, 0, 0, 1, 167, 0}";
}
);
layerId = "986A7A88-D3C4-446F-ACB8-D1DF408CF975";
width = 671;
}
);
unicode = 0158;
},
{
glyphname = S;
lastChange = "2016-09-05 13:29:48 +0000";
layers = (
{
anchors = (
{
name = top;
position = "{280, 190}";
}
);
layerId = UUID0;
paths = (
{
closed = 1;
nodes = (
"146 95 LINE",
"181 74 OFFCURVE",
"215 60 OFFCURVE",
"277 60 CURVE SMOOTH",
"359 60 OFFCURVE",
"425 104 OFFCURVE",
"425 182 CURVE SMOOTH",
"425 242 OFFCURVE",
"401 274 OFFCURVE",
"302 311 CURVE SMOOTH",
"180 357 LINE SMOOTH",
"103 386 OFFCURVE",
"46 445 OFFCURVE",
"46 539 CURVE SMOOTH",
"46 650 OFFCURVE",
"119 729 OFFCURVE",
"273 729 CURVE SMOOTH",
"341 729 OFFCURVE",
"409 718 OFFCURVE",
"476 702 CURVE",
"462 547 LINE",
"390 547 LINE",
"375 637 LINE",
"336 655 OFFCURVE",
"299 662 OFFCURVE",
"258 662 CURVE SMOOTH",
"180 662 OFFCURVE",
"138 628 OFFCURVE",
"138 551 CURVE SMOOTH",
"138 492 OFFCURVE",
"166 457 OFFCURVE",
"255 426 CURVE SMOOTH",
"340 396 LINE SMOOTH",
"429 365 OFFCURVE",
"514 324 OFFCURVE",
"514 202 CURVE SMOOTH",
"514 78 OFFCURVE",
"425 -10 OFFCURVE",
"254 -10 CURVE SMOOTH",
"158 -10 OFFCURVE",
"110 10 OFFCURVE",
"46 36 CURVE",
"58 197 LINE",
"131 197 LINE"
);
}
);
width = 537;
},
{
anchors = (
{
name = bottom;
position = "{266, 0}";
},
{
name = top;
position = "{295, 190}";
}
);
layerId = "986A7A88-D3C4-446F-ACB8-D1DF408CF975";
paths = (
{
closed = 1;
nodes = (
"155 207 LINE",
"55 207 LINE",
"43 36 LINE",
"113 10 OFFCURVE",
"164 -10 OFFCURVE",
"266 -10 CURVE SMOOTH",
"446 -10 OFFCURVE",
"541 78 OFFCURVE",
"541 202 CURVE SMOOTH",
"541 333 OFFCURVE",
"452 377 OFFCURVE",
"357 411 CURVE SMOOTH",
"272 441 LINE SMOOTH",
"207 465 OFFCURVE",
"180 499 OFFCURVE",
"180 551 CURVE SMOOTH",
"180 610 OFFCURVE",
"213 636 OFFCURVE",
"276 636 CURVE SMOOTH",
"313 636 OFFCURVE",
"349 630 OFFCURVE",
"384 616 CURVE",
"399 537 LINE",
"496 537 LINE",
"510 702 LINE",
"437 718 OFFCURVE",
"365 729 OFFCURVE",
"291 729 CURVE SMOOTH",
"128 729 OFFCURVE",
"48 650 OFFCURVE",
"48 539 CURVE SMOOTH",
"48 433 OFFCURVE",
"106 368 OFFCURVE",
"187 337 CURVE SMOOTH",
"309 291 LINE SMOOTH",
"393 259 OFFCURVE",
"412 234 OFFCURVE",
"412 182 CURVE SMOOTH",
"412 119 OFFCURVE",
"356 86 OFFCURVE",
"289 86 CURVE SMOOTH",
"231 86 OFFCURVE",
"201 98 OFFCURVE",
"168 116 CURVE"
);
}
);
width = 580;
}
);
unicode = 0053;
},
{
color = 7;
glyphname = Scaron;
lastChange = "2016-09-05 13:29:48 +0000";
layers = (
{
components = (
{
name = S;
}
);
layerId = UUID0;
paths = (
{
closed = 1;
nodes = (
"318 754 LINE",
"432 889 LINE",
"394 921 LINE",
"280 815 LINE",
"167 921 LINE",
"128 889 LINE",
"243 754 LINE"
);
}
);
width = 537;
},
{
components = (
{
name = S;
},
{
name = caron.case;
transform = "{1, 0, 0, 1, 166, 0}";
}
);
layerId = "986A7A88-D3C4-446F-ACB8-D1DF408CF975";
width = 580;
}
);
unicode = 0160;
},
{
color = 7;
glyphname = Scircumflex;
lastChange = "2016-09-05 13:29:48 +0000";
layers = (
{
components = (
{
name = S;
}
);
layerId = UUID0;
paths = (
{
closed = 1;
nodes = (
"317 913 LINE",
"431 778 LINE",
"393 746 LINE",
"279 852 LINE",
"166 746 LINE",
"127 778 LINE",
"242 913 LINE"
);
}
);
width = 537;
},
{
components = (
{
name = S;
},
{
name = circumflex.case;
transform = "{1, 0, 0, 1, 167, 0}";
}
);
layerId = "986A7A88-D3C4-446F-ACB8-D1DF408CF975";
width = 580;
}
);
unicode = 015C;
},
{
glyphname = T;
lastChange = "2016-09-05 13:29:48 +0000";
layers = (
{
anchors = (
{
name = top;
position = "{303, 190}";
}
);
layerId = UUID0;
paths = (
{
closed = 1;
nodes = (
"120 650 LINE",
"97 650 OFFCURVE",
"85 646 OFFCURVE",
"83 621 CURVE SMOOTH",
"77 548 LINE",
"13 548 LINE",
"7 720 LINE",
"266 720 LINE",
"266 650 LINE"
);
},
{
closed = 1;
nodes = (
"346 650 LINE",
"346 106 LINE SMOOTH",
"346 81 OFFCURVE",
"350 72 OFFCURVE",
"375 68 CURVE SMOOTH",
"432 59 LINE",
"432 0 LINE",
"174 0 LINE",
"174 59 LINE",
"231 68 LINE SMOOTH",
"256 72 OFFCURVE",
"260 81 OFFCURVE",
"260 106 CURVE SMOOTH",
"260 720 LINE",
"599 720 LINE",
"593 548 LINE",
"529 548 LINE",
"523 621 LINE SMOOTH",
"521 646 OFFCURVE",
"509 650 OFFCURVE",
"485 650 CURVE SMOOTH"
);
}
);
width = 606;
},
{
anchors = (
{
name = bottom;
position = "{313, 0}";
},
{
name = top;
position = "{313, 190}";
}
);
layerId = "986A7A88-D3C4-446F-ACB8-D1DF408CF975";
paths = (
{
closed = 1;
nodes = (
"479 620 LINE",
"503 620 OFFCURVE",
"514 616 OFFCURVE",
"517 591 CURVE SMOOTH",
"524 523 LINE",
"608 523 LINE",
"615 720 LINE",
"12 720 LINE",
"19 523 LINE",
"103 523 LINE",
"110 591 LINE SMOOTH",
"113 616 OFFCURVE",
"124 620 OFFCURVE",
"147 620 CURVE SMOOTH",
"250 620 LINE",
"250 126 LINE SMOOTH",
"250 101 OFFCURVE",
"246 92 OFFCURVE",
"221 88 CURVE SMOOTH",
"169 79 LINE",
"169 0 LINE",
"458 0 LINE",
"458 79 LINE",
"406 88 LINE SMOOTH",
"381 92 OFFCURVE",
"377 101 OFFCURVE",
"377 126 CURVE SMOOTH",
"377 620 LINE"
);
}
);
width = 627;
}
);
unicode = 0054;
},
{
color = 7;
glyphname = Tbar;
lastChange = "2016-09-05 13:29:48 +0000";
layers = (
{
components = (
{
name = T;
}
);
layerId = UUID0;
paths = (
{
closed = 1;
nodes = (
"95 396 LINE",
"511 396 LINE",
"511 331 LINE",
"95 331 LINE"
);
}
);
width = 606;
},
{
components = (
{
name = T;
}
);
layerId = "986A7A88-D3C4-446F-ACB8-D1DF408CF975";
paths = (
{
closed = 1;
nodes = (
"107 304 LINE",
"519 304 LINE",
"519 412 LINE",
"107 412 LINE"
);
}
);
width = 627;
}
);
unicode = 0166;
},
{
color = 7;
glyphname = Tcaron;
lastChange = "2016-09-05 13:29:48 +0000";
layers = (
{
components = (
{
name = T;
}
);
layerId = UUID0;
paths = (
{
closed = 1;
nodes = (
"341 754 LINE",
"455 889 LINE",
"417 921 LINE",
"303 815 LINE",
"190 921 LINE",
"151 889 LINE",
"266 754 LINE"
);
}
);
width = 606;
},
{
components = (
{
name = T;
},
{
name = caron.case;
transform = "{1, 0, 0, 1, 184, 0}";
}
);
layerId = "986A7A88-D3C4-446F-ACB8-D1DF408CF975";
width = 627;
}
);
unicode = 0164;
},
{
color = 7;
glyphname = Tcedilla;
lastChange = "2016-09-05 13:29:48 +0000";
layers = (
{
anchors = (
{
name = top;
position = "{303, 190}";
}
);
components = (
{
name = cedilla;
transform = "{1, 0, 0, 1, 141, 0}";
}
);
layerId = UUID0;
paths = (
{
closed = 1;
nodes = (
"120 650 LINE",
"97 650 OFFCURVE",
"85 646 OFFCURVE",
"83 621 CURVE SMOOTH",
"77 548 LINE",
"13 548 LINE",
"7 720 LINE",
"266 720 LINE",
"266 650 LINE"
);
},
{
closed = 1;
nodes = (
"346 650 LINE",
"346 106 LINE SMOOTH",
"346 81 OFFCURVE",
"350 72 OFFCURVE",
"375 68 CURVE SMOOTH",
"432 59 LINE",
"432 0 LINE",
"174 0 LINE",
"174 59 LINE",
"231 68 LINE SMOOTH",
"256 72 OFFCURVE",
"260 81 OFFCURVE",
"260 106 CURVE SMOOTH",
"260 720 LINE",
"599 720 LINE",
"593 548 LINE",
"529 548 LINE",
"523 621 LINE SMOOTH",
"521 646 OFFCURVE",
"509 650 OFFCURVE",
"485 650 CURVE SMOOTH"
);
}
);
width = 606;
},
{
components = (
{
name = T;
},
{
name = cedilla;
transform = "{1, 0, 0, 1, 146, 0}";
}
);
layerId = "986A7A88-D3C4-446F-ACB8-D1DF408CF975";
width = 627;
}
);
unicode = 0162;
},
{
glyphname = U;
lastChange = "2016-09-05 13:29:48 +0000";
layers = (
{
anchors = (
{
name = top;
position = "{362, 190}";
}
);
layerId = UUID0;
paths = (
{
closed = 1;
nodes = (
"613 232 LINE",
"613 55 OFFCURVE",
"476 -10 OFFCURVE",
"351 -10 CURVE SMOOTH",
"191 -10 OFFCURVE",
"110 77 OFFCURVE",
"110 232 CURVE SMOOTH",
"110 614 LINE SMOOTH",
"110 639 OFFCURVE",
"106 648 OFFCURVE",
"81 652 CURVE SMOOTH",
"28 661 LINE",
"28 720 LINE",
"278 720 LINE",
"278 661 LINE",
"225 652 LINE SMOOTH",
"200 648 OFFCURVE",
"196 639 OFFCURVE",
"196 614 CURVE SMOOTH",
"196 248 LINE SMOOTH",
"196 107 OFFCURVE",
"288 70 OFFCURVE",
"382 70 CURVE SMOOTH",
"422 70 OFFCURVE",
"466 81 OFFCURVE",
"494 107 CURVE SMOOTH",
"517 129 OFFCURVE",
"531 172 OFFCURVE",
"531 256 CURVE SMOOTH",
"531 614 LINE SMOOTH",
"531 639 OFFCURVE",
"527 648 OFFCURVE",
"502 652 CURVE SMOOTH",
"449 661 LINE",
"449 720 LINE",
"695 720 LINE",
"695 661 LINE",
"642 652 LINE SMOOTH",
"617 648 OFFCURVE",
"613 639 OFFCURVE",
"613 614 CURVE SMOOTH"
);
}
);
width = 721;
},
{
anchors = (
{
name = bottom;
position = "{351, 0}";
},
{
name = top;
position = "{363, 190}";
}
);
layerId = "986A7A88-D3C4-446F-ACB8-D1DF408CF975";
paths = (
{
closed = 1;
nodes = (
"630 594 LINE",
"630 619 OFFCURVE",
"634 629 OFFCURVE",
"659 632 CURVE SMOOTH",
"707 641 LINE",
"707 720 LINE",
"430 720 LINE",
"430 641 LINE",
"478 632 LINE SMOOTH",
"503 628 OFFCURVE",
"507 619 OFFCURVE",
"507 594 CURVE SMOOTH",
"507 256 LINE SMOOTH",
"507 178 OFFCURVE",
"498 136 OFFCURVE",
"475 117 CURVE SMOOTH",
"452 99 OFFCURVE",
"415 95 OFFCURVE",
"383 95 CURVE SMOOTH",
"302 95 OFFCURVE",
"222 127 OFFCURVE",
"222 248 CURVE SMOOTH",
"222 594 LINE SMOOTH",
"222 619 OFFCURVE",
"226 629 OFFCURVE",
"251 632 CURVE SMOOTH",
"299 641 LINE",
"299 720 LINE",
"18 720 LINE",
"18 641 LINE",
"66 632 LINE SMOOTH",
"91 628 OFFCURVE",
"95 619 OFFCURVE",
"95 594 CURVE SMOOTH",
"95 232 LINE SMOOTH",
"95 77 OFFCURVE",
"183 -10 OFFCURVE",
"352 -10 CURVE SMOOTH",
"483 -10 OFFCURVE",
"630 55 OFFCURVE",
"630 232 CURVE"
);
}
);
width = 725;
}
);
unicode = 0055;
},
{
color = 7;
glyphname = Uacute;
lastChange = "2016-09-05 13:29:48 +0000";
layers = (
{
components = (
{
name = U;
}
);
layerId = UUID0;
paths = (
{
closed = 1;
nodes = (
"547 868 LINE",
"394 764 LINE SMOOTH",
"383 757 OFFCURVE",
"375 754 OFFCURVE",
"367 754 CURVE SMOOTH",
"347 754 OFFCURVE",
"331 769 OFFCURVE",
"319 783 CURVE",
"498 935 LINE"
);
}
);
width = 721;
},
{
components = (
{
name = U;
},
{
name = acute.case;
transform = "{1, 0, 0, 1, 276, 0}";
}
);
layerId = "986A7A88-D3C4-446F-ACB8-D1DF408CF975";
width = 725;
}
);
unicode = 00DA;
},
{
color = 7;
glyphname = Ucircumflex;
lastChange = "2016-09-05 13:29:48 +0000";
layers = (
{
components = (
{
name = U;
}
);
layerId = UUID0;
paths = (
{
closed = 1;
nodes = (
"402 913 LINE",
"516 778 LINE",
"478 746 LINE",
"364 852 LINE",
"251 746 LINE",
"212 778 LINE",
"327 913 LINE"
);
}
);
width = 721;
},
{
components = (
{
name = U;
},
{
name = circumflex.case;
transform = "{1, 0, 0, 1, 235, 0}";
}
);
layerId = "986A7A88-D3C4-446F-ACB8-D1DF408CF975";
width = 725;
}
);
unicode = 00DB;
},
{
color = 7;
glyphname = Ugrave;
lastChange = "2016-09-05 13:29:48 +0000";
layers = (
{
components = (
{
name = U;
}
);
layerId = UUID0;
paths = (
{
closed = 1;
nodes = (
"186 868 LINE",
"339 764 LINE SMOOTH",
"350 757 OFFCURVE",
"358 754 OFFCURVE",
"366 754 CURVE SMOOTH",
"386 754 OFFCURVE",
"402 769 OFFCURVE",
"414 783 CURVE",
"235 935 LINE"
);
}
);
width = 721;
},
{
components = (
{
name = U;
},
{
name = grave.case;
transform = "{1, 0, 0, 1, 185, 0}";
}
);
layerId = "986A7A88-D3C4-446F-ACB8-D1DF408CF975";
width = 725;
}
);
unicode = 00D9;
},
{
color = 7;
glyphname = Uhorn;
lastChange = "2016-09-05 13:29:48 +0000";
layers = (
{
layerId = UUID0;
paths = (
{
closed = 1;
nodes = (
"614 232 LINE",
"614 55 OFFCURVE",
"477 -10 OFFCURVE",
"352 -10 CURVE SMOOTH",
"192 -10 OFFCURVE",
"111 77 OFFCURVE",
"111 232 CURVE SMOOTH",
"111 614 LINE SMOOTH",
"111 639 OFFCURVE",
"107 648 OFFCURVE",
"82 652 CURVE SMOOTH",
"29 661 LINE",
"29 720 LINE",
"279 720 LINE",
"279 661 LINE",
"226 652 LINE SMOOTH",
"201 648 OFFCURVE",
"197 639 OFFCURVE",
"197 614 CURVE SMOOTH",
"197 248 LINE SMOOTH",
"197 107 OFFCURVE",
"289 70 OFFCURVE",
"383 70 CURVE SMOOTH",
"423 70 OFFCURVE",
"467 81 OFFCURVE",
"495 107 CURVE SMOOTH",
"518 129 OFFCURVE",
"532 172 OFFCURVE",
"532 256 CURVE SMOOTH",
"532 614 LINE SMOOTH",
"532 639 OFFCURVE",
"528 648 OFFCURVE",
"503 652 CURVE SMOOTH",
"450 661 LINE",
"450 720 LINE",
"683 720 LINE",
"683 661 LINE",
"643 652 LINE SMOOTH",
"618 648 OFFCURVE",
"614 639 OFFCURVE",
"614 614 CURVE SMOOTH"
);
},
{
closed = 1;
nodes = (
"757 833 LINE",
"760 822 OFFCURVE",
"764 805 OFFCURVE",
"764 778 CURVE SMOOTH",
"764 672 OFFCURVE",
"648 632 OFFCURVE",
"570 622 CURVE",
"565 668 LINE",
"627 678 OFFCURVE",
"682 696 OFFCURVE",
"682 770 CURVE SMOOTH",
"682 785 OFFCURVE",
"678 800 OFFCURVE",
"674 821 CURVE"
);
}
);
width = 747;
},
{
components = (
{
name = U;
}
);
layerId = "986A7A88-D3C4-446F-ACB8-D1DF408CF975";
paths = (
{
closed = 1;
nodes = (
"705 824 LINE",
"708 803 OFFCURVE",
"713 788 OFFCURVE",
"713 773 CURVE SMOOTH",
"713 707 OFFCURVE",
"668 690 OFFCURVE",
"621 681 CURVE",
"626 620 LINE",
"706 630 OFFCURVE",
"825 672 OFFCURVE",
"825 781 CURVE SMOOTH",
"825 808 OFFCURVE",
"821 825 OFFCURVE",
"818 836 CURVE"
);
}
);
width = 808;
}
);
unicode = 01AF;
},
{
color = 7;
glyphname = Uogonek;
lastChange = "2016-09-05 13:29:48 +0000";
layers = (
{
components = (
{
name = U;
}
);
layerId = UUID0;
paths = (
{
closed = 1;
nodes = (
"245 -126 LINE",
"245 -65 OFFCURVE",
"297 -37 OFFCURVE",
"350 0 CURVE",
"434 0 LINE",
"424 -4 OFFCURVE",
"374 -38 OFFCURVE",
"359 -50 CURVE SMOOTH",
"341 -64 OFFCURVE",
"311 -91 OFFCURVE",
"311 -117 CURVE SMOOTH",
"311 -145 OFFCURVE",
"328 -170 OFFCURVE",
"359 -170 CURVE SMOOTH",
"386 -170 OFFCURVE",
"411 -161 OFFCURVE",
"425 -157 CURVE",
"437 -198 LINE",
"424 -203 OFFCURVE",
"385 -225 OFFCURVE",
"340 -225 CURVE SMOOTH",
"278 -225 OFFCURVE",
"245 -177 OFFCURVE",
"245 -126 CURVE SMOOTH"
);
}
);
width = 721;
},
{
components = (
{
name = U;
},
{
name = ogonek;
transform = "{1, 0, 0, 1, 212, 0}";
}
);
layerId = "986A7A88-D3C4-446F-ACB8-D1DF408CF975";
width = 725;
}
);
unicode = 0172;
},
{
glyphname = V;
lastChange = "2016-09-05 13:29:48 +0000";
layers = (
{
layerId = UUID0;
paths = (
{
closed = 1;
nodes = (
"88 615 LINE",
"76 650 OFFCURVE",
"54 655 OFFCURVE",
"29 658 CURVE SMOOTH",
"-6 662 LINE",
"-6 721 LINE",
"263 721 LINE",
"263 663 LINE",
"210 657 LINE SMOOTH",
"189 655 OFFCURVE",
"181 651 OFFCURVE",
"181 638 CURVE SMOOTH",
"181 632 OFFCURVE",
"183 624 OFFCURVE",
"186 615 CURVE SMOOTH",
"371 74 LINE",
"371 1 LINE",
"310 1 LINE"
);
},
{
closed = 1;
nodes = (
"383 1 LINE",
"313 1 LINE",
"499 615 LINE SMOOTH",
"501 623 OFFCURVE",
"503 631 OFFCURVE",
"503 636 CURVE SMOOTH",
"503 650 OFFCURVE",
"494 655 OFFCURVE",
"472 657 CURVE SMOOTH",
"419 663 LINE",
"419 721 LINE",
"668 721 LINE",
"668 662 LINE",
"631 658 LINE SMOOTH",
"606 655 OFFCURVE",
"595 650 OFFCURVE",
"583 615 CURVE SMOOTH"
);
}
);
width = 662;
},
{
layerId = "986A7A88-D3C4-446F-ACB8-D1DF408CF975";
paths = (
{
closed = 1;
nodes = (
"372 159 LINE",
"361 212 LINE",
"231 594 LINE SMOOTH",
"228 603 OFFCURVE",
"226 609 OFFCURVE",
"226 615 CURVE SMOOTH",
"226 628 OFFCURVE",
"235 633 OFFCURVE",
"255 636 CURVE SMOOTH",
"303 642 LINE",
"303 720 LINE",
"2 720 LINE",
"2 641 LINE",
"32 637 LINE SMOOTH",
"58 634 OFFCURVE",
"78 630 OFFCURVE",
"91 594 CURVE SMOOTH",
"305 0 LINE",
"424 0 LINE",
"619 594 LINE SMOOTH",
"631 630 OFFCURVE",
"641 634 OFFCURVE",
"667 637 CURVE SMOOTH",
"699 641 LINE",
"699 720 LINE",
"421 720 LINE",
"421 642 LINE",
"469 636 LINE SMOOTH",
"490 633 OFFCURVE",
"500 627 OFFCURVE",
"500 613 CURVE SMOOTH",
"500 608 OFFCURVE",
"498 601 OFFCURVE",
"496 594 CURVE SMOOTH",
"379 211 LINE"
);
}
);
width = 701;
}
);
unicode = 0056;
},
{
glyphname = W;
lastChange = "2016-09-05 13:29:48 +0000";
layers = (
{
layerId = UUID0;
paths = (
{
closed = 1;
nodes = (
"729 0 LINE",
"608 0 LINE",
"479 523 LINE",
"353 0 LINE",
"231 0 LINE",
"91 614 LINE SMOOTH",
"83 649 OFFCURVE",
"61 654 OFFCURVE",
"36 657 CURVE SMOOTH",
"-3 661 LINE",
"-3 720 LINE",
"267 720 LINE",
"267 662 LINE",
"210 656 LINE SMOOTH",
"188 654 OFFCURVE",
"182 648 OFFCURVE",
"182 634 CURVE SMOOTH",
"182 629 OFFCURVE",
"183 622 OFFCURVE",
"184 614 CURVE SMOOTH",
"299 96 LINE",
"431 646 LINE",
"541 646 LINE",
"675 96 LINE",
"783 614 LINE SMOOTH",
"784 620 OFFCURVE",
"784 625 OFFCURVE",
"784 629 CURVE SMOOTH",
"784 647 OFFCURVE",
"775 654 OFFCURVE",
"751 656 CURVE SMOOTH",
"698 662 LINE",
"698 720 LINE",
"941 720 LINE",
"941 661 LINE",
"906 657 LINE SMOOTH",
"881 654 OFFCURVE",
"869 650 OFFCURVE",
"861 614 CURVE SMOOTH"
);
}
);
width = 941;
},
{
anchors = (
{
name = top;
position = "{499, 190}";
}
);
layerId = "986A7A88-D3C4-446F-ACB8-D1DF408CF975";
paths = (
{
closed = 1;
nodes = (
"508 397 LINE",
"621 0 LINE",
"754 0 LINE",
"904 594 LINE SMOOTH",
"913 630 OFFCURVE",
"924 634 OFFCURVE",
"949 637 CURVE SMOOTH",
"979 641 LINE",
"979 720 LINE",
"709 720 LINE",
"709 642 LINE",
"757 636 LINE SMOOTH",
"780 633 OFFCURVE",
"791 626 OFFCURVE",
"791 609 CURVE SMOOTH",
"791 605 OFFCURVE",
"790 600 OFFCURVE",
"789 594 CURVE SMOOTH",
"703 238 LINE",
"694 186 LINE",
"685 236 LINE",
"573 636 LINE",
"443 636 LINE",
"334 237 LINE",
"324 186 LINE",
"315 238 LINE",
"224 594 LINE SMOOTH",
"222 602 OFFCURVE",
"221 609 OFFCURVE",
"221 614 CURVE SMOOTH",
"221 628 OFFCURVE",
"229 634 OFFCURVE",
"250 636 CURVE SMOOTH",
"302 642 LINE",
"302 720 LINE",
"2 720 LINE",
"2 641 LINE",
"36 637 LINE SMOOTH",
"61 634 OFFCURVE",
"82 629 OFFCURVE",
"91 594 CURVE SMOOTH",
"248 0 LINE",
"381 0 LINE",
"491 397 LINE",
"499 447 LINE"
);
}
);
width = 981;
}
);
unicode = 0057;
},
{
color = 7;
glyphname = Wacute;
lastChange = "2016-09-05 13:29:48 +0000";
layers = (
{
components = (
{
name = W;
}
);
layerId = UUID0;
paths = (
{
closed = 1;
nodes = (
"609 868 LINE",
"456 764 LINE SMOOTH",
"445 757 OFFCURVE",
"437 754 OFFCURVE",
"429 754 CURVE SMOOTH",
"409 754 OFFCURVE",
"393 769 OFFCURVE",
"381 783 CURVE",
"560 935 LINE"
);
}
);
width = 941;
},
{
components = (
{
name = W;
},
{
name = acute.case;
transform = "{1, 0, 0, 1, 412, 0}";
}
);
layerId = "986A7A88-D3C4-446F-ACB8-D1DF408CF975";
width = 981;
}
);
unicode = 1E82;
},
{
color = 7;
glyphname = Wcircumflex;
lastChange = "2016-09-05 13:29:48 +0000";
layers = (
{
components = (
{
name = W;
}
);
layerId = UUID0;
paths = (
{
closed = 1;
nodes = (
"523 913 LINE",
"637 778 LINE",
"599 746 LINE",
"485 852 LINE",
"372 746 LINE",
"333 778 LINE",
"448 913 LINE"
);
}
);
width = 941;
},
{
components = (
{
name = W;
},
{
name = circumflex.case;
transform = "{1, 0, 0, 1, 371, 0}";
}
);
layerId = "986A7A88-D3C4-446F-ACB8-D1DF408CF975";
width = 981;
}
);
unicode = 0174;
},
{
color = 7;
glyphname = Wgrave;
lastChange = "2016-09-05 13:29:48 +0000";
layers = (
{
components = (
{
name = W;
}
);
layerId = UUID0;
paths = (
{
closed = 1;
nodes = (
"345 868 LINE",
"498 764 LINE SMOOTH",
"509 757 OFFCURVE",
"517 754 OFFCURVE",
"525 754 CURVE SMOOTH",
"545 754 OFFCURVE",
"561 769 OFFCURVE",
"573 783 CURVE",
"394 935 LINE"
);
}
);
width = 941;
},
{
components = (
{
name = W;
},
{
name = grave.case;
transform = "{1, 0, 0, 1, 313, -3}";
}
);
layerId = "986A7A88-D3C4-446F-ACB8-D1DF408CF975";
width = 981;
}
);
unicode = 1E80;
},
{
glyphname = X;
lastChange = "2016-09-05 13:29:48 +0000";
layers = (
{
layerId = UUID0;
paths = (
{
closed = 1;
nodes = (
"115 614 LINE",
"94 644 OFFCURVE",
"86 652 OFFCURVE",
"56 656 CURVE SMOOTH",
"18 661 LINE",
"18 720 LINE",
"286 720 LINE",
"286 662 LINE",
"230 656 LINE SMOOTH",
"217 655 OFFCURVE",
"211 650 OFFCURVE",
"211 642 CURVE SMOOTH",
"211 635 OFFCURVE",
"215 626 OFFCURVE",
"223 614 CURVE SMOOTH",
"581 106 LINE SMOOTH",
"599 81 OFFCURVE",
"611 67 OFFCURVE",
"636 64 CURVE SMOOTH",
"674 59 LINE",
"674 0 LINE",
"399 0 LINE",
"399 58 LINE",
"460 64 LINE SMOOTH",
"476 65 OFFCURVE",
"487 72 OFFCURVE",
"487 84 CURVE SMOOTH",
"487 90 OFFCURVE",
"484 97 OFFCURVE",
"478 106 CURVE SMOOTH"
);
},
{
closed = 1;
nodes = (
"359 351 LINE",
"203 106 LINE SMOOTH",
"196 95 OFFCURVE",
"192 86 OFFCURVE",
"192 79 CURVE SMOOTH",
"192 70 OFFCURVE",
"198 65 OFFCURVE",
"212 64 CURVE SMOOTH",
"273 58 LINE",
"273 0 LINE",
"6 0 LINE",
"6 59 LINE",
"44 64 LINE SMOOTH",
"74 67 OFFCURVE",
"92 76 OFFCURVE",
"112 106 CURVE SMOOTH",
"318 415 LINE"
);
},
{
closed = 1;
nodes = (
"331 409 LINE",
"462 614 LINE SMOOTH",
"470 626 OFFCURVE",
"475 636 OFFCURVE",
"475 643 CURVE SMOOTH",
"475 650 OFFCURVE",
"470 655 OFFCURVE",
"457 656 CURVE SMOOTH",
"406 662 LINE",
"406 720 LINE",
"660 720 LINE",
"660 661 LINE",
"622 656 LINE SMOOTH",
"592 652 OFFCURVE",
"570 644 OFFCURVE",
"551 614 CURVE SMOOTH",
"374 343 LINE"
);
}
);
width = 683;
},
{
layerId = "986A7A88-D3C4-446F-ACB8-D1DF408CF975";
paths = (
{
closed = 1;
nodes = (
"280 380 LINE",
"108 126 LINE SMOOTH",
"88 97 OFFCURVE",
"76 87 OFFCURVE",
"50 84 CURVE SMOOTH",
"4 79 LINE",
"4 0 LINE",
"295 0 LINE",
"295 78 LINE",
"252 84 LINE SMOOTH",
"237 86 OFFCURVE",
"231 90 OFFCURVE",
"231 99 CURVE SMOOTH",
"231 106 OFFCURVE",
"236 115 OFFCURVE",
"243 126 CURVE SMOOTH",
"347 290 LINE",
"469 126 LINE SMOOTH",
"476 117 OFFCURVE",
"479 110 OFFCURVE",
"479 104 CURVE SMOOTH",
"479 92 OFFCURVE",
"467 86 OFFCURVE",
"451 84 CURVE SMOOTH",
"409 78 LINE",
"409 0 LINE",
"723 0 LINE",
"723 79 LINE",
"676 84 LINE SMOOTH",
"655 86 OFFCURVE",
"641 102 OFFCURVE",
"623 126 CURVE SMOOTH",
"445 366 LINE",
"598 594 LINE SMOOTH",
"618 624 OFFCURVE",
"629 633 OFFCURVE",
"655 636 CURVE SMOOTH",
"701 641 LINE",
"701 720 LINE",
"427 720 LINE",
"427 642 LINE",
"460 636 LINE SMOOTH",
"472 634 OFFCURVE",
"479 630 OFFCURVE",
"479 623 CURVE SMOOTH",
"479 616 OFFCURVE",
"473 606 OFFCURVE",
"465 594 CURVE SMOOTH",
"377 457 LINE",
"276 594 LINE SMOOTH",
"267 606 OFFCURVE",
"262 615 OFFCURVE",
"262 622 CURVE SMOOTH",
"262 630 OFFCURVE",
"269 634 OFFCURVE",
"283 636 CURVE SMOOTH",
"320 642 LINE",
"320 720 LINE",
"26 720 LINE",
"26 641 LINE",
"73 636 LINE SMOOTH",
"96 634 OFFCURVE",
"101 622 OFFCURVE",
"122 594 CURVE SMOOTH"
);
}
);
width = 727;
}
);
unicode = 0058;
},
{
glyphname = Y;
lastChange = "2016-09-05 13:29:48 +0000";
layers = (
{
anchors = (
{
name = top;
position = "{337, 190}";
}
);
layerId = UUID0;
paths = (
{
closed = 1;
nodes = (
"377 254 LINE",
"292 254 LINE",
"94 614 LINE SMOOTH",
"77 644 OFFCURVE",
"64 652 OFFCURVE",
"34 656 CURVE SMOOTH",
"-4 661 LINE",
"-4 720 LINE",
"265 720 LINE",
"265 662 LINE",
"215 656 LINE SMOOTH",
"195 653 OFFCURVE",
"183 649 OFFCURVE",
"183 637 CURVE SMOOTH",
"183 631 OFFCURVE",
"186 624 OFFCURVE",
"191 614 CURVE SMOOTH",
"348 331 LINE",
"498 614 LINE SMOOTH",
"503 623 OFFCURVE",
"505 630 OFFCURVE",
"505 635 CURVE SMOOTH",
"505 648 OFFCURVE",
"491 652 OFFCURVE",
"470 655 CURVE SMOOTH",
"420 661 LINE",
"420 720 LINE",
"668 720 LINE",
"668 661 LINE",
"630 656 LINE SMOOTH",
"601 652 OFFCURVE",
"596 643 OFFCURVE",
"580 614 CURVE SMOOTH"
);
},
{
closed = 1;
nodes = (
"292 309 LINE",
"378 309 LINE",
"378 106 LINE SMOOTH",
"378 81 OFFCURVE",
"382 72 OFFCURVE",
"407 68 CURVE SMOOTH",
"464 59 LINE",
"464 0 LINE",
"206 0 LINE",
"206 59 LINE",
"263 68 LINE SMOOTH",
"288 72 OFFCURVE",
"292 81 OFFCURVE",
"292 106 CURVE SMOOTH"
);
}
);
width = 670;
},
{
anchors = (
{
name = bottom;
position = "{352, 0}";
},
{
name = top;
position = "{351, 190}";
}
);
layerId = "986A7A88-D3C4-446F-ACB8-D1DF408CF975";
paths = (
{
closed = 1;
nodes = (
"604 594 LINE",
"620 623 OFFCURVE",
"625 631 OFFCURVE",
"654 636 CURVE",
"698 641 LINE",
"698 720 LINE",
"414 720 LINE",
"414 641 LINE",
"449 635 LINE SMOOTH",
"473 631 OFFCURVE",
"484 628 OFFCURVE",
"484 616 CURVE SMOOTH",
"484 611 OFFCURVE",
"482 603 OFFCURVE",
"477 594 CURVE SMOOTH",
"361 360 LINE",
"240 594 LINE SMOOTH",
"235 604 OFFCURVE",
"231 611 OFFCURVE",
"231 617 CURVE SMOOTH",
"231 629 OFFCURVE",
"244 633 OFFCURVE",
"264 636 CURVE SMOOTH",
"299 642 LINE",
"299 720 LINE",
"2 720 LINE",
"2 641 LINE",
"46 636 LINE SMOOTH",
"70 633 OFFCURVE",
"80 623 OFFCURVE",
"96 594 CURVE SMOOTH",
"285 248 LINE",
"285 126 LINE SMOOTH",
"285 101 OFFCURVE",
"281 92 OFFCURVE",
"256 88 CURVE SMOOTH",
"204 79 LINE",
"204 0 LINE",
"493 0 LINE",
"493 79 LINE",
"441 88 LINE SMOOTH",
"416 92 OFFCURVE",
"412 101 OFFCURVE",
"412 126 CURVE SMOOTH",
"412 238 LINE"
);
}
);
width = 700;
}
);
unicode = 0059;
},
{
color = 7;
glyphname = Yacute;
lastChange = "2016-09-05 13:29:48 +0000";
layers = (
{
components = (
{
name = Y;
}
);
layerId = UUID0;
paths = (
{
closed = 1;
nodes = (
"523 868 LINE",
"370 764 LINE SMOOTH",
"359 757 OFFCURVE",
"351 754 OFFCURVE",
"343 754 CURVE SMOOTH",
"323 754 OFFCURVE",
"307 769 OFFCURVE",
"295 783 CURVE",
"474 935 LINE"
);
}
);
width = 670;
},
{
components = (
{
name = Y;
},
{
name = acute.case;
transform = "{1, 0, 0, 1, 264, 0}";
}
);
layerId = "986A7A88-D3C4-446F-ACB8-D1DF408CF975";
width = 700;
}
);
unicode = 00DD;
},
{
color = 7;
glyphname = Ycircumflex;
lastChange = "2016-09-05 13:29:48 +0000";
layers = (
{
components = (
{
name = Y;
}
);
layerId = UUID0;
paths = (
{
closed = 1;
nodes = (
"379 913 LINE",
"493 778 LINE",
"455 746 LINE",
"341 852 LINE",
"228 746 LINE",
"189 778 LINE",
"304 913 LINE"
);
}
);
width = 670;
},
{
components = (
{
name = Y;
},
{
name = circumflex.case;
transform = "{1, 0, 0, 1, 223, 0}";
}
);
layerId = "986A7A88-D3C4-446F-ACB8-D1DF408CF975";
width = 700;
}
);
unicode = 0176;
},
{
color = 7;
glyphname = Ygrave;
lastChange = "2016-09-05 13:29:48 +0000";
layers = (
{
components = (
{
name = Y;
}
);
layerId = UUID0;
paths = (
{
closed = 1;
nodes = (
"162 868 LINE",
"315 764 LINE SMOOTH",
"326 757 OFFCURVE",
"334 754 OFFCURVE",
"342 754 CURVE SMOOTH",
"362 754 OFFCURVE",
"378 769 OFFCURVE",
"390 783 CURVE",
"211 935 LINE"
);
}
);
width = 670;
},
{
components = (
{
name = Y;
},
{
name = grave.case;
transform = "{1, 0, 0, 1, 173, 0}";
}
);
layerId = "986A7A88-D3C4-446F-ACB8-D1DF408CF975";
width = 700;
}
);
unicode = 1EF2;
},
{
color = 7;
glyphname = Ytilde;
lastChange = "2016-09-05 13:29:48 +0000";
layers = (
{
anchors = (
{
name = top;
position = "{337, 190}";
}
);
layerId = UUID0;
paths = (
{
closed = 1;
nodes = (
"377 254 LINE",
"292 254 LINE",
"94 614 LINE SMOOTH",
"77 644 OFFCURVE",
"64 652 OFFCURVE",
"34 656 CURVE SMOOTH",
"-4 661 LINE",
"-4 720 LINE",
"265 720 LINE",
"265 662 LINE",
"215 656 LINE SMOOTH",
"195 653 OFFCURVE",
"183 649 OFFCURVE",
"183 637 CURVE SMOOTH",
"183 631 OFFCURVE",
"186 624 OFFCURVE",
"191 614 CURVE SMOOTH",
"348 331 LINE",
"498 614 LINE SMOOTH",
"503 623 OFFCURVE",
"505 630 OFFCURVE",
"505 635 CURVE SMOOTH",
"505 648 OFFCURVE",
"491 652 OFFCURVE",
"470 655 CURVE SMOOTH",
"420 661 LINE",
"420 720 LINE",
"668 720 LINE",
"668 661 LINE",
"630 656 LINE SMOOTH",
"601 652 OFFCURVE",
"596 643 OFFCURVE",
"580 614 CURVE SMOOTH"
);
},
{
closed = 1;
nodes = (
"292 309 LINE",
"378 309 LINE",
"378 106 LINE SMOOTH",
"378 81 OFFCURVE",
"382 72 OFFCURVE",
"407 68 CURVE SMOOTH",
"464 59 LINE",
"464 0 LINE",
"206 0 LINE",
"206 59 LINE",
"263 68 LINE SMOOTH",
"288 72 OFFCURVE",
"292 81 OFFCURVE",
"292 106 CURVE SMOOTH"
);
},
{
closed = 1;
nodes = (
"265 810 LINE SMOOTH",
"239 810 OFFCURVE",
"214 793 OFFCURVE",
"197 779 CURVE",
"182 821 LINE",
"203 851 OFFCURVE",
"235 879 OFFCURVE",
"272 879 CURVE SMOOTH",
"328 879 OFFCURVE",
"367 844 OFFCURVE",
"410 844 CURVE SMOOTH",
"432 844 OFFCURVE",
"462 859 OFFCURVE",
"476 871 CURVE",
"492 831 LINE",
"472 802 OFFCURVE",
"439 773 OFFCURVE",
"403 773 CURVE SMOOTH",
"350 773 OFFCURVE",
"311 810 OFFCURVE",
"265 810 CURVE SMOOTH"
);
}
);
width = 670;
},
{
components = (
{
name = Y;
},
{
name = tilde;
transform = "{1, 0, 0, 1, 149, 190}";
}
);
layerId = "986A7A88-D3C4-446F-ACB8-D1DF408CF975";
width = 700;
}
);
unicode = 1EF8;
},
{
glyphname = Z;
lastChange = "2016-09-05 13:29:48 +0000";
layers = (
{
anchors = (
{
name = top;
position = "{324, 190}";
}
);
layerId = UUID0;
paths = (
{
closed = 1;
nodes = (
"469 650 LINE",
"58 73 LINE",
"58 0 LINE",
"591 0 LINE",
"585 177 LINE",
"518 177 LINE",
"512 102 LINE SMOOTH",
"510 77 OFFCURVE",
"498 73 OFFCURVE",
"474 73 CURVE",
"160 73 LINE",
"571 650 LINE",
"571 720 LINE",
"73 720 LINE",
"79 551 LINE",
"145 551 LINE",
"151 621 LINE SMOOTH",
"153 646 OFFCURVE",
"165 650 OFFCURVE",
"189 650 CURVE SMOOTH"
);
}
);
width = 624;
},
{
anchors = (
{
name = top;
position = "{311, 190}";
}
);
layerId = "986A7A88-D3C4-446F-ACB8-D1DF408CF975";
paths = (
{
closed = 1;
nodes = (
"401 619 LINE",
"43 99 LINE",
"43 0 LINE",
"580 0 LINE",
"573 203 LINE",
"486 203 LINE",
"479 133 LINE SMOOTH",
"477 108 OFFCURVE",
"465 104 OFFCURVE",
"441 104 CURVE SMOOTH",
"202 104 LINE",
"560 624 LINE",
"560 720 LINE",
"59 720 LINE",
"66 520 LINE",
"153 520 LINE",
"160 590 LINE SMOOTH",
"162 615 OFFCURVE",
"174 619 OFFCURVE",
"198 619 CURVE SMOOTH"
);
}
);
width = 619;
}
);
unicode = 005A;
},
{
color = 7;
glyphname = Zacute;
lastChange = "2016-09-05 13:29:48 +0000";
layers = (
{
components = (
{
name = Z;
}
);
layerId = UUID0;
paths = (
{
closed = 1;
nodes = (
"507 868 LINE",
"354 764 LINE SMOOTH",
"343 757 OFFCURVE",
"335 754 OFFCURVE",
"327 754 CURVE SMOOTH",
"307 754 OFFCURVE",
"291 769 OFFCURVE",
"279 783 CURVE",
"458 935 LINE"
);
}
);
width = 624;
},
{
components = (
{
name = Z;
},
{
name = acute.case;
transform = "{1, 0, 0, 1, 224, 0}";
}
);
layerId = "986A7A88-D3C4-446F-ACB8-D1DF408CF975";
width = 619;
}
);
unicode = 0179;
},
{
color = 7;
glyphname = Zcaron;
lastChange = "2016-09-05 13:29:48 +0000";
layers = (
{
components = (
{
name = Z;
}
);
layerId = UUID0;
paths = (
{
closed = 1;
nodes = (
"363 754 LINE",
"477 889 LINE",
"439 921 LINE",
"325 815 LINE",
"212 921 LINE",
"173 889 LINE",
"288 754 LINE"
);
}
);
width = 624;
},
{
components = (
{
name = Z;
},
{
name = caron.case;
transform = "{1, 0, 0, 1, 182, 0}";
}
);
layerId = "986A7A88-D3C4-446F-ACB8-D1DF408CF975";
width = 619;
}
);
unicode = 017D;
},
{
color = 7;
glyphname = uni1E00;
lastChange = "2016-09-05 13:29:48 +0000";
layers = (
{
components = (
{
name = A;
}
);
layerId = UUID0;
paths = (
{
closed = 1;
nodes = (
"413 -125 LINE SMOOTH",
"413 -170 OFFCURVE",
"378 -220 OFFCURVE",
"313 -220 CURVE SMOOTH",
"253 -220 OFFCURVE",
"222 -173 OFFCURVE",
"222 -128 CURVE SMOOTH",
"222 -83 OFFCURVE",
"257 -33 OFFCURVE",
"322 -33 CURVE SMOOTH",
"382 -33 OFFCURVE",
"413 -80 OFFCURVE",
"413 -125 CURVE SMOOTH"
);
},
{
closed = 1;
nodes = (
"363 -123 LINE SMOOTH",
"363 -98 OFFCURVE",
"342 -81 OFFCURVE",
"317 -81 CURVE SMOOTH",
"287 -81 OFFCURVE",
"272 -101 OFFCURVE",
"272 -131 CURVE SMOOTH",
"272 -156 OFFCURVE",
"293 -173 OFFCURVE",
"318 -173 CURVE SMOOTH",
"348 -173 OFFCURVE",
"363 -153 OFFCURVE",
"363 -123 CURVE SMOOTH"
);
}
);
width = 663;
},
{
components = (
{
name = A;
},
{
name = ring;
transform = "{1, 0, 0, 1, 189, -797}";
}
);
layerId = "986A7A88-D3C4-446F-ACB8-D1DF408CF975";
width = 705;
}
);
unicode = 1E00;
},
{
color = 7;
glyphname = uni1E3E;
lastChange = "2016-09-05 13:42:24 +0000";
layers = (
{
components = (
{
name = M;
}
);
layerId = UUID0;
paths = (
{
closed = 1;
nodes = (
"604 868 LINE",
"451 764 LINE SMOOTH",
"440 757 OFFCURVE",
"432 754 OFFCURVE",
"424 754 CURVE SMOOTH",
"404 754 OFFCURVE",
"388 769 OFFCURVE",
"376 783 CURVE",
"555 935 LINE"
);
}
);
width = 893;
},
{
layerId = "986A7A88-D3C4-446F-ACB8-D1DF408CF975";
width = 600;
}
);
unicode = 1E3E;
},
{
glyphname = a;
lastChange = "2016-09-05 13:29:48 +0000";
layers = (
{
anchors = (
{
name = bottom;
position = "{405, 0}";
},
{
name = top;
position = "{237, -10}";
}
);
layerId = UUID0;
paths = (
{
closed = 1;
nodes = (
"414 98 LINE",
"414 70 OFFCURVE",
"416 62 OFFCURVE",
"437 60 CURVE SMOOTH",
"493 54 LINE",
"493 0 LINE",
"347 0 LINE",
"339 78 LINE",
"286 22 OFFCURVE",
"227 -10 OFFCURVE",
"163 -10 CURVE SMOOTH",
"87 -10 OFFCURVE",
"37 42 OFFCURVE",
"37 118 CURVE SMOOTH",
"37 197 OFFCURVE",
"84 249 OFFCURVE",
"173 261 CURVE SMOOTH",
"335 283 LINE",
"335 350 LINE SMOOTH",
"335 411 OFFCURVE",
"288 430 OFFCURVE",
"227 430 CURVE SMOOTH",
"195 430 OFFCURVE",
"159 420 OFFCURVE",
"139 411 CURVE",
"125 338 LINE",
"67 338 LINE",
"60 453 LINE",
"135 480 OFFCURVE",
"172 490 OFFCURVE",
"230 490 CURVE SMOOTH",
"325 490 OFFCURVE",
"414 452 OFFCURVE",
"414 352 CURVE SMOOTH"
);
},
{
closed = 1;
nodes = (
"196 206 LINE",
"149 199 OFFCURVE",
"120 170 OFFCURVE",
"120 126 CURVE SMOOTH",
"120 84 OFFCURVE",
"151 61 OFFCURVE",
"193 61 CURVE SMOOTH",
"247 61 OFFCURVE",
"306 114 OFFCURVE",
"335 140 CURVE",
"335 229 LINE"
);
}
);
width = 527;
},
{
anchors = (
{
name = bottom;
position = "{422, 0}";
},
{
name = top;
position = "{261, 0}";
}
);
layerId = "986A7A88-D3C4-446F-ACB8-D1DF408CF975";
paths = (
{
closed = 1;
nodes = (
"449 351 LINE",
"449 455 OFFCURVE",
"352 495 OFFCURVE",
"248 495 CURVE SMOOTH",
"187 495 OFFCURVE",
"151 483 OFFCURVE",
"67 453 CURVE",
"76 330 LINE",
"155 330 LINE",
"167 396 LINE",
"187 405 OFFCURVE",
"216 412 OFFCURVE",
"242 412 CURVE SMOOTH",
"292 412 OFFCURVE",
"329 395 OFFCURVE",
"329 349 CURVE SMOOTH",
"329 291 LINE",
"190 273 LINE SMOOTH",
"91 260 OFFCURVE",
"40 204 OFFCURVE",
"40 124 CURVE SMOOTH",
"40 45 OFFCURVE",
"85 -10 OFFCURVE",
"183 -10 CURVE SMOOTH",
"252 -10 OFFCURVE",
"308 32 OFFCURVE",
"335 59 CURVE",
"343 0 LINE",
"522 0 LINE",
"522 74 LINE",
"471 81 LINE SMOOTH",
"453 83 OFFCURVE",
"449 91 OFFCURVE",
"449 109 CURVE"
);
},
{
closed = 1;
nodes = (
"329 212 LINE",
"329 134 LINE",
"316 117 OFFCURVE",
"260 80 OFFCURVE",
"219 80 CURVE SMOOTH",
"184 80 OFFCURVE",
"163 98 OFFCURVE",
"163 130 CURVE SMOOTH",
"163 167 OFFCURVE",
"184 188 OFFCURVE",
"219 194 CURVE"
);
}
);
width = 544;
}
);
unicode = 0061;
},
{
color = 7;
glyphname = aringacute;
lastChange = "2016-09-05 13:29:48 +0000";
layers = (
{
components = (
{
name = a;
},
{
name = ring;
transform = "{1, 0, 0, 1, 66, -10}";
}
);
layerId = UUID0;
paths = (
{
closed = 1;
nodes = (
"333 880 LINE",
"180 776 LINE SMOOTH",
"169 769 OFFCURVE",
"161 766 OFFCURVE",
"153 766 CURVE SMOOTH",
"133 766 OFFCURVE",
"117 781 OFFCURVE",
"105 795 CURVE",
"284 947 LINE"
);
}
);
width = 527;
},
{
components = (
{
name = a;
},
{
name = ring;
transform = "{1, 0, 0, 1, 105, 0}";
},
{
name = acute.case;
transform = "{1, 0, 0, 1, 143, 36}";
}
);
layerId = "986A7A88-D3C4-446F-ACB8-D1DF408CF975";
width = 544;
}
);
unicode = 01FB;
},
{
color = 7;
glyphname = ae;
lastChange = "2016-09-05 13:29:48 +0000";
layers = (
{
layerId = UUID0;
paths = (
{
closed = 1;
nodes = (
"395 132 LINE",
"361 83 LINE",
"321 45 OFFCURVE",
"262 -10 OFFCURVE",
"161 -10 CURVE SMOOTH",
"85 -10 OFFCURVE",
"35 42 OFFCURVE",
"35 118 CURVE SMOOTH",
"35 197 OFFCURVE",
"84 243 OFFCURVE",
"146 255 CURVE SMOOTH",
"221 270 OFFCURVE",
"311 279 OFFCURVE",
"333 283 CURVE",
"333 350 LINE SMOOTH",
"333 411 OFFCURVE",
"286 430 OFFCURVE",
"225 430 CURVE SMOOTH",
"193 430 OFFCURVE",
"157 420 OFFCURVE",
"137 411 CURVE",
"123 338 LINE",
"65 338 LINE",
"58 453 LINE",
"133 480 OFFCURVE",
"170 490 OFFCURVE",
"228 490 CURVE SMOOTH",
"298 490 OFFCURVE",
"359 474 OFFCURVE",
"393 415 CURVE"
);
},
{
closed = 1;
nodes = (
"183 202 LINE SMOOTH",
"144 194 OFFCURVE",
"118 170 OFFCURVE",
"118 126 CURVE SMOOTH",
"118 84 OFFCURVE",
"149 61 OFFCURVE",
"188 61 CURVE SMOOTH",
"242 61 OFFCURVE",
"304 97 OFFCURVE",
"333 128 CURVE",
"333 227 LINE",
"325 225 OFFCURVE",
"245 215 OFFCURVE",
"183 202 CURVE SMOOTH"
);
},
{
closed = 1;
nodes = (
"409 219 LINE",
"410 115 OFFCURVE",
"457 56 OFFCURVE",
"554 56 CURVE SMOOTH",
"602 56 OFFCURVE",
"681 75 OFFCURVE",
"711 85 CURVE",
"725 36 LINE",
"703 28 OFFCURVE",
"632 -10 OFFCURVE",
"526 -10 CURVE SMOOTH",
"430 -10 OFFCURVE",
"361 34 OFFCURVE",
"342 106 CURVE",
"376 242 LINE",
"374 408 LINE",
"411 462 OFFCURVE",
"469 490 OFFCURVE",
"544 490 CURVE SMOOTH",
"696 490 OFFCURVE",
"729 394 OFFCURVE",
"729 242 CURVE"
);
},
{
closed = 1;
nodes = (
"650 300 LINE",
"650 361 OFFCURVE",
"634 424 OFFCURVE",
"540 424 CURVE SMOOTH",
"431 424 OFFCURVE",
"419 395 OFFCURVE",
"408 279 CURVE"
);
}
);
width = 768;
},
{
layerId = "986A7A88-D3C4-446F-ACB8-D1DF408CF975";
paths = (
{
closed = 1;
nodes = (
"183 -10 LINE",
"245 -10 OFFCURVE",
"331 38 OFFCURVE",
"366 88 CURVE",
"444 101 LINE",
"444 351 LINE",
"444 455 OFFCURVE",
"349 495 OFFCURVE",
"248 495 CURVE SMOOTH",
"187 495 OFFCURVE",
"151 483 OFFCURVE",
"67 453 CURVE",
"76 330 LINE",
"155 330 LINE",
"167 396 LINE",
"187 405 OFFCURVE",
"216 412 OFFCURVE",
"242 412 CURVE SMOOTH",
"292 412 OFFCURVE",
"329 395 OFFCURVE",
"329 349 CURVE SMOOTH",
"329 291 LINE",
"190 273 LINE SMOOTH",
"91 260 OFFCURVE",
"40 204 OFFCURVE",
"40 124 CURVE SMOOTH",
"40 45 OFFCURVE",
"85 -10 OFFCURVE",
"183 -10 CURVE SMOOTH"
);
},
{
closed = 1;
nodes = (
"329 212 LINE",
"329 134 LINE",
"316 117 OFFCURVE",
"260 80 OFFCURVE",
"219 80 CURVE SMOOTH",
"184 80 OFFCURVE",
"163 98 OFFCURVE",
"163 130 CURVE SMOOTH",
"163 167 OFFCURVE",
"184 188 OFFCURVE",
"219 194 CURVE SMOOTH"
);
},
{
closed = 1;
nodes = (
"759 234 LINE",
"759 394 OFFCURVE",
"725 495 OFFCURVE",
"563 495 CURVE SMOOTH",
"478 495 OFFCURVE",
"415 460 OFFCURVE",
"376 404 CURVE",
"352 95 LINE",
"385 30 OFFCURVE",
"448 -10 OFFCURVE",
"545 -10 CURVE SMOOTH",
"636 -10 OFFCURVE",
"703 15 OFFCURVE",
"757 36 CURVE",
"738 108 LINE",
"703 98 OFFCURVE",
"619 79 OFFCURVE",
"573 79 CURVE SMOOTH",
"495 79 OFFCURVE",
"456 125 OFFCURVE",
"451 212 CURVE"
);
},
{
closed = 1;
nodes = (
"449 291 LINE",
"460 381 OFFCURVE",
"474 406 OFFCURVE",
"557 406 CURVE SMOOTH",
"626 406 OFFCURVE",
"641 358 OFFCURVE",
"642 307 CURVE"
);
}
);
width = 796;
}
);
unicode = 00E6;
},
{
glyphname = b;
lastChange = "2016-09-05 13:29:48 +0000";
layers = (
{
layerId = UUID0;
paths = (
{
closed = 1;
nodes = (
"184 421 LINE",
"200 440 OFFCURVE",
"250 490 OFFCURVE",
"339 490 CURVE SMOOTH",
"445 490 OFFCURVE",
"525 404 OFFCURVE",
"525 260 CURVE SMOOTH",
"525 107 OFFCURVE",
"446 -10 OFFCURVE",
"286 -10 CURVE SMOOTH",
"218 -10 OFFCURVE",
"157 7 OFFCURVE",
"105 35 CURVE",
"105 684 LINE SMOOTH",
"105 712 OFFCURVE",
"101 720 OFFCURVE",
"80 722 CURVE SMOOTH",
"25 728 LINE",
"25 780 LINE",
"184 780 LINE"
);
},
{
closed = 1;
nodes = (
"184 97 LINE",
"220 66 OFFCURVE",
"263 56 OFFCURVE",
"303 56 CURVE SMOOTH",
"348 56 OFFCURVE",
"386 68 OFFCURVE",
"403 89 CURVE SMOOTH",
"428 125 OFFCURVE",
"439 184 OFFCURVE",
"439 248 CURVE SMOOTH",
"439 367 OFFCURVE",
"381 424 OFFCURVE",
"305 424 CURVE SMOOTH",
"245 424 OFFCURVE",
"200 381 OFFCURVE",
"184 356 CURVE"
);
}
);
width = 564;
},
{
hints = (
{
place = "{64, 143}";
},
{
place = "{384, 149}";
}
);
layerId = "986A7A88-D3C4-446F-ACB8-D1DF408CF975";
paths = (
{
closed = 1;
nodes = (
"197 367 LINE",
"213 385 OFFCURVE",
"249 405 OFFCURVE",
"293 405 CURVE SMOOTH",
"353 405 OFFCURVE",
"401 356 OFFCURVE",
"401 250 CURVE SMOOTH",
"401 190 OFFCURVE",
"392 135 OFFCURVE",
"370 107 CURVE SMOOTH",
"356 89 OFFCURVE",
"325 79 OFFCURVE",
"291 79 CURVE SMOOTH",
"262 79 OFFCURVE",
"227 88 OFFCURVE",
"197 111 CURVE"
);
},
{
closed = 1;
nodes = (
"77 36 LINE",
"135 6 OFFCURVE",
"201 -10 OFFCURVE",
"274 -10 CURVE SMOOTH",
"443 -10 OFFCURVE",
"529 108 OFFCURVE",
"529 262 CURVE SMOOTH",
"529 407 OFFCURVE",
"440 495 OFFCURVE",
"325 495 CURVE SMOOTH",
"275 495 OFFCURVE",
"223 469 OFFCURVE",
"197 445 CURVE",
"197 780 LINE",
"-2 780 LINE",
"-2 706 LINE",
"55 700 LINE SMOOTH",
"73 698 OFFCURVE",
"77 690 OFFCURVE",
"77 672 CURVE SMOOTH"
);
}
);
width = 563;
}
);
unicode = 0062;
},
{
glyphname = c;
lastChange = "2016-09-05 13:29:48 +0000";
layers = (
{
anchors = (
{
name = _top;
position = "{238, -10}";
}
);
layerId = UUID0;
paths = (
{
closed = 1;
nodes = (
"435 32 LINE",
"411 23 OFFCURVE",
"341 -10 OFFCURVE",
"255 -10 CURVE SMOOTH",
"114 -10 OFFCURVE",
"40 71 OFFCURVE",
"40 226 CURVE SMOOTH",
"40 380 OFFCURVE",
"127 490 OFFCURVE",
"268 490 CURVE SMOOTH",
"334 490 OFFCURVE",
"396 470 OFFCURVE",
"422 453 CURVE",
"415 330 LINE",
"357 330 LINE",
"343 405 LINE",
"325 415 OFFCURVE",
"293 424 OFFCURVE",
"243 424 CURVE SMOOTH",
"214 424 OFFCURVE",
"173 413 OFFCURVE",
"160 391 CURVE SMOOTH",
"135 356 OFFCURVE",
"126 294 OFFCURVE",
"126 231 CURVE SMOOTH",
"126 131 OFFCURVE",
"174 56 OFFCURVE",
"266 56 CURVE SMOOTH",
"325 56 OFFCURVE",
"379 72 OFFCURVE",
"423 83 CURVE"
);
}
);
width = 475;
},
{
anchors = (
{
name = bottom;
position = "{264, 0}";
},
{
name = top;
position = "{257, 0}";
}
);
hints = (
{
place = "{18, 156}";
}
);
layerId = "986A7A88-D3C4-446F-ACB8-D1DF408CF975";
paths = (
{
closed = 1;
nodes = (
"434 109 LINE",
"362 89 OFFCURVE",
"319 79 OFFCURVE",
"275 79 CURVE SMOOTH",
"200 79 OFFCURVE",
"162 145 OFFCURVE",
"162 233 CURVE SMOOTH",
"162 293 OFFCURVE",
"169 350 OFFCURVE",
"191 382 CURVE SMOOTH",
"202 398 OFFCURVE",
"233 406 OFFCURVE",
"257 406 CURVE SMOOTH",
"287 406 OFFCURVE",
"320 402 OFFCURVE",
"338 393 CURVE",
"355 320 LINE",
"434 320 LINE",
"443 453 LINE",
"412 473 OFFCURVE",
"345 495 OFFCURVE",
"277 495 CURVE SMOOTH",
"126 495 OFFCURVE",
"34 384 OFFCURVE",
"34 229 CURVE SMOOTH",
"34 72 OFFCURVE",
"113 -10 OFFCURVE",
"264 -10 CURVE SMOOTH",
"349 -10 OFFCURVE",
"409 20 OFFCURVE",
"450 35 CURVE"
);
}
);
width = 489;
}
);
leftKerningGroup = o;
unicode = 0063;
},
{
color = 7;
glyphname = ccircumflex;
lastChange = "2016-09-05 13:29:48 +0000";
layers = (
{
components = (
{
name = c;
}
);
layerId = UUID0;
paths = (
{
closed = 1;
nodes = (
"282 728 LINE",
"390 578 LINE",
"352 546 LINE",
"244 667 LINE",
"136 546 LINE",
"97 578 LINE",
"207 728 LINE"
);
}
);
width = 475;
},
{
components = (
{
name = c;
},
{
name = circumflex;
transform = "{1, 0, 0, 1, 75, 0}";
}
);
layerId = "986A7A88-D3C4-446F-ACB8-D1DF408CF975";
width = 489;
}
);
unicode = 0109;
},
{
glyphname = d;
lastChange = "2016-09-05 13:29:48 +0000";
layers = (
{
layerId = UUID0;
paths = (
{
closed = 1;
nodes = (
"380 385 LINE",
"350 415 OFFCURVE",
"293 424 OFFCURVE",
"261 424 CURVE SMOOTH",
"226 424 OFFCURVE",
"188 415 OFFCURVE",
"167 397 CURVE SMOOTH",
"137 372 OFFCURVE",
"125 282 OFFCURVE",
"125 239 CURVE SMOOTH",
"125 119 OFFCURVE",
"169 56 OFFCURVE",
"254 56 CURVE SMOOTH",
"326 56 OFFCURVE",
"374 119 OFFCURVE",
"380 133 CURVE"
);
},
{
closed = 1;
nodes = (
"459 98 LINE",
"459 70 OFFCURVE",
"461 62 OFFCURVE",
"482 60 CURVE SMOOTH",
"540 54 LINE",
"540 0 LINE",
"392 0 LINE",
"384 68 LINE",
"371 49 OFFCURVE",
"322 -10 OFFCURVE",
"227 -10 CURVE SMOOTH",
"112 -10 OFFCURVE",
"39 77 OFFCURVE",
"39 222 CURVE SMOOTH",
"39 362 OFFCURVE",
"124 490 OFFCURVE",
"276 490 CURVE SMOOTH",
"326 490 OFFCURVE",
"365 477 OFFCURVE",
"380 472 CURVE",
"380 684 LINE SMOOTH",
"380 712 OFFCURVE",
"376 720 OFFCURVE",
"355 722 CURVE SMOOTH",
"295 728 LINE",
"295 780 LINE",
"459 780 LINE"
);
}
);
width = 569;
},
{
hints = (
{
place = "{13, 155}";
},
{
place = "{346, 142}";
}
);
layerId = "986A7A88-D3C4-446F-ACB8-D1DF408CF975";
paths = (
{
closed = 1;
nodes = (
"359 137 LINE",
"343 116 OFFCURVE",
"304 79 OFFCURVE",
"259 79 CURVE SMOOTH",
"176 79 OFFCURVE",
"156 160 OFFCURVE",
"156 241 CURVE SMOOTH",
"156 282 OFFCURVE",
"166 364 OFFCURVE",
"189 382 CURVE SMOOTH",
"208 398 OFFCURVE",
"238 406 OFFCURVE",
"266 406 CURVE SMOOTH",
"290 406 OFFCURVE",
"332 401 OFFCURVE",
"359 378 CURVE"
);
},
{
closed = 1;
nodes = (
"275 780 LINE",
"275 706 LINE",
"337 700 LINE SMOOTH",
"355 698 OFFCURVE",
"359 690 OFFCURVE",
"359 672 CURVE SMOOTH",
"359 482 LINE",
"338 487 OFFCURVE",
"313 495 OFFCURVE",
"281 495 CURVE SMOOTH",
"118 495 OFFCURVE",
"28 366 OFFCURVE",
"28 225 CURVE SMOOTH",
"28 79 OFFCURVE",
"105 -10 OFFCURVE",
"230 -10 CURVE SMOOTH",
"291 -10 OFFCURVE",
"338 32 OFFCURVE",
"365 59 CURVE",
"373 0 LINE",
"552 0 LINE",
"552 74 LINE",
"501 81 LINE SMOOTH",
"483 83 OFFCURVE",
"479 91 OFFCURVE",
"479 109 CURVE SMOOTH",
"479 780 LINE"
);
}
);
width = 586;
}
);
leftKerningGroup = o;
unicode = 0064;
},
{
color = 7;
glyphname = eth;
lastChange = "2016-09-05 13:29:48 +0000";
layers = (
{
layerId = UUID0;
paths = (
{
closed = 1;
nodes = (
"239 424 LINE SMOOTH",
"196 424 OFFCURVE",
"167 409 OFFCURVE",
"149 392 CURVE SMOOTH",
"123 367 OFFCURVE",
"111 289 OFFCURVE",
"111 236 CURVE SMOOTH",
"111 125 OFFCURVE",
"157 56 OFFCURVE",
"245 56 CURVE SMOOTH",
"293 56 OFFCURVE",
"324 68 OFFCURVE",
"342 87 CURVE SMOOTH",
"371 118 OFFCURVE",
"381 191 OFFCURVE",
"381 244 CURVE SMOOTH",
"381 370 OFFCURVE",
"362 424 OFFCURVE",
"239 424 CURVE SMOOTH"
);
},
{
closed = 1;
nodes = (
"134 580 LINE",
"104 626 LINE",
"356 783 LINE",
"385 738 LINE"
);
},
{
closed = 1;
nodes = (
"467 281 LINE SMOOTH",
"467 119 OFFCURVE",
"395 -10 OFFCURVE",
"221 -10 CURVE SMOOTH",
"81 -10 OFFCURVE",
"25 95 OFFCURVE",
"25 240 CURVE SMOOTH",
"25 355 OFFCURVE",
"108 490 OFFCURVE",
"259 490 CURVE SMOOTH",
"302 490 OFFCURVE",
"348 470 OFFCURVE",
"361 451 CURVE",
"325 591 OFFCURVE",
"214 687 OFFCURVE",
"120 741 CURVE",
"153 792 LINE",
"385 677 OFFCURVE",
"467 480 OFFCURVE",
"467 281 CURVE SMOOTH"
);
}
);
width = 517;
},
{
layerId = "986A7A88-D3C4-446F-ACB8-D1DF408CF975";
paths = (
{
closed = 1;
nodes = (
"239 404 LINE SMOOTH",
"204 404 OFFCURVE",
"183 390 OFFCURVE",
"169 377 CURVE SMOOTH",
"146 356 OFFCURVE",
"136 286 OFFCURVE",
"136 241 CURVE SMOOTH",
"136 142 OFFCURVE",
"172 81 OFFCURVE",
"245 81 CURVE SMOOTH",
"281 81 OFFCURVE",
"304 91 OFFCURVE",
"317 107 CURVE SMOOTH",
"342 135 OFFCURVE",
"351 202 OFFCURVE",
"351 249 CURVE SMOOTH",
"351 357 OFFCURVE",
"338 404 OFFCURVE",
"239 404 CURVE SMOOTH"
);
},
{
closed = 1;
nodes = (
"139 563 LINE",
"96 632 LINE",
"354 791 LINE",
"397 724 LINE"
);
},
{
closed = 1;
nodes = (
"483 286 LINE SMOOTH",
"483 121 OFFCURVE",
"407 -10 OFFCURVE",
"221 -10 CURVE SMOOTH",
"69 -10 OFFCURVE",
"9 97 OFFCURVE",
"9 245 CURVE SMOOTH",
"9 360 OFFCURVE",
"99 495 OFFCURVE",
"259 495 CURVE SMOOTH",
"294 495 OFFCURVE",
"332 475 OFFCURVE",
"341 456 CURVE",
"307 588 OFFCURVE",
"197 676 OFFCURVE",
"107 726 CURVE",
"153 797 LINE",
"397 682 OFFCURVE",
"483 485 OFFCURVE",
"483 286 CURVE SMOOTH"
);
}
);
width = 517;
}
);
unicode = 00F0;
},
{
color = 7;
glyphname = dcaron;
lastChange = "2016-09-05 13:29:48 +0000";
layers = (
{
components = (
{
name = d;
transform = "{1, 0, 0, 1, 6, 17}";
}
);
layerId = UUID0;
paths = (
{
closed = 1;
nodes = (
"644 690 LINE SMOOTH",
"644 729 OFFCURVE",
"621 759 OFFCURVE",
"574 759 CURVE SMOOTH",
"541 759 OFFCURVE",
"515 742 OFFCURVE",
"515 698 CURVE SMOOTH",
"515 667 OFFCURVE",
"534 646 OFFCURVE",
"567 644 CURVE SMOOTH",
"571 644 OFFCURVE",
"578 644 OFFCURVE",
"582 645 CURVE",
"582 614 OFFCURVE",
"545 575 OFFCURVE",
"518 561 CURVE",
"545 532 LINE",
"600 566 OFFCURVE",
"644 615 OFFCURVE",
"644 690 CURVE SMOOTH"
);
}
);
width = 647;
},
{
components = (
{
name = d;
}
);
layerId = "986A7A88-D3C4-446F-ACB8-D1DF408CF975";
paths = (
{
closed = 1;
nodes = (
"677 690 LINE SMOOTH",
"677 617 OFFCURVE",
"620 557 OFFCURVE",
"568 534 CURVE",
"535 568 LINE",
"567 587 OFFCURVE",
"600 617 OFFCURVE",
"600 639 CURVE",
"596 637 OFFCURVE",
"593 636 OFFCURVE",
"589 636 CURVE SMOOTH",
"546 636 OFFCURVE",
"525 666 OFFCURVE",
"525 700 CURVE SMOOTH",
"525 747 OFFCURVE",
"554 763 OFFCURVE",
"598 763 CURVE SMOOTH",
"655 763 OFFCURVE",
"677 729 OFFCURVE",
"677 690 CURVE SMOOTH"
);
}
);
width = 680;
}
);
unicode = 010F;
},
{
color = 7;
glyphname = dslash;
lastChange = "2016-09-05 13:29:48 +0000";
layers = (
{
layerId = UUID0;
paths = (
{
closed = 1;
nodes = (
"385 385 LINE",
"355 415 OFFCURVE",
"298 424 OFFCURVE",
"266 424 CURVE SMOOTH",
"231 424 OFFCURVE",
"193 415 OFFCURVE",
"172 397 CURVE SMOOTH",
"142 372 OFFCURVE",
"130 282 OFFCURVE",
"130 239 CURVE SMOOTH",
"130 119 OFFCURVE",
"174 56 OFFCURVE",
"259 56 CURVE SMOOTH",
"331 56 OFFCURVE",
"379 119 OFFCURVE",
"385 133 CURVE"
);
},
{
closed = 1;
nodes = (
"464 98 LINE",
"464 70 OFFCURVE",
"466 62 OFFCURVE",
"487 60 CURVE SMOOTH",
"545 54 LINE",
"545 0 LINE",
"397 0 LINE",
"389 68 LINE",
"376 49 OFFCURVE",
"327 -10 OFFCURVE",
"232 -10 CURVE SMOOTH",
"117 -10 OFFCURVE",
"44 77 OFFCURVE",
"44 222 CURVE SMOOTH",
"44 362 OFFCURVE",
"129 490 OFFCURVE",
"281 490 CURVE SMOOTH",
"331 490 OFFCURVE",
"370 477 OFFCURVE",
"385 472 CURVE",
"385 684 LINE SMOOTH",
"385 712 OFFCURVE",
"381 720 OFFCURVE",
"360 722 CURVE SMOOTH",
"300 728 LINE",
"300 780 LINE",
"464 780 LINE"
);
},
{
closed = 1;
nodes = (
"183 643 LINE",
"536 643 LINE",
"536 578 LINE",
"183 578 LINE"
);
}
);
width = 585;
},
{
hints = (
{
place = "{13, 155}";
},
{
place = "{346, 142}";
}
);
layerId = "986A7A88-D3C4-446F-ACB8-D1DF408CF975";
paths = (
{
closed = 1;
nodes = (
"359 137 LINE",
"343 116 OFFCURVE",
"304 79 OFFCURVE",
"259 79 CURVE SMOOTH",
"176 79 OFFCURVE",
"156 160 OFFCURVE",
"156 241 CURVE SMOOTH",
"156 282 OFFCURVE",
"166 364 OFFCURVE",
"189 382 CURVE SMOOTH",
"208 398 OFFCURVE",
"238 406 OFFCURVE",
"266 406 CURVE SMOOTH",
"290 406 OFFCURVE",
"332 401 OFFCURVE",
"359 378 CURVE"
);
},
{
closed = 1;
nodes = (
"275 780 LINE",
"275 706 LINE",
"337 700 LINE SMOOTH",
"355 698 OFFCURVE",
"359 690 OFFCURVE",
"359 672 CURVE SMOOTH",
"359 482 LINE",
"338 487 OFFCURVE",
"313 495 OFFCURVE",
"281 495 CURVE SMOOTH",
"118 495 OFFCURVE",
"28 366 OFFCURVE",
"28 225 CURVE SMOOTH",
"28 79 OFFCURVE",
"105 -10 OFFCURVE",
"230 -10 CURVE SMOOTH",
"291 -10 OFFCURVE",
"338 32 OFFCURVE",
"365 59 CURVE",
"373 0 LINE",
"552 0 LINE",
"552 74 LINE",
"501 81 LINE SMOOTH",
"483 83 OFFCURVE",
"479 91 OFFCURVE",
"479 109 CURVE SMOOTH",
"479 780 LINE"
);
},
{
closed = 1;
nodes = (
"541 653 LINE",
"148 653 LINE",
"148 561 LINE",
"541 561 LINE"
);
}
);
width = 586;
}
);
unicode = 0111;
},
{
glyphname = e;
lastChange = "2016-09-05 13:29:48 +0000";
layers = (
{
anchors = (
{
name = top;
position = "{239, -10}";
}
);
layerId = UUID0;
paths = (
{
closed = 1;
nodes = (
"123 219 LINE",
"126 115 OFFCURVE",
"173 56 OFFCURVE",
"270 56 CURVE SMOOTH",
"318 56 OFFCURVE",
"397 75 OFFCURVE",
"427 85 CURVE",
"441 36 LINE",
"419 28 OFFCURVE",
"348 -10 OFFCURVE",
"242 -10 CURVE SMOOTH",
"97 -10 OFFCURVE",
"36 90 OFFCURVE",
"36 235 CURVE SMOOTH",
"36 381 OFFCURVE",
"114 490 OFFCURVE",
"260 490 CURVE SMOOTH",
"412 490 OFFCURVE",
"445 394 OFFCURVE",
"445 242 CURVE"
);
},
{
closed = 1;
nodes = (
"366 300 LINE",
"366 361 OFFCURVE",
"350 424 OFFCURVE",
"256 424 CURVE SMOOTH",
"147 424 OFFCURVE",
"135 395 OFFCURVE",
"122 279 CURVE"
);
}
);
width = 484;
},
{
anchors = (
{
name = bottom;
position = "{352, 0}";
},
{
name = top;
position = "{257, 5}";
}
);
hints = (
{
place = "{16, 157}";
},
{
place = "{336, 151}";
}
);
layerId = "986A7A88-D3C4-446F-ACB8-D1DF408CF975";
paths = (
{
closed = 1;
nodes = (
"470 234 LINE",
"470 394 OFFCURVE",
"436 495 OFFCURVE",
"274 495 CURVE SMOOTH",
"118 495 OFFCURVE",
"34 385 OFFCURVE",
"34 237 CURVE SMOOTH",
"34 91 OFFCURVE",
"101 -10 OFFCURVE",
"256 -10 CURVE SMOOTH",
"347 -10 OFFCURVE",
"414 15 OFFCURVE",
"468 36 CURVE",
"449 108 LINE",
"414 98 OFFCURVE",
"330 79 OFFCURVE",
"284 79 CURVE SMOOTH",
"206 79 OFFCURVE",
"167 125 OFFCURVE",
"162 212 CURVE"
);
},
{
closed = 1;
nodes = (
"160 291 LINE",
"171 381 OFFCURVE",
"185 406 OFFCURVE",
"268 406 CURVE SMOOTH",
"337 406 OFFCURVE",
"352 358 OFFCURVE",
"353 307 CURVE"
);
}
);
width = 507;
}
);
leftKerningGroup = o;
unicode = 0065;
},
{
color = 7;
glyphname = eogonek;
lastChange = "2016-09-05 13:29:48 +0000";
layers = (
{
components = (
{
name = e;
}
);
layerId = UUID0;
paths = (
{
closed = 1;
nodes = (
"219 -126 LINE",
"219 -76 OFFCURVE",
"259 -48 OFFCURVE",
"330 0 CURVE",
"442 37 LINE",
"432 33 OFFCURVE",
"356 -32 OFFCURVE",
"338 -48 CURVE SMOOTH",
"321 -63 OFFCURVE",
"285 -91 OFFCURVE",
"285 -117 CURVE SMOOTH",
"285 -145 OFFCURVE",
"302 -170 OFFCURVE",
"333 -170 CURVE SMOOTH",
"360 -170 OFFCURVE",
"385 -161 OFFCURVE",
"399 -157 CURVE",
"411 -198 LINE",
"398 -203 OFFCURVE",
"359 -225 OFFCURVE",
"314 -225 CURVE SMOOTH",
"252 -225 OFFCURVE",
"219 -177 OFFCURVE",
"219 -126 CURVE SMOOTH"
);
}
);
width = 484;
},
{
components = (
{
name = e;
}
);
layerId = "986A7A88-D3C4-446F-ACB8-D1DF408CF975";
paths = (
{
closed = 1;
nodes = (
"202 -126 LINE SMOOTH",
"202 -180 OFFCURVE",
"239 -230 OFFCURVE",
"307 -230 CURVE SMOOTH",
"356 -230 OFFCURVE",
"399 -206 OFFCURVE",
"414 -200 CURVE",
"397 -142 LINE",
"383 -146 OFFCURVE",
"358 -155 OFFCURVE",
"331 -155 CURVE SMOOTH",
"306 -155 OFFCURVE",
"293 -136 OFFCURVE",
"293 -117 CURVE SMOOTH",
"293 -91 OFFCURVE",
"323 -64 OFFCURVE",
"341 -50 CURVE SMOOTH",
"355 -38 OFFCURVE",
"409 1 OFFCURVE",
"468 36 CURVE",
"307 0 LINE",
"254 -37 OFFCURVE",
"202 -65 OFFCURVE",
"202 -126 CURVE SMOOTH"
);
}
);
width = 507;
}
);
unicode = 0119;
},
{
glyphname = f;
lastChange = "2016-09-05 13:29:48 +0000";
layers = (
{
layerId = UUID0;
paths = (
{
closed = 1;
nodes = (
"118 485 LINE",
"199 485 LINE",
"327 495 LINE",
"327 428 LINE",
"37 428 LINE",
"37 476 LINE"
);
},
{
closed = 1;
nodes = (
"120 590 LINE",
"120 724 OFFCURVE",
"197 790 OFFCURVE",
"310 790 CURVE SMOOTH",
"355 790 OFFCURVE",
"387 780 OFFCURVE",
"411 771 CURVE",
"381 697 LINE",
"361 702 OFFCURVE",
"330 720 OFFCURVE",
"278 720 CURVE SMOOTH",
"223 720 OFFCURVE",
"199 689 OFFCURVE",
"199 646 CURVE SMOOTH",
"199 98 LINE SMOOTH",
"199 70 OFFCURVE",
"201 62 OFFCURVE",
"222 60 CURVE SMOOTH",
"300 53 LINE",
"300 0 LINE",
"40 0 LINE",
"40 54 LINE",
"97 60 LINE SMOOTH",
"118 62 OFFCURVE",
"120 70 OFFCURVE",
"120 98 CURVE SMOOTH"
);
}
);
width = 334;
},
{
hints = (
{
place = "{87, 143}";
}
);
layerId = "986A7A88-D3C4-446F-ACB8-D1DF408CF975";
paths = (
{
closed = 1;
nodes = (
"103 109 LINE",
"103 91 OFFCURVE",
"99 83 OFFCURVE",
"81 81 CURVE SMOOTH",
"30 74 LINE",
"30 0 LINE",
"314 0 LINE",
"314 74 LINE",
"245 81 LINE SMOOTH",
"227 83 OFFCURVE",
"223 91 OFFCURVE",
"223 109 CURVE SMOOTH",
"223 404 LINE",
"342 404 LINE",
"342 497 LINE",
"310 495 OFFCURVE",
"264 490 OFFCURVE",
"223 487 CURVE",
"223 635 LINE SMOOTH",
"223 673 OFFCURVE",
"240 699 OFFCURVE",
"278 699 CURVE SMOOTH",
"321 699 OFFCURVE",
"361 680 OFFCURVE",
"385 668 CURVE",
"426 766 LINE",
"395 777 OFFCURVE",
"358 790 OFFCURVE",
"309 790 CURVE SMOOTH",
"186 790 OFFCURVE",
"103 722 OFFCURVE",
"103 586 CURVE SMOOTH",
"103 483 LINE",
"35 475 LINE",
"35 404 LINE",
"103 404 LINE"
);
}
);
width = 364;
}
);
unicode = 0066;
},
{
glyphname = g;
lastChange = "2016-09-05 13:29:48 +0000";
layers = (
{
anchors = (
{
name = top;
position = "{235, -10}";
}
);
layerId = UUID0;
paths = (
{
closed = 1;
nodes = (
"436 313 LINE SMOOTH",
"436 414 OFFCURVE",
"380 491 OFFCURVE",
"250 491 CURVE SMOOTH",
"92 491 OFFCURVE",
"35 391 OFFCURVE",
"35 307 CURVE SMOOTH",
"35 202 OFFCURVE",
"97 125 OFFCURVE",
"226 125 CURVE SMOOTH",
"346 125 OFFCURVE",
"436 202 OFFCURVE",
"436 313 CURVE SMOOTH"
);
},
{
closed = 1;
nodes = (
"353 322 LINE SMOOTH",
"353 284 OFFCURVE",
"351 247 OFFCURVE",
"333 223 CURVE SMOOTH",
"314 197 OFFCURVE",
"283 183 OFFCURVE",
"238 183 CURVE SMOOTH",
"154 183 OFFCURVE",
"118 236 OFFCURVE",
"118 308 CURVE SMOOTH",
"118 349 OFFCURVE",
"124 381 OFFCURVE",
"138 401 CURVE SMOOTH",
"153 422 OFFCURVE",
"181 435 OFFCURVE",
"229 435 CURVE SMOOTH",
"315 435 OFFCURVE",
"353 390 OFFCURVE",
"353 322 CURVE SMOOTH"
);
},
{
closed = 1;
nodes = (
"477 512 LINE",
"458 507 OFFCURVE",
"415 496 OFFCURVE",
"381 494 CURVE SMOOTH",
"336 491 OFFCURVE",
"291 491 OFFCURVE",
"254 491 CURVE",
"319 445 LINE",
"340 438 OFFCURVE",
"364 431 OFFCURVE",
"390 431 CURVE SMOOTH",
"419 431 OFFCURVE",
"451 441 OFFCURVE",
"477 458 CURVE"
);
},
{
closed = 1;
nodes = (
"317 -53 LINE SMOOTH",
"360 -58 OFFCURVE",
"389 -66 OFFCURVE",
"389 -98 CURVE SMOOTH",
"389 -162 OFFCURVE",
"335 -178 OFFCURVE",
"253 -178 CURVE SMOOTH",
"191 -178 OFFCURVE",
"132 -164 OFFCURVE",
"100 -143 CURVE",
"100 -68 LINE",
"45 -68 LINE",
"24 -191 LINE",
"64 -226 OFFCURVE",
"143 -250 OFFCURVE",
"232 -250 CURVE SMOOTH",
"375 -250 OFFCURVE",
"468 -172 OFFCURVE",
"468 -81 CURVE SMOOTH",
"468 -21 OFFCURVE",
"438 12 OFFCURVE",
"372 22 CURVE SMOOTH",
"308 32 OFFCURVE",
"258 39 OFFCURVE",
"205 46 CURVE SMOOTH",
"185 49 OFFCURVE",
"174 53 OFFCURVE",
"174 67 CURVE",
"202 142 LINE",
"150 153 LINE",
"90 58 LINE",
"90 3 OFFCURVE",
"120 -23 OFFCURVE",
"161 -31 CURVE SMOOTH",
"219 -42 OFFCURVE",
"263 -47 OFFCURVE",
"317 -53 CURVE SMOOTH"
);
}
);
width = 499;
},
{
anchors = (
{
name = bottom;
position = "{252, 0}";
},
{
name = top;
position = "{270, 0}";
}
);
hints = (
{
place = "{27, 154}";
},
{
place = "{332, 154}";
},
{
horizontal = 1;
place = "{119, 86}";
}
);
layerId = "986A7A88-D3C4-446F-ACB8-D1DF408CF975";
paths = (
{
closed = 1;
nodes = (
"506 517 LINE",
"424 495 OFFCURVE",
"408 495 OFFCURVE",
"310 495 CURVE SMOOTH",
"270 495 LINE",
"100 495 OFFCURVE",
"39 394 OFFCURVE",
"39 307 CURVE SMOOTH",
"39 228 OFFCURVE",
"82 171 OFFCURVE",
"150 139 CURVE",
"98 61 LINE",
"98 4 OFFCURVE",
"126 -21 OFFCURVE",
"174 -30 CURVE SMOOTH",
"228 -40 OFFCURVE",
"279 -46 OFFCURVE",
"333 -52 CURVE SMOOTH",
"372 -56 OFFCURVE",
"398 -66 OFFCURVE",
"398 -93 CURVE SMOOTH",
"398 -150 OFFCURVE",
"340 -158 OFFCURVE",
"273 -158 CURVE SMOOTH",
"225 -158 OFFCURVE",
"166 -145 OFFCURVE",
"136 -130 CURVE",
"136 -62 LINE",
"58 -62 LINE",
"35 -191 LINE",
"79 -226 OFFCURVE",
"159 -250 OFFCURVE",
"253 -250 CURVE SMOOTH",
"405 -250 OFFCURVE",
"504 -164 OFFCURVE",
"504 -68 CURVE SMOOTH",
"504 1 OFFCURVE",
"469 37 OFFCURVE",
"391 50 CURVE SMOOTH",
"334 59 OFFCURVE",
"290 63 OFFCURVE",
"228 73 CURVE SMOOTH",
"213 75 OFFCURVE",
"208 79 OFFCURVE",
"208 86 CURVE SMOOTH",
"208 88 OFFCURVE",
"209 93 OFFCURVE",
"210 95 CURVE SMOOTH",
"221 125 LINE",
"232 124 OFFCURVE",
"233 124 OFFCURVE",
"246 124 CURVE SMOOTH",
"376 124 OFFCURVE",
"473 203 OFFCURVE",
"473 313 CURVE SMOOTH",
"473 353 OFFCURVE",
"462 390 OFFCURVE",
"444 417 CURVE",
"462 420 OFFCURVE",
"491 432 OFFCURVE",
"506 444 CURVE"
);
},
{
closed = 1;
nodes = (
"347 322 LINE SMOOTH",
"347 289 OFFCURVE",
"340 246 OFFCURVE",
"329 233 CURVE SMOOTH",
"317 216 OFFCURVE",
"292 205 OFFCURVE",
"259 205 CURVE SMOOTH",
"193 205 OFFCURVE",
"165 250 OFFCURVE",
"165 308 CURVE SMOOTH",
"165 345 OFFCURVE",
"168 375 OFFCURVE",
"179 389 CURVE SMOOTH",
"191 406 OFFCURVE",
"216 417 OFFCURVE",
"249 417 CURVE SMOOTH",
"318 417 OFFCURVE",
"347 379 OFFCURVE",
"347 322 CURVE SMOOTH"
);
}
);
width = 534;
}
);
unicode = 0067;
},
{
color = 7;
glyphname = gcommaaccent;
lastChange = "2016-09-05 13:29:48 +0000";
layers = (
{
components = (
{
name = g;
}
);
layerId = UUID0;
paths = (
{
closed = 1;
nodes = (
"170 621 LINE SMOOTH",
"170 585 OFFCURVE",
"189 553 OFFCURVE",
"234 553 CURVE SMOOTH",
"269 553 OFFCURVE",
"292 568 OFFCURVE",
"292 611 CURVE SMOOTH",
"292 639 OFFCURVE",
"277 665 OFFCURVE",
"243 665 CURVE SMOOTH",
"237 665 OFFCURVE",
"227 664 OFFCURVE",
"222 662 CURVE",
"222 688 OFFCURVE",
"255 722 OFFCURVE",
"287 743 CURVE",
"264 767 LINE",
"218 746 OFFCURVE",
"170 690 OFFCURVE",
"170 621 CURVE SMOOTH"
);
}
);
width = 499;
},
{
components = (
{
name = g;
}
);
layerId = "986A7A88-D3C4-446F-ACB8-D1DF408CF975";
paths = (
{
closed = 1;
nodes = (
"197 610 LINE SMOOTH",
"197 678 OFFCURVE",
"250 734 OFFCURVE",
"299 755 CURVE",
"329 723 LINE",
"300 706 OFFCURVE",
"269 678 OFFCURVE",
"269 657 CURVE",
"273 659 OFFCURVE",
"275 660 OFFCURVE",
"279 660 CURVE SMOOTH",
"319 660 OFFCURVE",
"339 632 OFFCURVE",
"339 601 CURVE SMOOTH",
"339 557 OFFCURVE",
"312 542 OFFCURVE",
"271 542 CURVE SMOOTH",
"218 542 OFFCURVE",
"197 574 OFFCURVE",
"197 610 CURVE SMOOTH"
);
}
);
width = 534;
}
);
unicode = 0123;
},
{
glyphname = h;
lastChange = "2016-09-05 13:29:48 +0000";
layers = (
{
anchors = (
{
name = top;
position = "{329, -10}";
}
);
layerId = UUID0;
paths = (
{
closed = 1;
nodes = (
"438 0 LINE",
"438 324 LINE SMOOTH",
"438 383 OFFCURVE",
"398 416 OFFCURVE",
"333 416 CURVE SMOOTH",
"268 416 OFFCURVE",
"219 376 OFFCURVE",
"199 339 CURVE",
"199 98 LINE SMOOTH",
"199 70 OFFCURVE",
"201 62 OFFCURVE",
"222 60 CURVE SMOOTH",
"282 53 LINE",
"282 0 LINE",
"42 0 LINE",
"42 54 LINE",
"97 60 LINE SMOOTH",
"118 62 OFFCURVE",
"120 70 OFFCURVE",
"120 98 CURVE SMOOTH",
"120 683 LINE SMOOTH",
"120 711 OFFCURVE",
"118 720 OFFCURVE",
"97 722 CURVE SMOOTH",
"40 728 LINE",
"40 780 LINE",
"199 780 LINE",
"199 408 LINE",
"228 439 OFFCURVE",
"275 490 OFFCURVE",
"365 490 CURVE SMOOTH",
"479 490 OFFCURVE",
"517 419 OFFCURVE",
"517 344 CURVE SMOOTH",
"517 98 LINE SMOOTH",
"517 70 OFFCURVE",
"519 62 OFFCURVE",
"540 60 CURVE SMOOTH",
"595 54 LINE",
"595 0 LINE"
);
}
);
width = 627;
},
{
anchors = (
{
name = top;
position = "{340, 190}";
}
);
hints = (
{
place = "{95, 143}";
},
{
place = "{400, 142}";
}
);
layerId = "986A7A88-D3C4-446F-ACB8-D1DF408CF975";
paths = (
{
closed = 1;
nodes = (
"103 109 LINE",
"103 91 OFFCURVE",
"99 83 OFFCURVE",
"81 81 CURVE SMOOTH",
"30 74 LINE",
"30 0 LINE",
"296 0 LINE",
"296 74 LINE",
"245 81 LINE SMOOTH",
"227 83 OFFCURVE",
"223 91 OFFCURVE",
"223 109 CURVE SMOOTH",
"223 351 LINE",
"248 376 OFFCURVE",
"281 398 OFFCURVE",
"331 398 CURVE SMOOTH",
"381 398 OFFCURVE",
"412 370 OFFCURVE",
"412 318 CURVE SMOOTH",
"412 0 LINE",
"605 0 LINE",
"605 74 LINE",
"554 81 LINE SMOOTH",
"536 83 OFFCURVE",
"532 91 OFFCURVE",
"532 109 CURVE SMOOTH",
"532 346 LINE SMOOTH",
"532 420 OFFCURVE",
"489 495 OFFCURVE",
"362 495 CURVE SMOOTH",
"303 495 OFFCURVE",
"253 462 OFFCURVE",
"223 434 CURVE",
"223 780 LINE",
"30 780 LINE",
"30 706 LINE",
"81 700 LINE SMOOTH",
"99 698 OFFCURVE",
"103 690 OFFCURVE",
"103 672 CURVE"
);
}
);
width = 627;
}
);
unicode = 0068;
},
{
color = 7;
glyphname = hbar;
lastChange = "2016-09-05 13:29:48 +0000";
layers = (
{
components = (
{
name = h;
}
);
layerId = UUID0;
paths = (
{
closed = 1;
nodes = (
"401 583 LINE",
"48 583 LINE",
"48 643 LINE",
"401 643 LINE"
);
}
);
width = 627;
},
{
components = (
{
name = h;
}
);
layerId = "986A7A88-D3C4-446F-ACB8-D1DF408CF975";
paths = (
{
closed = 1;
nodes = (
"426 653 LINE",
"33 653 LINE",
"33 563 LINE",
"426 563 LINE"
);
}
);
width = 627;
}
);
unicode = 0127;
},
{
color = 7;
glyphname = hcircumflex;
lastChange = "2016-09-05 13:29:48 +0000";
layers = (
{
components = (
{
name = h;
}
);
layerId = UUID0;
paths = (
{
closed = 1;
nodes = (
"393 913 LINE",
"502 778 LINE",
"464 746 LINE",
"355 852 LINE",
"247 746 LINE",
"208 778 LINE",
"318 913 LINE"
);
}
);
width = 627;
},
{
components = (
{
name = h;
},
{
name = circumflex.case;
transform = "{1, 0, 0, 1, 212, 50}";
}
);
layerId = "986A7A88-D3C4-446F-ACB8-D1DF408CF975";
width = 627;
}
);
unicode = 0125;
},
{
glyphname = i;
lastChange = "2016-09-05 13:29:48 +0000";
layers = (
{
layerId = UUID0;
paths = (
{
closed = 1;
nodes = (
"199 98 LINE",
"199 70 OFFCURVE",
"201 63 OFFCURVE",
"222 60 CURVE SMOOTH",
"277 54 LINE",
"277 0 LINE",
"42 0 LINE",
"42 54 LINE",
"97 60 LINE SMOOTH",
"118 63 OFFCURVE",
"120 70 OFFCURVE",
"120 98 CURVE SMOOTH",
"120 384 LINE SMOOTH",
"120 412 OFFCURVE",
"118 420 OFFCURVE",
"97 422 CURVE SMOOTH",
"42 428 LINE",
"42 480 LINE",
"199 480 LINE"
);
},
{
closed = 1;
nodes = (
"207 653 LINE SMOOTH",
"207 606 OFFCURVE",
"189 596 OFFCURVE",
"142 596 CURVE SMOOTH",
"103 596 OFFCURVE",
"89 613 OFFCURVE",
"89 650 CURVE SMOOTH",
"89 693 OFFCURVE",
"101 714 OFFCURVE",
"156 714 CURVE SMOOTH",
"199 714 OFFCURVE",
"207 693 OFFCURVE",
"207 653 CURVE SMOOTH"
);
}
);
width = 309;
},
{
anchors = (
{
name = bottom;
position = "{195, 0}";
}
);
hints = (
{
place = "{90, 141}";
},
{
horizontal = 1;
place = "{572, 142}";
}
);
layerId = "986A7A88-D3C4-446F-ACB8-D1DF408CF975";
paths = (
{
closed = 1;
nodes = (
"228 645 LINE SMOOTH",
"228 692 OFFCURVE",
"217 720 OFFCURVE",
"158 720 CURVE SMOOTH",
"86 720 OFFCURVE",
"72 692 OFFCURVE",
"72 643 CURVE SMOOTH",
"72 594 OFFCURVE",
"100 579 OFFCURVE",
"149 579 CURVE SMOOTH",
"198 579 OFFCURVE",
"228 596 OFFCURVE",
"228 645 CURVE SMOOTH"
);
},
{
closed = 1;
nodes = (
"223 485 LINE",
"30 485 LINE",
"30 411 LINE",
"81 405 LINE SMOOTH",
"99 403 OFFCURVE",
"103 395 OFFCURVE",
"103 377 CURVE SMOOTH",
"103 109 LINE SMOOTH",
"103 91 OFFCURVE",
"99 83 OFFCURVE",
"81 81 CURVE SMOOTH",
"30 74 LINE",
"30 0 LINE",
"296 0 LINE",
"296 74 LINE",
"245 81 LINE SMOOTH",
"227 83 OFFCURVE",
"223 91 OFFCURVE",
"223 109 CURVE"
);
}
);
width = 321;
}
);
unicode = 0069;
},
{
color = 7;
glyphname = dotlessi;
lastChange = "2016-09-05 13:29:48 +0000";
layers = (
{
anchors = (
{
name = top;
position = "{119, -10}";
}
);
layerId = UUID0;
paths = (
{
closed = 1;
nodes = (
"199 98 LINE",
"199 70 OFFCURVE",
"201 63 OFFCURVE",
"222 60 CURVE SMOOTH",
"277 54 LINE",
"277 0 LINE",
"42 0 LINE",
"42 54 LINE",
"97 60 LINE SMOOTH",
"118 63 OFFCURVE",
"120 70 OFFCURVE",
"120 98 CURVE SMOOTH",
"120 384 LINE SMOOTH",
"120 412 OFFCURVE",
"118 420 OFFCURVE",
"97 422 CURVE SMOOTH",
"42 428 LINE",
"42 480 LINE",
"199 480 LINE"
);
}
);
width = 309;
},
{
anchors = (
{
name = top;
position = "{134, 0}";
}
);
hints = (
{
place = "{86, 141}";
},
{
horizontal = 1;
place = "{572, 142}";
}
);
layerId = "986A7A88-D3C4-446F-ACB8-D1DF408CF975";
paths = (
{
closed = 1;
nodes = (
"219 109 LINE",
"219 91 OFFCURVE",
"223 83 OFFCURVE",
"241 81 CURVE SMOOTH",
"292 74 LINE",
"292 0 LINE",
"26 0 LINE",
"26 74 LINE",
"77 81 LINE SMOOTH",
"95 83 OFFCURVE",
"99 91 OFFCURVE",
"99 109 CURVE SMOOTH",
"99 377 LINE SMOOTH",
"99 395 OFFCURVE",
"95 403 OFFCURVE",
"77 405 CURVE SMOOTH",
"26 411 LINE",
"26 485 LINE",
"219 485 LINE"
);
}
);
width = 306;
}
);
unicode = 0131;
},
{
color = 7;
glyphname = ibreve;
lastChange = "2016-09-05 13:29:48 +0000";
layers = (
{
components = (
{
name = dotlessi;
}
);
layerId = UUID0;
paths = (
{
closed = 1;
nodes = (
"220 703 LINE",
"202 668 OFFCURVE",
"169 634 OFFCURVE",
"128 634 CURVE SMOOTH",
"87 634 OFFCURVE",
"54 668 OFFCURVE",
"36 703 CURVE",
"-8 688 LINE",
"10 623 OFFCURVE",
"56 568 OFFCURVE",
"128 568 CURVE SMOOTH",
"200 568 OFFCURVE",
"245 623 OFFCURVE",
"263 688 CURVE"
);
}
);
width = 309;
},
{
components = (
{
name = dotlessi;
},
{
name = breve;
transform = "{1, 0, 0, 1, -59, 0}";
}
);
layerId = "986A7A88-D3C4-446F-ACB8-D1DF408CF975";
width = 306;
}
);
},
{
color = 7;
glyphname = icircumflex;
lastChange = "2016-09-05 13:29:48 +0000";
layers = (
{
components = (
{
name = dotlessi;
}
);
layerId = UUID0;
paths = (
{
closed = 1;
nodes = (
"164 728 LINE",
"262 578 LINE",
"224 546 LINE",
"130 663 LINE",
"36 546 LINE",
"-3 578 LINE",
"98 728 LINE"
);
}
);
width = 309;
},
{
components = (
{
name = dotlessi;
},
{
name = circumflex;
transform = "{1, 0, 0, 1, -43, 0}";
}
);
layerId = "986A7A88-D3C4-446F-ACB8-D1DF408CF975";
width = 306;
}
);
unicode = 00EE;
},
{
color = 7;
glyphname = idieresis;
lastChange = "2016-09-05 13:29:48 +0000";
layers = (
{
components = (
{
name = dotlessi;
}
);
layerId = UUID0;
paths = (
{
closed = 1;
nodes = (
"104 634 LINE SMOOTH",
"104 590 OFFCURVE",
"87 580 OFFCURVE",
"42 580 CURVE SMOOTH",
"6 580 OFFCURVE",
"-8 596 OFFCURVE",
"-8 631 CURVE SMOOTH",
"-8 672 OFFCURVE",
"4 692 OFFCURVE",
"56 692 CURVE SMOOTH",
"96 692 OFFCURVE",
"104 672 OFFCURVE",
"104 634 CURVE SMOOTH"
);
},
{
closed = 1;
nodes = (
"269 634 LINE SMOOTH",
"269 590 OFFCURVE",
"252 580 OFFCURVE",
"207 580 CURVE SMOOTH",
"171 580 OFFCURVE",
"157 596 OFFCURVE",
"157 631 CURVE SMOOTH",
"157 672 OFFCURVE",
"169 692 OFFCURVE",
"221 692 CURVE SMOOTH",
"261 692 OFFCURVE",
"269 672 OFFCURVE",
"269 634 CURVE SMOOTH"
);
}
);
width = 309;
},
{
components = (
{
name = dotlessi;
transform = "{1, 0, 0, 1, 4, 0}";
},
{
name = dieresis;
transform = "{1, 0, 0, 1, -134, -10}";
}
);
layerId = "986A7A88-D3C4-446F-ACB8-D1DF408CF975";
width = 321;
}
);
unicode = 00EF;
},
{
color = 7;
glyphname = imacron;
lastChange = "2016-09-05 13:29:48 +0000";
layers = (
{
components = (
{
name = dotlessi;
}
);
layerId = UUID0;
paths = (
{
closed = 1;
nodes = (
"8 608 LINE",
"245 608 LINE",
"255 678 LINE",
"18 678 LINE"
);
}
);
width = 309;
},
{
components = (
{
name = dotlessi;
},
{
name = macron;
transform = "{1, 0, 0, 1, -59, 0}";
}
);
layerId = "986A7A88-D3C4-446F-ACB8-D1DF408CF975";
width = 306;
}
);
unicode = 012B;
},
{
color = 7;
glyphname = itilde;
lastChange = "2016-09-05 13:29:48 +0000";
layers = (
{
components = (
{
name = dotlessi;
}
);
layerId = UUID0;
paths = (
{
closed = 1;
nodes = (
"65 610 LINE SMOOTH",
"44 610 OFFCURVE",
"28 599 OFFCURVE",
"14 590 CURVE",
"-1 632 LINE",
"18 656 OFFCURVE",
"40 678 OFFCURVE",
"72 678 CURVE SMOOTH",
"119 678 OFFCURVE",
"162 644 OFFCURVE",
"198 644 CURVE SMOOTH",
"216 644 OFFCURVE",
"236 653 OFFCURVE",
"248 660 CURVE",
"263 620 LINE",
"246 597 OFFCURVE",
"220 574 OFFCURVE",
"189 574 CURVE SMOOTH",
"145 574 OFFCURVE",
"105 610 OFFCURVE",
"65 610 CURVE SMOOTH"
);
}
);
width = 309;
},
{
components = (
{
name = dotlessi;
},
{
name = tilde;
transform = "{1, 0, 0, 1, -68, 0}";
}
);
layerId = "986A7A88-D3C4-446F-ACB8-D1DF408CF975";
width = 306;
}
);
unicode = 0129;
},
{
glyphname = j;
lastChange = "2016-09-05 13:29:48 +0000";
layers = (
{
layerId = UUID0;
paths = (
{
closed = 1;
nodes = (
"198 653 LINE SMOOTH",
"198 606 OFFCURVE",
"180 596 OFFCURVE",
"133 596 CURVE SMOOTH",
"94 596 OFFCURVE",
"80 613 OFFCURVE",
"80 650 CURVE SMOOTH",
"80 693 OFFCURVE",
"92 714 OFFCURVE",
"147 714 CURVE SMOOTH",
"190 714 OFFCURVE",
"198 693 OFFCURVE",
"198 653 CURVE SMOOTH"
);
},
{
closed = 1;
nodes = (
"110 384 LINE",
"110 412 OFFCURVE",
"108 420 OFFCURVE",
"87 422 CURVE SMOOTH",
"32 428 LINE",
"32 480 LINE",
"189 480 LINE",
"189 -3 LINE SMOOTH",
"189 -145 OFFCURVE",
"170 -178 OFFCURVE",
"26 -250 CURVE",
"-23 -210 LINE",
"92 -138 OFFCURVE",
"110 -117 OFFCURVE",
"110 25 CURVE SMOOTH"
);
}
);
width = 289;
},
{
hints = (
{
place = "{69, 143}";
},
{
horizontal = 1;
place = "{572, 142}";
}
);
layerId = "986A7A88-D3C4-446F-ACB8-D1DF408CF975";
paths = (
{
closed = 1;
nodes = (
"218 485 LINE",
"25 485 LINE",
"25 411 LINE",
"76 405 LINE SMOOTH",
"94 403 OFFCURVE",
"98 395 OFFCURVE",
"98 377 CURVE SMOOTH",
"98 34 LINE SMOOTH",
"98 -102 OFFCURVE",
"84 -123 OFFCURVE",
"-29 -195 CURVE",
"25 -250 LINE",
"189 -169 OFFCURVE",
"218 -133 OFFCURVE",
"218 7 CURVE"
);
},
{
closed = 1;
nodes = (
"223 645 LINE SMOOTH",
"223 692 OFFCURVE",
"212 720 OFFCURVE",
"153 720 CURVE SMOOTH",
"81 720 OFFCURVE",
"67 692 OFFCURVE",
"67 643 CURVE SMOOTH",
"67 594 OFFCURVE",
"95 579 OFFCURVE",
"144 579 CURVE SMOOTH",
"193 579 OFFCURVE",
"223 596 OFFCURVE",
"223 645 CURVE SMOOTH"
);
}
);
width = 295;
}
);
unicode = 006A;
},
{
color = 7;
glyphname = dotlessj;
lastChange = "2016-09-05 13:29:48 +0000";
layers = (
{
layerId = UUID0;
paths = (
{
closed = 1;
nodes = (
"110 384 LINE",
"110 412 OFFCURVE",
"108 420 OFFCURVE",
"87 422 CURVE SMOOTH",
"32 428 LINE",
"32 480 LINE",
"189 480 LINE",
"189 -3 LINE SMOOTH",
"189 -145 OFFCURVE",
"170 -178 OFFCURVE",
"26 -250 CURVE",
"-23 -210 LINE",
"92 -138 OFFCURVE",
"110 -117 OFFCURVE",
"110 25 CURVE SMOOTH"
);
}
);
width = 289;
},
{
anchors = (
{
name = top;
position = "{134, 0}";
}
);
hints = (
{
place = "{69, 143}";
},
{
horizontal = 1;
place = "{572, 142}";
}
);
layerId = "986A7A88-D3C4-446F-ACB8-D1DF408CF975";
paths = (
{
closed = 1;
nodes = (
"218 485 LINE",
"25 485 LINE",
"25 411 LINE",
"76 405 LINE SMOOTH",
"94 403 OFFCURVE",
"98 395 OFFCURVE",
"98 377 CURVE SMOOTH",
"98 34 LINE SMOOTH",
"98 -102 OFFCURVE",
"84 -123 OFFCURVE",
"-29 -195 CURVE",
"25 -250 LINE",
"189 -169 OFFCURVE",
"218 -133 OFFCURVE",
"218 7 CURVE"
);
}
);
width = 295;
}
);
unicode = 0237;
},
{
color = 7;
glyphname = jcircumflex;
lastChange = "2016-09-05 13:29:48 +0000";
layers = (
{
layerId = UUID0;
paths = (
{
closed = 1;
nodes = (
"110 384 LINE",
"110 412 OFFCURVE",
"108 420 OFFCURVE",
"87 422 CURVE SMOOTH",
"32 428 LINE",
"32 480 LINE",
"189 480 LINE",
"189 -3 LINE SMOOTH",
"189 -145 OFFCURVE",
"170 -178 OFFCURVE",
"26 -250 CURVE",
"-23 -210 LINE",
"92 -138 OFFCURVE",
"110 -117 OFFCURVE",
"110 25 CURVE SMOOTH"
);
},
{
closed = 1;
nodes = (
"156 728 LINE",
"254 578 LINE",
"216 546 LINE",
"122 663 LINE",
"28 546 LINE",
"-11 578 LINE",
"90 728 LINE"
);
}
);
width = 289;
},
{
components = (
{
name = dotlessj;
},
{
name = circumflex;
transform = "{1, 0, 0, 1, -43, 0}";
}
);
layerId = "986A7A88-D3C4-446F-ACB8-D1DF408CF975";
width = 295;
}
);
unicode = 0135;
},
{
glyphname = k;
lastChange = "2016-09-05 13:29:48 +0000";
layers = (
{
anchors = (
{
name = bottom;
position = "{296, -10}";
}
);
layerId = UUID0;
paths = (
{
closed = 1;
nodes = (
"481 422 LINE",
"465 422 LINE SMOOTH",
"415 422 OFFCURVE",
"368 375 OFFCURVE",
"325 330 CURVE SMOOTH",
"285 288 LINE",
"285 281 LINE",
"406 126 LINE SMOOTH",
"435 88 OFFCURVE",
"473 55 OFFCURVE",
"515 55 CURVE SMOOTH",
"526 55 OFFCURVE",
"544 59 OFFCURVE",
"552 60 CURVE",
"542 5 LINE",
"515 -5 OFFCURVE",
"501 -10 OFFCURVE",
"474 -10 CURVE SMOOTH",
"436 -10 OFFCURVE",
"402 10 OFFCURVE",
"371 51 CURVE SMOOTH",
"199 273 LINE",
"199 289 LINE",
"340 432 LINE SMOOTH",
"380 472 OFFCURVE",
"402 480 OFFCURVE",
"436 480 CURVE SMOOTH",
"481 480 LINE"
);
},
{
closed = 1;
nodes = (
"120 684 LINE",
"120 712 OFFCURVE",
"118 720 OFFCURVE",
"97 722 CURVE SMOOTH",
"42 728 LINE",
"42 780 LINE",
"199 780 LINE",
"199 98 LINE SMOOTH",
"199 70 OFFCURVE",
"201 63 OFFCURVE",
"222 60 CURVE SMOOTH",
"269 52 LINE",
"269 0 LINE",
"42 0 LINE",
"42 54 LINE",
"97 60 LINE SMOOTH",
"118 63 OFFCURVE",
"120 70 OFFCURVE",
"120 98 CURVE SMOOTH"
);
}
);
width = 542;
},
{
anchors = (
{
name = bottom;
position = "{300, 0}";
}
);
hints = (
{
place = "{93, 143}";
}
);
layerId = "986A7A88-D3C4-446F-ACB8-D1DF408CF975";
paths = (
{
closed = 1;
nodes = (
"223 780 LINE",
"30 780 LINE",
"30 706 LINE",
"81 700 LINE SMOOTH",
"99 698 OFFCURVE",
"103 690 OFFCURVE",
"103 672 CURVE SMOOTH",
"103 109 LINE SMOOTH",
"103 91 OFFCURVE",
"99 83 OFFCURVE",
"81 81 CURVE SMOOTH",
"30 74 LINE",
"30 0 LINE",
"288 0 LINE",
"288 74 LINE",
"245 81 LINE SMOOTH",
"227 84 OFFCURVE",
"223 91 OFFCURVE",
"223 109 CURVE SMOOTH",
"223 268 LINE",
"370 59 LINE SMOOTH",
"401 15 OFFCURVE",
"436 -10 OFFCURVE",
"481 -10 CURVE SMOOTH",
"514 -10 OFFCURVE",
"536 -6 OFFCURVE",
"565 6 CURVE",
"581 94 LINE",
"569 89 OFFCURVE",
"550 87 OFFCURVE",
"536 87 CURVE SMOOTH",
"507 87 OFFCURVE",
"483 98 OFFCURVE",
"451 141 CURVE SMOOTH",
"345 286 LINE",
"345 293 LINE",
"428 367 LINE SMOOTH",
"454 390 OFFCURVE",
"467 404 OFFCURVE",
"504 404 CURVE SMOOTH",
"528 404 LINE",
"528 485 LINE",
"471 485 LINE SMOOTH",
"424 485 OFFCURVE",
"400 475 OFFCURVE",
"357 432 CURVE SMOOTH",
"223 295 LINE"
);
}
);
width = 588;
}
);
unicode = 006B;
},
{
color = 7;
glyphname = kgreenlandic;
lastChange = "2016-09-05 13:29:48 +0000";
layers = (
{
layerId = UUID0;
paths = (
{
closed = 1;
nodes = (
"199 71 LINE",
"120 71 LINE",
"120 409 LINE",
"199 409 LINE"
);
},
{
closed = 1;
nodes = (
"491 419 LINE",
"465 419 OFFCURVE",
"444 418 OFFCURVE",
"421 395 CURVE SMOOTH",
"275 253 LINE",
"400 111 LINE SMOOTH",
"439 67 OFFCURVE",
"464 51 OFFCURVE",
"484 51 CURVE SMOOTH",
"494 51 OFFCURVE",
"505 51 OFFCURVE",
"515 56 CURVE",
"511 3 LINE",
"498 -4 OFFCURVE",
"482 -10 OFFCURVE",
"454 -10 CURVE SMOOTH",
"412 -10 OFFCURVE",
"379 14 OFFCURVE",
"350 50 CURVE SMOOTH",
"199 240 LINE",
"199 258 LINE",
"387 453 LINE SMOOTH",
"406 473 OFFCURVE",
"428 480 OFFCURVE",
"450 480 CURVE SMOOTH",
"491 480 LINE"
);
},
{
closed = 1;
nodes = (
"120 382 LINE",
"120 410 OFFCURVE",
"118 418 OFFCURVE",
"97 420 CURVE SMOOTH",
"42 426 LINE",
"42 480 LINE",
"282 480 LINE",
"282 427 LINE",
"222 420 LINE SMOOTH",
"201 418 OFFCURVE",
"199 410 OFFCURVE",
"199 382 CURVE"
);
},
{
closed = 1;
nodes = (
"199 98 LINE",
"199 70 OFFCURVE",
"201 62 OFFCURVE",
"222 60 CURVE SMOOTH",
"282 53 LINE",
"282 0 LINE",
"42 0 LINE",
"42 54 LINE",
"97 60 LINE SMOOTH",
"118 62 OFFCURVE",
"120 70 OFFCURVE",
"120 98 CURVE"
);
}
);
width = 515;
},
{
layerId = "986A7A88-D3C4-446F-ACB8-D1DF408CF975";
paths = (
{
closed = 1;
nodes = (
"226 362 LINE",
"226 390 OFFCURVE",
"228 397 OFFCURVE",
"249 400 CURVE SMOOTH",
"299 407 LINE",
"299 480 LINE",
"33 480 LINE",
"33 406 LINE",
"83 400 LINE SMOOTH",
"103 398 OFFCURVE",
"106 390 OFFCURVE",
"106 362 CURVE SMOOTH",
"106 118 LINE SMOOTH",
"106 90 OFFCURVE",
"104 82 OFFCURVE",
"83 80 CURVE SMOOTH",
"33 74 LINE",
"33 0 LINE",
"299 0 LINE",
"299 73 LINE",
"249 80 LINE SMOOTH",
"229 83 OFFCURVE",
"226 90 OFFCURVE",
"226 118 CURVE SMOOTH",
"226 238 LINE",
"368 59 LINE SMOOTH",
"402 16 OFFCURVE",
"437 -10 OFFCURVE",
"484 -10 CURVE SMOOTH",
"511 -10 OFFCURVE",
"530 -6 OFFCURVE",
"553 6 CURVE",
"569 94 LINE",
"557 89 OFFCURVE",
"537 87 OFFCURVE",
"524 87 CURVE SMOOTH",
"503 87 OFFCURVE",
"482 103 OFFCURVE",
"449 141 CURVE SMOOTH",
"348 256 LINE",
"348 263 LINE",
"446 367 LINE SMOOTH",
"470 392 OFFCURVE",
"485 404 OFFCURVE",
"522 404 CURVE SMOOTH",
"546 404 LINE",
"546 485 LINE",
"489 485 LINE SMOOTH",
"442 485 OFFCURVE",
"418 475 OFFCURVE",
"375 432 CURVE",
"226 265 LINE"
);
}
);
width = 576;
}
);
unicode = 0138;
},
{
glyphname = l;
lastChange = "2016-09-05 13:29:48 +0000";
layers = (
{
layerId = UUID0;
paths = (
{
closed = 1;
nodes = (
"199 780 LINE",
"199 98 LINE SMOOTH",
"199 70 OFFCURVE",
"201 63 OFFCURVE",
"222 60 CURVE SMOOTH",
"277 54 LINE",
"277 0 LINE",
"42 0 LINE",
"42 54 LINE",
"97 60 LINE SMOOTH",
"118 63 OFFCURVE",
"120 70 OFFCURVE",
"120 98 CURVE",
"120 686 LINE SMOOTH",
"120 712 OFFCURVE",
"118 720 OFFCURVE",
"97 722 CURVE SMOOTH",
"42 728 LINE",
"42 780 LINE"
);
}
);
width = 309;
},
{
anchors = (
{
name = bottom;
position = "{163, 0}";
},
{
name = top;
position = "{135, 250}";
}
);
hints = (
{
place = "{89, 143}";
}
);
layerId = "986A7A88-D3C4-446F-ACB8-D1DF408CF975";
paths = (
{
closed = 1;
nodes = (
"223 780 LINE",
"30 780 LINE",
"30 706 LINE",
"81 700 LINE SMOOTH",
"99 698 OFFCURVE",
"103 690 OFFCURVE",
"103 672 CURVE SMOOTH",
"103 109 LINE SMOOTH",
"103 91 OFFCURVE",
"99 83 OFFCURVE",
"81 81 CURVE SMOOTH",
"30 74 LINE",
"30 0 LINE",
"296 0 LINE",
"296 74 LINE",
"245 81 LINE SMOOTH",
"227 83 OFFCURVE",
"223 91 OFFCURVE",
"223 109 CURVE"
);
}
);
width = 321;
}
);
unicode = 006C;
},
{
color = 7;
glyphname = lacute;
lastChange = "2016-09-05 13:29:48 +0000";
layers = (
{
components = (
{
name = l;
}
);
layerId = UUID0;
paths = (
{
closed = 1;
nodes = (
"287 924 LINE",
"134 820 LINE SMOOTH",
"123 813 OFFCURVE",
"115 810 OFFCURVE",
"107 810 CURVE SMOOTH",
"87 810 OFFCURVE",
"71 825 OFFCURVE",
"59 839 CURVE",
"238 991 LINE"
);
}
);
width = 309;
},
{
components = (
{
name = l;
},
{
name = acute.case;
transform = "{1, 0, 0, 1, 48, 60}";
}
);
layerId = "986A7A88-D3C4-446F-ACB8-D1DF408CF975";
width = 321;
}
);
unicode = 013A;
},
{
color = 7;
glyphname = lcaron;
lastChange = "2016-09-05 13:29:48 +0000";
layers = (
{
components = (
{
name = l;
}
);
layerId = UUID0;
paths = (
{
closed = 1;
nodes = (
"378 690 LINE SMOOTH",
"378 729 OFFCURVE",
"355 759 OFFCURVE",
"308 759 CURVE SMOOTH",
"275 759 OFFCURVE",
"249 742 OFFCURVE",
"249 698 CURVE SMOOTH",
"249 667 OFFCURVE",
"268 646 OFFCURVE",
"301 644 CURVE SMOOTH",
"305 644 OFFCURVE",
"312 644 OFFCURVE",
"316 645 CURVE",
"316 614 OFFCURVE",
"279 575 OFFCURVE",
"252 561 CURVE",
"279 532 LINE",
"334 566 OFFCURVE",
"378 615 OFFCURVE",
"378 690 CURVE SMOOTH"
);
}
);
width = 379;
},
{
components = (
{
name = l;
}
);
layerId = "986A7A88-D3C4-446F-ACB8-D1DF408CF975";
paths = (
{
closed = 1;
nodes = (
"424 690 LINE SMOOTH",
"424 617 OFFCURVE",
"367 557 OFFCURVE",
"315 534 CURVE",
"282 568 LINE",
"314 587 OFFCURVE",
"347 617 OFFCURVE",
"347 639 CURVE",
"343 637 OFFCURVE",
"340 636 OFFCURVE",
"336 636 CURVE SMOOTH",
"293 636 OFFCURVE",
"272 666 OFFCURVE",
"272 700 CURVE SMOOTH",
"272 747 OFFCURVE",
"301 763 OFFCURVE",
"345 763 CURVE SMOOTH",
"402 763 OFFCURVE",
"424 729 OFFCURVE",
"424 690 CURVE SMOOTH"
);
}
);
width = 424;
}
);
unicode = 013E;
},
{
color = 7;
glyphname = lslash;
lastChange = "2016-09-05 13:29:48 +0000";
layers = (
{
components = (
{
name = l;
}
);
layerId = UUID0;
paths = (
{
closed = 1;
nodes = (
"55 367 LINE",
"267 492 LINE",
"267 423 LINE",
"55 299 LINE"
);
}
);
width = 309;
},
{
components = (
{
name = l;
}
);
layerId = "986A7A88-D3C4-446F-ACB8-D1DF408CF975";
paths = (
{
closed = 1;
nodes = (
"35 279 LINE",
"287 424 LINE",
"287 520 LINE",
"35 374 LINE"
);
}
);
width = 321;
}
);
unicode = 0142;
},
{
glyphname = m;
lastChange = "2016-09-05 13:29:48 +0000";
layers = (
{
layerId = UUID0;
paths = (
{
closed = 1;
nodes = (
"725 0 LINE",
"725 322 LINE SMOOTH",
"725 382 OFFCURVE",
"690 416 OFFCURVE",
"624 416 CURVE SMOOTH",
"550 416 OFFCURVE",
"497 357 OFFCURVE",
"480 326 CURVE",
"480 397 LINE",
"500 419 OFFCURVE",
"547 490 OFFCURVE",
"657 490 CURVE SMOOTH",
"764 490 OFFCURVE",
"804 418 OFFCURVE",
"804 346 CURVE SMOOTH",
"804 98 LINE SMOOTH",
"804 70 OFFCURVE",
"806 63 OFFCURVE",
"827 60 CURVE SMOOTH",
"882 54 LINE",
"882 0 LINE"
);
},
{
closed = 1;
nodes = (
"199 98 LINE",
"199 70 OFFCURVE",
"201 62 OFFCURVE",
"222 60 CURVE SMOOTH",
"282 53 LINE",
"282 0 LINE",
"42 0 LINE",
"42 54 LINE",
"97 60 LINE SMOOTH",
"118 62 OFFCURVE",
"120 70 OFFCURVE",
"120 98 CURVE SMOOTH",
"120 384 LINE SMOOTH",
"120 412 OFFCURVE",
"118 420 OFFCURVE",
"97 422 CURVE SMOOTH",
"42 428 LINE",
"42 480 LINE",
"189 480 LINE",
"198 407 LINE",
"226 437 OFFCURVE",
"274 490 OFFCURVE",
"363 490 CURVE SMOOTH",
"462 490 OFFCURVE",
"503 418 OFFCURVE",
"503 346 CURVE SMOOTH",
"503 98 LINE SMOOTH",
"503 70 OFFCURVE",
"505 62 OFFCURVE",
"526 60 CURVE SMOOTH",
"586 53 LINE",
"586 0 LINE",
"424 0 LINE",
"424 322 LINE SMOOTH",
"424 382 OFFCURVE",
"396 416 OFFCURVE",
"330 416 CURVE SMOOTH",
"275 416 OFFCURVE",
"221 379 OFFCURVE",
"199 340 CURVE"
);
}
);
width = 914;
},
{
anchors = (
{
name = top;
position = "{506, 0}";
}
);
hints = (
{
place = "{95, 142}";
},
{
place = "{386, 143}";
},
{
place = "{675, 143}";
}
);
layerId = "986A7A88-D3C4-446F-ACB8-D1DF408CF975";
paths = (
{
closed = 1;
nodes = (
"518 344 LINE",
"547 378 OFFCURVE",
"584 398 OFFCURVE",
"632 398 CURVE SMOOTH",
"681 398 OFFCURVE",
"699 367 OFFCURVE",
"699 318 CURVE SMOOTH",
"699 0 LINE",
"892 0 LINE",
"892 74 LINE",
"841 81 LINE SMOOTH",
"823 83 OFFCURVE",
"819 91 OFFCURVE",
"819 109 CURVE SMOOTH",
"819 346 LINE SMOOTH",
"819 443 OFFCURVE",
"763 495 OFFCURVE",
"663 495 CURVE SMOOTH",
"600 495 OFFCURVE",
"542 457 OFFCURVE",
"505 415 CURVE",
"484 467 OFFCURVE",
"434 495 OFFCURVE",
"362 495 CURVE SMOOTH",
"299 495 OFFCURVE",
"241 456 OFFCURVE",
"207 418 CURVE",
"199 485 LINE",
"30 485 LINE",
"30 411 LINE",
"81 404 LINE SMOOTH",
"99 402 OFFCURVE",
"103 394 OFFCURVE",
"103 376 CURVE SMOOTH",
"103 109 LINE SMOOTH",
"103 91 OFFCURVE",
"99 83 OFFCURVE",
"81 81 CURVE SMOOTH",
"30 74 LINE",
"30 0 LINE",
"296 0 LINE",
"296 74 LINE",
"245 81 LINE SMOOTH",
"227 83 OFFCURVE",
"223 91 OFFCURVE",
"223 109 CURVE SMOOTH",
"223 351 LINE",
"248 376 OFFCURVE",
"281 398 OFFCURVE",
"331 398 CURVE SMOOTH",
"380 398 OFFCURVE",
"398 367 OFFCURVE",
"398 318 CURVE SMOOTH",
"398 0 LINE",
"591 0 LINE",
"591 74 LINE",
"540 81 LINE SMOOTH",
"522 83 OFFCURVE",
"518 91 OFFCURVE",
"518 109 CURVE SMOOTH",
"518 341 LINE",
"518 344 LINE"
);
}
);
width = 914;
}
);
unicode = 006D;
},
{
glyphname = n;
lastChange = "2016-09-05 13:29:48 +0000";
layers = (
{
layerId = UUID0;
paths = (
{
closed = 1;
nodes = (
"438 0 LINE",
"438 323 LINE SMOOTH",
"438 383 OFFCURVE",
"398 416 OFFCURVE",
"333 416 CURVE SMOOTH",
"268 416 OFFCURVE",
"219 375 OFFCURVE",
"199 340 CURVE",
"199 98 LINE SMOOTH",
"199 70 OFFCURVE",
"201 62 OFFCURVE",
"222 60 CURVE SMOOTH",
"282 53 LINE",
"282 0 LINE",
"42 0 LINE",
"42 54 LINE",
"97 60 LINE SMOOTH",
"118 62 OFFCURVE",
"120 70 OFFCURVE",
"120 98 CURVE SMOOTH",
"120 384 LINE SMOOTH",
"120 412 OFFCURVE",
"118 420 OFFCURVE",
"97 422 CURVE SMOOTH",
"42 428 LINE",
"42 480 LINE",
"189 480 LINE",
"198 408 LINE",
"228 439 OFFCURVE",
"275 490 OFFCURVE",
"365 490 CURVE SMOOTH",
"480 490 OFFCURVE",
"517 419 OFFCURVE",
"517 347 CURVE SMOOTH",
"517 98 LINE SMOOTH",
"517 70 OFFCURVE",
"519 63 OFFCURVE",
"540 60 CURVE SMOOTH",
"595 54 LINE",
"595 0 LINE"
);
}
);
width = 627;
},
{
anchors = (
{
name = bottom;
position = "{318, 0}";
},
{
name = top;
position = "{303, 0}";
}
);
layerId = "986A7A88-D3C4-446F-ACB8-D1DF408CF975";
paths = (
{
closed = 1;
nodes = (
"605 0 LINE",
"605 74 LINE",
"554 81 LINE SMOOTH",
"536 83 OFFCURVE",
"532 91 OFFCURVE",
"532 109 CURVE SMOOTH",
"532 346 LINE SMOOTH",
"532 420 OFFCURVE",
"489 495 OFFCURVE",
"362 495 CURVE SMOOTH",
"299 495 OFFCURVE",
"241 456 OFFCURVE",
"207 418 CURVE",
"199 485 LINE",
"30 485 LINE",
"30 411 LINE",
"81 404 LINE SMOOTH",
"99 402 OFFCURVE",
"103 394 OFFCURVE",
"103 376 CURVE SMOOTH",
"103 109 LINE SMOOTH",
"103 91 OFFCURVE",
"99 83 OFFCURVE",
"81 81 CURVE SMOOTH",
"30 74 LINE",
"30 0 LINE",
"296 0 LINE",
"296 74 LINE",
"245 81 LINE SMOOTH",
"227 83 OFFCURVE",
"223 91 OFFCURVE",
"223 109 CURVE SMOOTH",
"223 351 LINE",
"248 376 OFFCURVE",
"281 398 OFFCURVE",
"331 398 CURVE SMOOTH",
"381 398 OFFCURVE",
"412 370 OFFCURVE",
"412 318 CURVE SMOOTH",
"412 0 LINE"
);
}
);
width = 627;
}
);
unicode = 006E;
},
{
color = 7;
glyphname = napostrophe;
lastChange = "2016-09-05 13:29:48 +0000";
layers = (
{
components = (
{
name = n;
}
);
layerId = UUID0;
paths = (
{
closed = 1;
nodes = (
"144 690 LINE SMOOTH",
"144 729 OFFCURVE",
"121 759 OFFCURVE",
"74 759 CURVE SMOOTH",
"41 759 OFFCURVE",
"15 742 OFFCURVE",
"15 698 CURVE SMOOTH",
"15 667 OFFCURVE",
"34 646 OFFCURVE",
"67 644 CURVE SMOOTH",
"71 644 OFFCURVE",
"78 644 OFFCURVE",
"82 645 CURVE",
"82 614 OFFCURVE",
"45 575 OFFCURVE",
"18 561 CURVE",
"45 532 LINE",
"100 566 OFFCURVE",
"144 615 OFFCURVE",
"144 690 CURVE SMOOTH"
);
}
);
width = 627;
},
{
components = (
{
name = n;
}
);
layerId = "986A7A88-D3C4-446F-ACB8-D1DF408CF975";
paths = (
{
closed = 1;
nodes = (
"163 690 LINE SMOOTH",
"163 617 OFFCURVE",
"106 557 OFFCURVE",
"54 534 CURVE",
"21 568 LINE",
"53 587 OFFCURVE",
"86 617 OFFCURVE",
"86 639 CURVE",
"82 637 OFFCURVE",
"79 636 OFFCURVE",
"75 636 CURVE SMOOTH",
"32 636 OFFCURVE",
"11 666 OFFCURVE",
"11 700 CURVE SMOOTH",
"11 747 OFFCURVE",
"40 763 OFFCURVE",
"84 763 CURVE SMOOTH",
"141 763 OFFCURVE",
"163 729 OFFCURVE",
"163 690 CURVE SMOOTH"
);
}
);
width = 627;
}
);
unicode = 0149;
},
{
color = 7;
glyphname = eng;
lastChange = "2016-09-05 13:29:48 +0000";
layers = (
{
layerId = UUID0;
paths = (
{
closed = 1;
nodes = (
"515 347 LINE",
"515 13 LINE SMOOTH",
"515 -129 OFFCURVE",
"496 -178 OFFCURVE",
"352 -250 CURVE",
"303 -210 LINE",
"412 -146 OFFCURVE",
"436 -106 OFFCURVE",
"436 16 CURVE SMOOTH",
"436 323 LINE SMOOTH",
"436 383 OFFCURVE",
"396 416 OFFCURVE",
"331 416 CURVE SMOOTH",
"266 416 OFFCURVE",
"217 375 OFFCURVE",
"197 340 CURVE",
"197 98 LINE SMOOTH",
"197 70 OFFCURVE",
"199 62 OFFCURVE",
"220 60 CURVE SMOOTH",
"280 53 LINE",
"280 0 LINE",
"40 0 LINE",
"40 54 LINE",
"95 60 LINE SMOOTH",
"116 62 OFFCURVE",
"118 70 OFFCURVE",
"118 98 CURVE SMOOTH",
"118 384 LINE SMOOTH",
"118 412 OFFCURVE",
"116 420 OFFCURVE",
"95 422 CURVE SMOOTH",
"40 428 LINE",
"40 480 LINE",
"187 480 LINE",
"196 408 LINE",
"226 439 OFFCURVE",
"273 490 OFFCURVE",
"363 490 CURVE SMOOTH",
"478 490 OFFCURVE",
"515 419 OFFCURVE",
"515 347 CURVE"
);
}
);
width = 628;
},
{
anchors = (
{
name = bottom;
position = "{318, 0}";
},
{
name = top;
position = "{303, 0}";
}
);
layerId = "986A7A88-D3C4-446F-ACB8-D1DF408CF975";
paths = (
{
closed = 1;
nodes = (
"412 16 LINE",
"412 -100 OFFCURVE",
"390 -138 OFFCURVE",
"289 -200 CURVE",
"358 -255 LINE",
"510 -182 OFFCURVE",
"532 -132 OFFCURVE",
"532 13 CURVE SMOOTH",
"532 346 LINE SMOOTH",
"532 420 OFFCURVE",
"489 495 OFFCURVE",
"362 495 CURVE SMOOTH",
"299 495 OFFCURVE",
"241 456 OFFCURVE",
"207 418 CURVE",
"199 485 LINE",
"30 485 LINE",
"30 411 LINE",
"81 404 LINE SMOOTH",
"99 402 OFFCURVE",
"103 394 OFFCURVE",
"103 376 CURVE SMOOTH",
"103 109 LINE SMOOTH",
"103 91 OFFCURVE",
"99 83 OFFCURVE",
"81 81 CURVE SMOOTH",
"30 74 LINE",
"30 0 LINE",
"296 0 LINE",
"296 74 LINE",
"245 81 LINE SMOOTH",
"227 83 OFFCURVE",
"223 91 OFFCURVE",
"223 109 CURVE SMOOTH",
"223 351 LINE",
"248 376 OFFCURVE",
"281 398 OFFCURVE",
"331 398 CURVE SMOOTH",
"381 398 OFFCURVE",
"412 370 OFFCURVE",
"412 318 CURVE SMOOTH"
);
}
);
width = 627;
}
);
unicode = 014B;
},
{
glyphname = o;
lastChange = "2016-09-05 13:29:48 +0000";
layers = (
{
anchors = (
{
name = top;
position = "{271, -10}";
}
);
layerId = UUID0;
paths = (
{
closed = 1;
nodes = (
"503 240 LINE SMOOTH",
"503 125 OFFCURVE",
"435 -10 OFFCURVE",
"255 -10 CURVE SMOOTH",
"100 -10 OFFCURVE",
"40 95 OFFCURVE",
"40 240 CURVE SMOOTH",
"40 355 OFFCURVE",
"108 490 OFFCURVE",
"288 490 CURVE SMOOTH",
"443 490 OFFCURVE",
"503 385 OFFCURVE",
"503 240 CURVE SMOOTH"
);
},
{
closed = 1;
nodes = (
"263 424 LINE SMOOTH",
"218 424 OFFCURVE",
"186 414 OFFCURVE",
"168 396 CURVE SMOOTH",
"138 366 OFFCURVE",
"126 289 OFFCURVE",
"126 236 CURVE SMOOTH",
"126 125 OFFCURVE",
"180 56 OFFCURVE",
"280 56 CURVE SMOOTH",
"325 56 OFFCURVE",
"357 66 OFFCURVE",
"375 84 CURVE SMOOTH",
"405 114 OFFCURVE",
"417 191 OFFCURVE",
"417 244 CURVE SMOOTH",
"417 355 OFFCURVE",
"363 424 OFFCURVE",
"263 424 CURVE SMOOTH"
);
}
);
width = 543;
},
{
anchors = (
{
name = top;
position = "{283, -24}";
}
);
layerId = "986A7A88-D3C4-446F-ACB8-D1DF408CF975";
paths = (
{
closed = 1;
nodes = (
"529 242 LINE",
"529 389 OFFCURVE",
"464 495 OFFCURVE",
"297 495 CURVE SMOOTH",
"107 495 OFFCURVE",
"34 359 OFFCURVE",
"34 242 CURVE SMOOTH",
"34 96 OFFCURVE",
"99 -10 OFFCURVE",
"265 -10 CURVE SMOOTH",
"456 -10 OFFCURVE",
"529 126 OFFCURVE",
"529 242 CURVE SMOOTH"
);
},
{
closed = 1;
nodes = (
"273 406 LINE",
"355 406 OFFCURVE",
"401 345 OFFCURVE",
"401 247 CURVE SMOOTH",
"401 197 OFFCURVE",
"391 126 OFFCURVE",
"366 103 CURVE SMOOTH",
"351 88 OFFCURVE",
"325 79 OFFCURVE",
"289 79 CURVE SMOOTH",
"207 79 OFFCURVE",
"162 139 OFFCURVE",
"162 238 CURVE SMOOTH",
"162 288 OFFCURVE",
"172 359 OFFCURVE",
"196 382 CURVE SMOOTH",
"211 397 OFFCURVE",
"238 406 OFFCURVE",
"273 406 CURVE SMOOTH"
);
}
);
width = 563;
}
);
leftKerningGroup = o;
unicode = 006F;
},
{
color = 7;
glyphname = ohorn;
lastChange = "2016-09-05 13:29:48 +0000";
layers = (
{
components = (
{
name = o;
}
);
layerId = UUID0;
paths = (
{
closed = 1;
nodes = (
"577 585 LINE",
"580 574 OFFCURVE",
"584 557 OFFCURVE",
"584 530 CURVE SMOOTH",
"584 424 OFFCURVE",
"468 384 OFFCURVE",
"390 374 CURVE",
"385 420 LINE",
"447 430 OFFCURVE",
"502 448 OFFCURVE",
"502 522 CURVE SMOOTH",
"502 537 OFFCURVE",
"498 552 OFFCURVE",
"494 573 CURVE"
);
}
);
width = 582;
},
{
components = (
{
name = o;
}
);
layerId = "986A7A88-D3C4-446F-ACB8-D1DF408CF975";
paths = (
{
closed = 1;
nodes = (
"527 573 LINE",
"530 552 OFFCURVE",
"535 537 OFFCURVE",
"535 522 CURVE SMOOTH",
"535 456 OFFCURVE",
"490 439 OFFCURVE",
"443 430 CURVE",
"448 369 LINE",
"528 379 OFFCURVE",
"647 421 OFFCURVE",
"647 530 CURVE SMOOTH",
"647 557 OFFCURVE",
"643 574 OFFCURVE",
"640 585 CURVE"
);
}
);
width = 622;
}
);
unicode = 01A1;
},
{
color = 7;
glyphname = oslash;
lastChange = "2016-09-05 13:29:48 +0000";
layers = (
{
anchors = (
{
name = top;
position = "{270, -10}";
}
);
components = (
{
name = o;
}
);
layerId = UUID0;
paths = (
{
closed = 1;
nodes = (
"100 -31 LINE",
"363 532 LINE",
"413 509 LINE",
"150 -54 LINE"
);
}
);
width = 543;
},
{
anchors = (
{
name = top;
position = "{270, 0}";
}
);
layerId = "986A7A88-D3C4-446F-ACB8-D1DF408CF975";
paths = (
{
closed = 1;
nodes = (
"163 -60 LINE",
"191 -1 LINE",
"213 -7 OFFCURVE",
"237 -10 OFFCURVE",
"265 -10 CURVE SMOOTH",
"456 -10 OFFCURVE",
"529 126 OFFCURVE",
"529 242 CURVE SMOOTH",
"529 347 OFFCURVE",
"496 431 OFFCURVE",
"416 470 CURVE",
"433 505 LINE",
"353 543 LINE",
"329 493 LINE",
"319 494 OFFCURVE",
"308 495 OFFCURVE",
"297 495 CURVE SMOOTH",
"107 495 OFFCURVE",
"34 359 OFFCURVE",
"34 242 CURVE SMOOTH",
"34 154 OFFCURVE",
"57 81 OFFCURVE",
"111 37 CURVE",
"83 -22 LINE"
);
},
{
closed = 1;
nodes = (
"401 247 LINE SMOOTH",
"401 197 OFFCURVE",
"391 126 OFFCURVE",
"366 103 CURVE SMOOTH",
"351 88 OFFCURVE",
"325 79 OFFCURVE",
"289 79 CURVE SMOOTH",
"268 79 OFFCURVE",
"250 83 OFFCURVE",
"234 90 CURVE",
"366 365 LINE",
"389 338 OFFCURVE",
"401 297 OFFCURVE",
"401 247 CURVE SMOOTH"
);
},
{
closed = 1;
nodes = (
"273 406 LINE SMOOTH",
"278 406 OFFCURVE",
"283 406 OFFCURVE",
"287 405 CURVE",
"172 164 LINE",
"165 185 OFFCURVE",
"162 210 OFFCURVE",
"162 238 CURVE SMOOTH",
"162 288 OFFCURVE",
"172 359 OFFCURVE",
"196 382 CURVE SMOOTH",
"211 397 OFFCURVE",
"238 406 OFFCURVE",
"273 406 CURVE SMOOTH"
);
}
);
width = 543;
}
);
unicode = 00F8;
},
{
color = 7;
glyphname = oslashacute;
lastChange = "2016-09-05 13:29:48 +0000";
layers = (
{
anchors = (
{
name = top;
position = "{270, -10}";
}
);
components = (
{
name = o;
},
{
name = acute;
transform = "{1, 0, 0, 1, 181, -10}";
}
);
layerId = UUID0;
paths = (
{
closed = 1;
nodes = (
"100 -31 LINE",
"363 532 LINE",
"413 509 LINE",
"150 -54 LINE"
);
}
);
width = 543;
},
{
components = (
{
name = oslash;
},
{
name = acute;
transform = "{1, 0, 0, 1, 152, 0}";
}
);
layerId = "986A7A88-D3C4-446F-ACB8-D1DF408CF975";
width = 543;
}
);
unicode = 01FF;
},
{
color = 7;
glyphname = oe;
lastChange = "2016-09-05 13:29:48 +0000";
layers = (
{
layerId = UUID0;
paths = (
{
closed = 1;
nodes = (
"483 289 LINE SMOOTH",
"483 189 OFFCURVE",
"481 134 OFFCURVE",
"459 95 CURVE SMOOTH",
"423 33 OFFCURVE",
"358 -10 OFFCURVE",
"255 -10 CURVE SMOOTH",
"100 -10 OFFCURVE",
"40 95 OFFCURVE",
"40 240 CURVE SMOOTH",
"40 355 OFFCURVE",
"108 490 OFFCURVE",
"288 490 CURVE SMOOTH",
"429 490 OFFCURVE",
"483 405 OFFCURVE",
"483 289 CURVE SMOOTH"
);
},
{
closed = 1;
nodes = (
"263 424 LINE SMOOTH",
"218 424 OFFCURVE",
"186 414 OFFCURVE",
"168 396 CURVE SMOOTH",
"138 366 OFFCURVE",
"126 289 OFFCURVE",
"126 236 CURVE SMOOTH",
"126 125 OFFCURVE",
"180 56 OFFCURVE",
"280 56 CURVE SMOOTH",
"325 56 OFFCURVE",
"357 66 OFFCURVE",
"375 84 CURVE SMOOTH",
"405 114 OFFCURVE",
"417 191 OFFCURVE",
"417 244 CURVE SMOOTH",
"417 355 OFFCURVE",
"363 424 OFFCURVE",
"263 424 CURVE SMOOTH"
);
},
{
closed = 1;
nodes = (
"493 219 LINE",
"496 115 OFFCURVE",
"543 56 OFFCURVE",
"640 56 CURVE SMOOTH",
"688 56 OFFCURVE",
"767 75 OFFCURVE",
"797 85 CURVE",
"811 36 LINE",
"789 28 OFFCURVE",
"718 -10 OFFCURVE",
"612 -10 CURVE SMOOTH",
"520 -10 OFFCURVE",
"462 30 OFFCURVE",
"432 96 CURVE",
"443 388 LINE",
"479 451 OFFCURVE",
"542 490 OFFCURVE",
"630 490 CURVE SMOOTH",
"782 490 OFFCURVE",
"815 394 OFFCURVE",
"815 242 CURVE"
);
},
{
closed = 1;
nodes = (
"736 300 LINE",
"736 361 OFFCURVE",
"720 424 OFFCURVE",
"626 424 CURVE SMOOTH",
"517 424 OFFCURVE",
"505 395 OFFCURVE",
"492 279 CURVE"
);
}
);
width = 854;
},
{
layerId = "986A7A88-D3C4-446F-ACB8-D1DF408CF975";
paths = (
{
closed = 1;
nodes = (
"837 234 LINE",
"837 394 OFFCURVE",
"803 495 OFFCURVE",
"641 495 CURVE SMOOTH",
"559 495 OFFCURVE",
"500 464 OFFCURVE",
"462 414 CURVE",
"432 465 OFFCURVE",
"380 495 OFFCURVE",
"297 495 CURVE SMOOTH",
"107 495 OFFCURVE",
"34 359 OFFCURVE",
"34 242 CURVE SMOOTH",
"34 96 OFFCURVE",
"99 -10 OFFCURVE",
"265 -10 CURVE SMOOTH",
"355 -10 OFFCURVE",
"413 24 OFFCURVE",
"449 73 CURVE",
"482 21 OFFCURVE",
"538 -10 OFFCURVE",
"623 -10 CURVE SMOOTH",
"714 -10 OFFCURVE",
"781 15 OFFCURVE",
"835 36 CURVE",
"816 108 LINE",
"781 98 OFFCURVE",
"697 79 OFFCURVE",
"651 79 CURVE SMOOTH",
"573 79 OFFCURVE",
"534 125 OFFCURVE",
"529 212 CURVE"
);
},
{
closed = 1;
nodes = (
"273 406 LINE SMOOTH",
"355 406 OFFCURVE",
"401 345 OFFCURVE",
"401 247 CURVE SMOOTH",
"401 197 OFFCURVE",
"391 126 OFFCURVE",
"366 103 CURVE SMOOTH",
"351 88 OFFCURVE",
"325 79 OFFCURVE",
"289 79 CURVE SMOOTH",
"207 79 OFFCURVE",
"162 139 OFFCURVE",
"162 238 CURVE SMOOTH",
"162 288 OFFCURVE",
"172 359 OFFCURVE",
"196 382 CURVE SMOOTH",
"211 397 OFFCURVE",
"238 406 OFFCURVE",
"273 406 CURVE SMOOTH"
);
},
{
closed = 1;
nodes = (
"527 291 LINE",
"537 381 OFFCURVE",
"552 406 OFFCURVE",
"635 406 CURVE SMOOTH",
"704 406 OFFCURVE",
"719 358 OFFCURVE",
"720 307 CURVE"
);
}
);
width = 874;
}
);
leftKerningGroup = o;
unicode = 0153;
},
{
glyphname = p;
lastChange = "2016-09-05 13:29:48 +0000";
layers = (
{
layerId = UUID0;
paths = (
{
closed = 1;
nodes = (
"189 94 LINE",
"215 72 OFFCURVE",
"261 56 OFFCURVE",
"310 56 CURVE SMOOTH",
"343 56 OFFCURVE",
"380 65 OFFCURVE",
"403 87 CURVE SMOOTH",
"428 115 OFFCURVE",
"444 180 OFFCURVE",
"444 247 CURVE SMOOTH",
"444 362 OFFCURVE",
"396 424 OFFCURVE",
"309 424 CURVE SMOOTH",
"255 424 OFFCURVE",
"199 373 OFFCURVE",
"189 355 CURVE"
);
},
{
closed = 1;
nodes = (
"110 384 LINE",
"110 412 OFFCURVE",
"108 420 OFFCURVE",
"87 422 CURVE SMOOTH",
"32 428 LINE",
"32 480 LINE",
"179 480 LINE",
"187 416 LINE",
"204 436 OFFCURVE",
"248 490 OFFCURVE",
"348 490 CURVE SMOOTH",
"466 490 OFFCURVE",
"530 392 OFFCURVE",
"530 251 CURVE SMOOTH",
"530 96 OFFCURVE",
"425 -10 OFFCURVE",
"288 -10 CURVE SMOOTH",
"249 -10 OFFCURVE",
"204 3 OFFCURVE",
"189 11 CURVE",
"189 -142 LINE SMOOTH",
"189 -170 OFFCURVE",
"191 -178 OFFCURVE",
"212 -180 CURVE SMOOTH",
"285 -187 LINE",
"285 -240 LINE",
"30 -240 LINE",
"30 -186 LINE",
"87 -180 LINE SMOOTH",
"108 -178 OFFCURVE",
"110 -170 OFFCURVE",
"110 -142 CURVE SMOOTH"
);
}
);
width = 569;
},
{
hints = (
{
place = "{85, 141}";
},
{
place = "{404, 155}";
}
);
layerId = "986A7A88-D3C4-446F-ACB8-D1DF408CF975";
paths = (
{
closed = 1;
nodes = (
"218 348 LINE",
"231 368 OFFCURVE",
"281 406 OFFCURVE",
"318 406 CURVE SMOOTH",
"388 406 OFFCURVE",
"422 352 OFFCURVE",
"422 249 CURVE SMOOTH",
"422 186 OFFCURVE",
"409 126 OFFCURVE",
"389 105 CURVE SMOOTH",
"370 85 OFFCURVE",
"336 79 OFFCURVE",
"311 79 CURVE SMOOTH",
"277 79 OFFCURVE",
"242 94 OFFCURVE",
"218 111 CURVE"
);
},
{
closed = 1;
nodes = (
"204 485 LINE",
"25 485 LINE",
"25 411 LINE",
"76 404 LINE SMOOTH",
"94 402 OFFCURVE",
"98 394 OFFCURVE",
"98 376 CURVE SMOOTH",
"98 -131 LINE SMOOTH",
"98 -149 OFFCURVE",
"94 -157 OFFCURVE",
"76 -159 CURVE SMOOTH",
"25 -166 LINE",
"25 -240 LINE",
"302 -240 LINE",
"302 -166 LINE",
"240 -159 LINE SMOOTH",
"222 -157 OFFCURVE",
"218 -149 OFFCURVE",
"218 -131 CURVE SMOOTH",
"218 7 LINE",
"238 -2 OFFCURVE",
"272 -10 OFFCURVE",
"298 -10 CURVE SMOOTH",
"442 -10 OFFCURVE",
"550 97 OFFCURVE",
"550 254 CURVE SMOOTH",
"550 396 OFFCURVE",
"476 495 OFFCURVE",
"347 495 CURVE SMOOTH",
"286 495 OFFCURVE",
"239 453 OFFCURVE",
"212 426 CURVE"
);
}
);
width = 584;
}
);
unicode = 0070;
},
{
color = 7;
glyphname = thorn;
lastChange = "2016-09-05 13:29:48 +0000";
layers = (
{
layerId = UUID0;
paths = (
{
closed = 1;
nodes = (
"110 684 LINE",
"110 712 OFFCURVE",
"106 720 OFFCURVE",
"85 722 CURVE SMOOTH",
"30 728 LINE",
"30 780 LINE",
"189 780 LINE",
"189 418 LINE",
"207 440 OFFCURVE",
"251 490 OFFCURVE",
"348 490 CURVE SMOOTH",
"466 490 OFFCURVE",
"530 392 OFFCURVE",
"530 251 CURVE SMOOTH",
"530 96 OFFCURVE",
"425 -10 OFFCURVE",
"288 -10 CURVE SMOOTH",
"249 -10 OFFCURVE",
"204 3 OFFCURVE",
"189 11 CURVE",
"189 -142 LINE SMOOTH",
"189 -170 OFFCURVE",
"191 -178 OFFCURVE",
"212 -180 CURVE SMOOTH",
"285 -187 LINE",
"285 -240 LINE",
"30 -240 LINE",
"30 -186 LINE",
"87 -180 LINE SMOOTH",
"108 -178 OFFCURVE",
"110 -170 OFFCURVE",
"110 -142 CURVE SMOOTH"
);
},
{
closed = 1;
nodes = (
"189 94 LINE",
"215 72 OFFCURVE",
"261 56 OFFCURVE",
"310 56 CURVE SMOOTH",
"343 56 OFFCURVE",
"380 65 OFFCURVE",
"403 87 CURVE",
"428 115 OFFCURVE",
"444 180 OFFCURVE",
"444 247 CURVE SMOOTH",
"444 362 OFFCURVE",
"396 424 OFFCURVE",
"309 424 CURVE SMOOTH",
"255 424 OFFCURVE",
"199 373 OFFCURVE",
"189 355 CURVE"
);
}
);
width = 569;
},
{
layerId = "986A7A88-D3C4-446F-ACB8-D1DF408CF975";
paths = (
{
closed = 1;
nodes = (
"191 780 LINE",
"-2 780 LINE",
"-2 706 LINE",
"49 700 LINE SMOOTH",
"67 698 OFFCURVE",
"71 690 OFFCURVE",
"71 672 CURVE SMOOTH",
"71 -131 LINE SMOOTH",
"71 -149 OFFCURVE",
"67 -157 OFFCURVE",
"49 -159 CURVE SMOOTH",
"-2 -166 LINE",
"-2 -240 LINE",
"275 -240 LINE",
"275 -166 LINE",
"213 -159 LINE SMOOTH",
"195 -157 OFFCURVE",
"191 -149 OFFCURVE",
"191 -131 CURVE SMOOTH",
"191 7 LINE",
"211 -2 OFFCURVE",
"245 -10 OFFCURVE",
"271 -10 CURVE SMOOTH",
"415 -10 OFFCURVE",
"523 97 OFFCURVE",
"523 254 CURVE SMOOTH",
"523 396 OFFCURVE",
"449 495 OFFCURVE",
"320 495 CURVE SMOOTH",
"259 495 OFFCURVE",
"218 458 OFFCURVE",
"191 431 CURVE"
);
},
{
closed = 1;
nodes = (
"191 348 LINE",
"204 368 OFFCURVE",
"254 406 OFFCURVE",
"291 406 CURVE SMOOTH",
"361 406 OFFCURVE",
"395 352 OFFCURVE",
"395 249 CURVE SMOOTH",
"395 186 OFFCURVE",
"382 126 OFFCURVE",
"362 105 CURVE SMOOTH",
"343 85 OFFCURVE",
"309 79 OFFCURVE",
"284 79 CURVE SMOOTH",
"248 79 OFFCURVE",
"205 100 OFFCURVE",
"191 111 CURVE"
);
}
);
width = 557;
}
);
unicode = 00FE;
},
{
glyphname = q;
lastChange = "2016-09-05 13:29:48 +0000";
layers = (
{
layerId = UUID0;
paths = (
{
closed = 1;
nodes = (
"381 119 LINE",
"373 99 OFFCURVE",
"329 56 OFFCURVE",
"261 56 CURVE SMOOTH",
"177 56 OFFCURVE",
"125 113 OFFCURVE",
"125 239 CURVE SMOOTH",
"125 301 OFFCURVE",
"141 373 OFFCURVE",
"174 399 CURVE SMOOTH",
"194 415 OFFCURVE",
"230 424 OFFCURVE",
"263 424 CURVE SMOOTH",
"303 424 OFFCURVE",
"360 413 OFFCURVE",
"381 400 CURVE"
);
},
{
closed = 1;
nodes = (
"381 -142 LINE",
"381 -170 OFFCURVE",
"379 -178 OFFCURVE",
"358 -180 CURVE SMOOTH",
"285 -187 LINE",
"285 -240 LINE",
"538 -240 LINE",
"538 -186 LINE",
"483 -180 LINE SMOOTH",
"462 -178 OFFCURVE",
"460 -170 OFFCURVE",
"460 -142 CURVE SMOOTH",
"460 480 LINE",
"381 468 LINE",
"357 473 OFFCURVE",
"325 490 OFFCURVE",
"272 490 CURVE SMOOTH",
"122 490 OFFCURVE",
"39 379 OFFCURVE",
"39 220 CURVE SMOOTH",
"39 77 OFFCURVE",
"115 -10 OFFCURVE",
"222 -10 CURVE SMOOTH",
"319 -10 OFFCURVE",
"362 34 OFFCURVE",
"381 56 CURVE"
);
}
);
width = 560;
},
{
hints = (
{
place = "{22, 151}";
},
{
place = "{351, 144}";
}
);
layerId = "986A7A88-D3C4-446F-ACB8-D1DF408CF975";
paths = (
{
closed = 1;
nodes = (
"367 133 LINE",
"360 115 OFFCURVE",
"325 79 OFFCURVE",
"274 79 CURVE SMOOTH",
"206 79 OFFCURVE",
"162 129 OFFCURVE",
"162 241 CURVE SMOOTH",
"162 299 OFFCURVE",
"177 365 OFFCURVE",
"203 384 CURVE SMOOTH",
"221 398 OFFCURVE",
"250 406 OFFCURVE",
"276 406 CURVE SMOOTH",
"306 406 OFFCURVE",
"344 397 OFFCURVE",
"367 389 CURVE"
);
},
{
closed = 1;
nodes = (
"367 -131 LINE",
"367 -149 OFFCURVE",
"363 -157 OFFCURVE",
"345 -159 CURVE SMOOTH",
"283 -166 LINE",
"283 -240 LINE",
"560 -240 LINE",
"560 -166 LINE",
"509 -159 LINE SMOOTH",
"491 -157 OFFCURVE",
"487 -149 OFFCURVE",
"487 -131 CURVE SMOOTH",
"487 485 LINE",
"391 468 LINE",
"362 479 OFFCURVE",
"320 495 OFFCURVE",
"284 495 CURVE SMOOTH",
"124 495 OFFCURVE",
"34 383 OFFCURVE",
"34 223 CURVE SMOOTH",
"34 79 OFFCURVE",
"120 -10 OFFCURVE",
"236 -10 CURVE SMOOTH",
"301 -10 OFFCURVE",
"341 12 OFFCURVE",
"367 29 CURVE"
);
}
);
width = 564;
}
);
leftKerningGroup = o;
unicode = 0071;
},
{
glyphname = r;
lastChange = "2016-09-05 13:29:48 +0000";
layers = (
{
layerId = UUID0;
paths = (
{
closed = 1;
nodes = (
"120 384 LINE",
"120 412 OFFCURVE",
"118 420 OFFCURVE",
"97 422 CURVE SMOOTH",
"42 428 LINE",
"42 480 LINE",
"185 480 LINE",
"195 380 LINE",
"211 423 OFFCURVE",
"270 490 OFFCURVE",
"355 490 CURVE SMOOTH",
"381 490 OFFCURVE",
"409 483 OFFCURVE",
"430 471 CURVE",
"422 345 LINE",
"364 345 LINE",
"353 409 LINE",
"347 412 OFFCURVE",
"327 416 OFFCURVE",
"316 416 CURVE SMOOTH",
"253 416 OFFCURVE",
"209 346 OFFCURVE",
"199 303 CURVE",
"199 98 LINE SMOOTH",
"199 70 OFFCURVE",
"201 62 OFFCURVE",
"222 60 CURVE SMOOTH",
"295 53 LINE",
"295 0 LINE",
"40 0 LINE",
"40 54 LINE",
"97 60 LINE SMOOTH",
"118 62 OFFCURVE",
"120 70 OFFCURVE",
"120 98 CURVE SMOOTH"
);
}
);
width = 440;
},
{
anchors = (
{
name = bottom;
position = "{161, 0}";
},
{
name = top;
position = "{242, 0}";
}
);
hints = (
{
place = "{87, 143}";
}
);
layerId = "986A7A88-D3C4-446F-ACB8-D1DF408CF975";
paths = (
{
closed = 1;
nodes = (
"199 485 LINE",
"30 485 LINE",
"30 411 LINE",
"81 404 LINE SMOOTH",
"99 402 OFFCURVE",
"103 394 OFFCURVE",
"103 376 CURVE SMOOTH",
"103 109 LINE SMOOTH",
"103 91 OFFCURVE",
"99 83 OFFCURVE",
"81 81 CURVE SMOOTH",
"30 74 LINE",
"30 0 LINE",
"309 0 LINE",
"309 74 LINE",
"245 81 LINE SMOOTH",
"227 83 OFFCURVE",
"223 91 OFFCURVE",
"223 109 CURVE SMOOTH",
"223 298 LINE SMOOTH",
"223 334 OFFCURVE",
"266 399 OFFCURVE",
"313 399 CURVE SMOOTH",
"320 399 OFFCURVE",
"333 399 OFFCURVE",
"339 395 CURVE",
"350 333 LINE",
"429 333 LINE",
"437 471 LINE",
"412 486 OFFCURVE",
"383 495 OFFCURVE",
"351 495 CURVE SMOOTH",
"289 495 OFFCURVE",
"230 445 OFFCURVE",
"209 409 CURVE"
);
}
);
width = 446;
}
);
unicode = 0072;
},
{
glyphname = s;
lastChange = "2016-09-05 13:29:48 +0000";
layers = (
{
anchors = (
{
name = top;
position = "{223, -10}";
}
);
layerId = UUID0;
paths = (
{
closed = 1;
nodes = (
"227 490 LINE SMOOTH",
"281 490 OFFCURVE",
"336 476 OFFCURVE",
"381 462 CURVE",
"374 345 LINE",
"316 345 LINE",
"302 418 LINE",
"267 431 OFFCURVE",
"246 433 OFFCURVE",
"219 433 CURVE SMOOTH",
"168 433 OFFCURVE",
"128 421 OFFCURVE",
"128 370 CURVE SMOOTH",
"128 324 OFFCURVE",
"176 306 OFFCURVE",
"251 281 CURVE SMOOTH",
"351 248 OFFCURVE",
"403 216 OFFCURVE",
"403 140 CURVE SMOOTH",
"403 44 OFFCURVE",
"315 -10 OFFCURVE",
"217 -10 CURVE SMOOTH",
"141 -10 OFFCURVE",
"90 6 OFFCURVE",
"43 25 CURVE",
"50 146 LINE",
"110 146 LINE",
"119 73 LINE",
"146 62 OFFCURVE",
"175 52 OFFCURVE",
"211 52 CURVE SMOOTH",
"268 52 OFFCURVE",
"322 68 OFFCURVE",
"322 125 CURVE SMOOTH",
"322 167 OFFCURVE",
"273 190 OFFCURVE",
"200 213 CURVE SMOOTH",
"89 248 OFFCURVE",
"50 285 OFFCURVE",
"50 361 CURVE SMOOTH",
"50 453 OFFCURVE",
"135 490 OFFCURVE",
"227 490 CURVE SMOOTH"
);
}
);
width = 440;
},
{
anchors = (
{
name = bottom;
position = "{209, 0}";
},
{
name = top;
position = "{229, 0}";
}
);
hints = (
{
place = "{22, 148}";
},
{
place = "{287, 151}";
}
);
layerId = "986A7A88-D3C4-446F-ACB8-D1DF408CF975";
paths = (
{
closed = 1;
nodes = (
"230 495 LINE SMOOTH",
"130 495 OFFCURVE",
"40 455 OFFCURVE",
"40 359 CURVE SMOOTH",
"40 281 OFFCURVE",
"80 243 OFFCURVE",
"198 204 CURVE SMOOTH",
"256 184 OFFCURVE",
"300 168 OFFCURVE",
"300 131 CURVE SMOOTH",
"300 88 OFFCURVE",
"256 71 OFFCURVE",
"215 71 CURVE SMOOTH",
"191 71 OFFCURVE",
"158 77 OFFCURVE",
"137 85 CURVE",
"128 151 LINE",
"47 151 LINE",
"38 26 LINE",
"92 4 OFFCURVE",
"142 -10 OFFCURVE",
"221 -10 CURVE SMOOTH",
"324 -10 OFFCURVE",
"421 46 OFFCURVE",
"421 145 CURVE SMOOTH",
"421 225 OFFCURVE",
"362 258 OFFCURVE",
"261 292 CURVE SMOOTH",
"201 312 OFFCURVE",
"159 330 OFFCURVE",
"159 368 CURVE SMOOTH",
"159 405 OFFCURVE",
"186 415 OFFCURVE",
"223 415 CURVE SMOOTH",
"243 415 OFFCURVE",
"277 413 OFFCURVE",
"305 401 CURVE",
"317 341 LINE",
"396 341 LINE",
"402 463 LINE",
"346 478 OFFCURVE",
"293 495 OFFCURVE",
"230 495 CURVE SMOOTH"
);
}
);
width = 456;
}
);
unicode = 0073;
},
{
color = 7;
glyphname = germandbls;
lastChange = "2016-09-05 13:29:48 +0000";
layers = (
{
layerId = UUID0;
paths = (
{
closed = 1;
nodes = (
"118 480 LINE",
"166 490 LINE",
"166 418 LINE",
"36 418 LINE",
"46 471 LINE"
);
},
{
closed = 1;
nodes = (
"508 626 LINE SMOOTH",
"508 444 OFFCURVE",
"331 469 OFFCURVE",
"331 381 CURVE SMOOTH",
"331 323 OFFCURVE",
"367 314 OFFCURVE",
"431 286 CURVE SMOOTH",
"521 246 OFFCURVE",
"570 221 OFFCURVE",
"570 145 CURVE SMOOTH",
"570 49 OFFCURVE",
"490 -5 OFFCURVE",
"402 -5 CURVE SMOOTH",
"337 -5 OFFCURVE",
"289 11 OFFCURVE",
"249 30 CURVE",
"255 151 LINE",
"311 151 LINE",
"319 78 LINE",
"342 67 OFFCURVE",
"366 57 OFFCURVE",
"397 57 CURVE SMOOTH",
"445 57 OFFCURVE",
"491 73 OFFCURVE",
"491 130 CURVE SMOOTH",
"491 172 OFFCURVE",
"449 195 OFFCURVE",
"387 218 CURVE SMOOTH",
"293 253 OFFCURVE",
"256 291 OFFCURVE",
"256 366 CURVE SMOOTH",
"256 512 OFFCURVE",
"425 445 OFFCURVE",
"425 619 CURVE SMOOTH",
"425 692 OFFCURVE",
"381 720 OFFCURVE",
"308 720 CURVE SMOOTH",
"263 720 OFFCURVE",
"231 707 OFFCURVE",
"217 688 CURVE SMOOTH",
"202 668 OFFCURVE",
"199 639 OFFCURVE",
"199 606 CURVE SMOOTH",
"199 0 LINE",
"40 0 LINE",
"40 54 LINE",
"97 60 LINE SMOOTH",
"118 62 OFFCURVE",
"120 70 OFFCURVE",
"120 98 CURVE SMOOTH",
"120 550 LINE SMOOTH",
"120 712 OFFCURVE",
"201 790 OFFCURVE",
"336 790 CURVE SMOOTH",
"435 790 OFFCURVE",
"508 741 OFFCURVE",
"508 626 CURVE SMOOTH"
);
}
);
width = 598;
},
{
layerId = "986A7A88-D3C4-446F-ACB8-D1DF408CF975";
paths = (
{
closed = 1;
nodes = (
"554 626 LINE SMOOTH",
"554 741 OFFCURVE",
"474 790 OFFCURVE",
"366 790 CURVE SMOOTH",
"207 790 OFFCURVE",
"109 712 OFFCURVE",
"109 550 CURVE SMOOTH",
"109 490 LINE",
"46 481 LINE",
"30 403 LINE",
"109 403 LINE",
"109 118 LINE SMOOTH",
"109 90 OFFCURVE",
"107 82 OFFCURVE",
"86 80 CURVE SMOOTH",
"34 74 LINE",
"34 0 LINE",
"229 0 LINE",
"229 606 LINE SMOOTH",
"229 631 OFFCURVE",
"232 652 OFFCURVE",
"247 668 CURVE SMOOTH",
"261 684 OFFCURVE",
"293 695 OFFCURVE",
"338 695 CURVE SMOOTH",
"396 695 OFFCURVE",
"430 672 OFFCURVE",
"430 619 CURVE SMOOTH",
"430 445 OFFCURVE",
"271 512 OFFCURVE",
"271 366 CURVE SMOOTH",
"271 285 OFFCURVE",
"310 245 OFFCURVE",
"407 207 CURVE SMOOTH",
"460 186 OFFCURVE",
"496 168 OFFCURVE",
"496 130 CURVE SMOOTH",
"496 85 OFFCURVE",
"461 71 OFFCURVE",
"427 71 CURVE SMOOTH",
"398 71 OFFCURVE",
"375 80 OFFCURVE",
"354 91 CURVE",
"346 149 LINE",
"280 149 LINE",
"274 25 LINE",
"315 6 OFFCURVE",
"365 -10 OFFCURVE",
"432 -10 CURVE SMOOTH",
"529 -10 OFFCURVE",
"616 46 OFFCURVE",
"616 145 CURVE SMOOTH",
"616 224 OFFCURVE",
"569 252 OFFCURVE",
"481 292 CURVE SMOOTH",
"420 319 OFFCURVE",
"386 326 OFFCURVE",
"386 381 CURVE SMOOTH",
"386 469 OFFCURVE",
"554 444 OFFCURVE",
"554 626 CURVE SMOOTH"
);
}
);
width = 634;
}
);
unicode = 00DF;
},
{
color = 7;
glyphname = longs;
lastChange = "2016-09-05 13:29:48 +0000";
layers = (
{
layerId = UUID0;
paths = (
{
closed = 1;
nodes = (
"110 590 LINE",
"110 724 OFFCURVE",
"187 790 OFFCURVE",
"300 790 CURVE SMOOTH",
"345 790 OFFCURVE",
"377 780 OFFCURVE",
"401 771 CURVE",
"371 697 LINE",
"351 702 OFFCURVE",
"320 720 OFFCURVE",
"268 720 CURVE SMOOTH",
"213 720 OFFCURVE",
"189 689 OFFCURVE",
"189 646 CURVE SMOOTH",
"189 98 LINE SMOOTH",
"189 70 OFFCURVE",
"191 62 OFFCURVE",
"212 60 CURVE SMOOTH",
"290 53 LINE",
"290 0 LINE",
"30 0 LINE",
"30 54 LINE",
"87 60 LINE SMOOTH",
"108 62 OFFCURVE",
"110 70 OFFCURVE",
"110 98 CURVE SMOOTH"
);
}
);
width = 349;
},
{
hints = (
{
place = "{87, 143}";
}
);
layerId = "986A7A88-D3C4-446F-ACB8-D1DF408CF975";
paths = (
{
closed = 1;
nodes = (
"103 109 LINE",
"103 91 OFFCURVE",
"99 83 OFFCURVE",
"81 81 CURVE SMOOTH",
"30 74 LINE",
"30 0 LINE",
"314 0 LINE",
"314 74 LINE",
"245 81 LINE SMOOTH",
"227 83 OFFCURVE",
"223 91 OFFCURVE",
"223 109 CURVE SMOOTH",
"223 635 LINE SMOOTH",
"223 673 OFFCURVE",
"240 699 OFFCURVE",
"278 699 CURVE SMOOTH",
"321 699 OFFCURVE",
"361 680 OFFCURVE",
"385 668 CURVE",
"426 766 LINE",
"395 777 OFFCURVE",
"358 790 OFFCURVE",
"309 790 CURVE SMOOTH",
"186 790 OFFCURVE",
"103 722 OFFCURVE",
"103 586 CURVE SMOOTH"
);
}
);
width = 364;
}
);
unicode = 017F;
},
{
glyphname = t;
lastChange = "2016-09-05 13:29:48 +0000";
layers = (
{
layerId = UUID0;
paths = (
{
closed = 1;
nodes = (
"20 471 LINE",
"95 480 LINE",
"95 569 LINE",
"174 587 LINE",
"174 480 LINE",
"307 490 LINE",
"307 423 LINE",
"174 423 LINE",
"174 196 LINE SMOOTH",
"174 100 OFFCURVE",
"183 53 OFFCURVE",
"270 53 CURVE SMOOTH",
"289 53 OFFCURVE",
"315 56 OFFCURVE",
"341 60 CURVE",
"332 9 LINE",
"314 0 OFFCURVE",
"253 -10 OFFCURVE",
"216 -10 CURVE SMOOTH",
"98 -10 OFFCURVE",
"95 63 OFFCURVE",
"95 181 CURVE SMOOTH",
"95 423 LINE",
"20 423 LINE"
);
}
);
width = 354;
},
{
anchors = (
{
name = bottom;
position = "{195, 0}";
}
);
hints = (
{
place = "{70, 143}";
}
);
layerId = "986A7A88-D3C4-446F-ACB8-D1DF408CF975";
paths = (
{
closed = 1;
nodes = (
"23 405 LINE",
"82 405 LINE",
"82 185 LINE SMOOTH",
"82 59 OFFCURVE",
"93 -10 OFFCURVE",
"219 -10 CURVE SMOOTH",
"259 -10 OFFCURVE",
"311 -1 OFFCURVE",
"333 11 CURVE",
"344 86 LINE",
"314 79 OFFCURVE",
"286 76 OFFCURVE",
"270 76 CURVE SMOOTH",
"207 76 OFFCURVE",
"202 128 OFFCURVE",
"202 200 CURVE SMOOTH",
"202 405 LINE",
"323 405 LINE",
"323 498 LINE",
"287 495 OFFCURVE",
"243 490 OFFCURVE",
"202 487 CURVE",
"202 589 LINE",
"82 562 LINE",
"82 483 LINE",
"23 475 LINE"
);
}
);
width = 356;
}
);
unicode = 0074;
},
{
color = 7;
glyphname = tbar;
lastChange = "2016-09-05 13:29:48 +0000";
layers = (
{
components = (
{
name = t;
}
);
layerId = UUID0;
paths = (
{
closed = 1;
nodes = (
"298 237 LINE",
"24 237 LINE",
"24 297 LINE",
"298 297 LINE"
);
}
);
width = 354;
},
{
components = (
{
name = t;
}
);
layerId = "986A7A88-D3C4-446F-ACB8-D1DF408CF975";
paths = (
{
closed = 1;
nodes = (
"316 308 LINE",
"24 308 LINE",
"24 219 LINE",
"316 219 LINE"
);
}
);
width = 356;
}
);
unicode = 0167;
},
{
color = 7;
glyphname = tcaron;
lastChange = "2016-09-05 13:29:48 +0000";
layers = (
{
components = (
{
name = t;
}
);
layerId = UUID0;
paths = (
{
closed = 1;
nodes = (
"371 690 LINE SMOOTH",
"371 729 OFFCURVE",
"348 759 OFFCURVE",
"301 759 CURVE SMOOTH",
"268 759 OFFCURVE",
"242 742 OFFCURVE",
"242 698 CURVE SMOOTH",
"242 667 OFFCURVE",
"261 646 OFFCURVE",
"294 644 CURVE SMOOTH",
"298 644 OFFCURVE",
"305 644 OFFCURVE",
"309 645 CURVE",
"309 614 OFFCURVE",
"272 575 OFFCURVE",
"245 561 CURVE",
"272 532 LINE",
"327 566 OFFCURVE",
"371 615 OFFCURVE",
"371 690 CURVE SMOOTH"
);
}
);
width = 404;
},
{
components = (
{
name = t;
}
);
layerId = "986A7A88-D3C4-446F-ACB8-D1DF408CF975";
paths = (
{
closed = 1;
nodes = (
"407 690 LINE SMOOTH",
"407 617 OFFCURVE",
"350 557 OFFCURVE",
"298 534 CURVE",
"265 568 LINE",
"297 587 OFFCURVE",
"330 617 OFFCURVE",
"330 639 CURVE",
"326 637 OFFCURVE",
"323 636 OFFCURVE",
"319 636 CURVE SMOOTH",
"276 636 OFFCURVE",
"255 666 OFFCURVE",
"255 700 CURVE SMOOTH",
"255 747 OFFCURVE",
"284 763 OFFCURVE",
"328 763 CURVE SMOOTH",
"385 763 OFFCURVE",
"407 729 OFFCURVE",
"407 690 CURVE SMOOTH"
);
}
);
width = 419;
}
);
unicode = 0165;
},
{
glyphname = u;
lastChange = "2016-09-05 13:29:48 +0000";
layers = (
{
anchors = (
{
name = top;
position = "{290, -10}";
}
);
layerId = UUID0;
paths = (
{
closed = 1;
nodes = (
"417 384 LINE",
"417 412 OFFCURVE",
"415 420 OFFCURVE",
"394 422 CURVE SMOOTH",
"339 428 LINE",
"339 480 LINE",
"496 480 LINE",
"496 98 LINE SMOOTH",
"496 70 OFFCURVE",
"498 62 OFFCURVE",
"519 60 CURVE SMOOTH",
"575 54 LINE",
"575 0 LINE",
"431 0 LINE",
"423 76 LINE",
"390 37 OFFCURVE",
"335 -10 OFFCURVE",
"259 -10 CURVE SMOOTH",
"161 -10 OFFCURVE",
"105 41 OFFCURVE",
"105 133 CURVE SMOOTH",
"105 384 LINE SMOOTH",
"105 412 OFFCURVE",
"103 420 OFFCURVE",
"82 422 CURVE SMOOTH",
"27 428 LINE",
"27 480 LINE",
"184 480 LINE",
"184 160 LINE SMOOTH",
"184 99 OFFCURVE",
"217 64 OFFCURVE",
"282 64 CURVE SMOOTH",
"353 64 OFFCURVE",
"408 122 OFFCURVE",
"417 139 CURVE"
);
}
);
width = 606;
},
{
anchors = (
{
name = bottom;
position = "{485, 0}";
},
{
name = top;
position = "{293, 5}";
}
);
hints = (
{
place = "{73, 143}";
},
{
place = "{373, 143}";
}
);
layerId = "986A7A88-D3C4-446F-ACB8-D1DF408CF975";
paths = (
{
closed = 1;
nodes = (
"389 143 LINE",
"385 132 OFFCURVE",
"335 84 OFFCURVE",
"279 84 CURVE SMOOTH",
"230 84 OFFCURVE",
"206 114 OFFCURVE",
"206 168 CURVE SMOOTH",
"206 485 LINE",
"13 485 LINE",
"13 411 LINE",
"64 404 LINE SMOOTH",
"82 402 OFFCURVE",
"86 394 OFFCURVE",
"86 376 CURVE SMOOTH",
"86 138 LINE SMOOTH",
"86 43 OFFCURVE",
"146 -10 OFFCURVE",
"256 -10 CURVE SMOOTH",
"321 -10 OFFCURVE",
"379 37 OFFCURVE",
"405 67 CURVE",
"413 0 LINE",
"582 0 LINE",
"582 74 LINE",
"531 81 LINE SMOOTH",
"513 83 OFFCURVE",
"509 91 OFFCURVE",
"509 109 CURVE SMOOTH",
"509 485 LINE",
"316 485 LINE",
"316 411 LINE",
"367 404 LINE SMOOTH",
"385 402 OFFCURVE",
"389 394 OFFCURVE",
"389 376 CURVE"
);
}
);
width = 607;
}
);
unicode = 0075;
},
{
color = 7;
glyphname = uhorn;
lastChange = "2016-09-05 13:29:48 +0000";
layers = (
{
components = (
{
name = u;
transform = "{1, 0, 0, 1, -5, 0}";
}
);
layerId = UUID0;
paths = (
{
closed = 1;
nodes = (
"638 585 LINE",
"641 574 OFFCURVE",
"645 557 OFFCURVE",
"645 530 CURVE SMOOTH",
"645 424 OFFCURVE",
"529 384 OFFCURVE",
"451 374 CURVE",
"446 420 LINE",
"508 430 OFFCURVE",
"563 448 OFFCURVE",
"563 522 CURVE SMOOTH",
"563 537 OFFCURVE",
"559 552 OFFCURVE",
"555 573 CURVE"
);
}
);
width = 644;
},
{
components = (
{
name = u;
}
);
layerId = "986A7A88-D3C4-446F-ACB8-D1DF408CF975";
paths = (
{
closed = 1;
nodes = (
"574 573 LINE",
"578 552 OFFCURVE",
"582 537 OFFCURVE",
"582 522 CURVE SMOOTH",
"582 456 OFFCURVE",
"537 439 OFFCURVE",
"490 430 CURVE",
"495 369 LINE",
"575 379 OFFCURVE",
"694 421 OFFCURVE",
"694 530 CURVE SMOOTH",
"694 557 OFFCURVE",
"690 574 OFFCURVE",
"687 585 CURVE"
);
}
);
width = 682;
}
);
unicode = 01B0;
},
{
color = 7;
glyphname = uni01F0;
lastChange = "2016-09-05 13:29:48 +0000";
layers = (
{
components = (
{
name = caron;
transform = "{1, 0, 0, 1, -45, -10}";
}
);
layerId = UUID0;
paths = (
{
closed = 1;
nodes = (
"110 384 LINE",
"110 412 OFFCURVE",
"108 420 OFFCURVE",
"87 422 CURVE SMOOTH",
"32 428 LINE",
"32 480 LINE",
"189 480 LINE",
"189 -3 LINE SMOOTH",
"189 -145 OFFCURVE",
"170 -178 OFFCURVE",
"26 -250 CURVE",
"-23 -210 LINE",
"92 -138 OFFCURVE",
"110 -117 OFFCURVE",
"110 25 CURVE SMOOTH"
);
}
);
width = 289;
},
{
components = (
{
name = dotlessj;
},
{
name = caron;
transform = "{1, 0, 0, 1, -29, 0}";
}
);
layerId = "986A7A88-D3C4-446F-ACB8-D1DF408CF975";
width = 295;
}
);
unicode = 01F0;
},
{
color = 7;
glyphname = uni1E01;
lastChange = "2016-09-05 13:29:48 +0000";
layers = (
{
components = (
{
name = a;
}
);
layerId = UUID0;
paths = (
{
closed = 1;
nodes = (
"333 -125 LINE SMOOTH",
"333 -170 OFFCURVE",
"298 -220 OFFCURVE",
"233 -220 CURVE SMOOTH",
"173 -220 OFFCURVE",
"142 -173 OFFCURVE",
"142 -128 CURVE SMOOTH",
"142 -83 OFFCURVE",
"177 -33 OFFCURVE",
"242 -33 CURVE SMOOTH",
"302 -33 OFFCURVE",
"333 -80 OFFCURVE",
"333 -125 CURVE SMOOTH"
);
},
{
closed = 1;
nodes = (
"283 -123 LINE SMOOTH",
"283 -98 OFFCURVE",
"262 -81 OFFCURVE",
"237 -81 CURVE SMOOTH",
"207 -81 OFFCURVE",
"192 -101 OFFCURVE",
"192 -131 CURVE SMOOTH",
"192 -156 OFFCURVE",
"213 -173 OFFCURVE",
"238 -173 CURVE SMOOTH",
"268 -173 OFFCURVE",
"283 -153 OFFCURVE",
"283 -123 CURVE SMOOTH"
);
}
);
width = 527;
},
{
components = (
{
name = a;
},
{
name = ring;
transform = "{1, 0, 0, 1, 105, -797}";
}
);
layerId = "986A7A88-D3C4-446F-ACB8-D1DF408CF975";
width = 544;
}
);
unicode = 1E01;
},
{
glyphname = v;
lastChange = "2016-09-05 13:29:48 +0000";
layers = (
{
layerId = UUID0;
paths = (
{
closed = 1;
nodes = (
"212 0 LINE",
"61 384 LINE SMOOTH",
"52 407 OFFCURVE",
"50 419 OFFCURVE",
"27 422 CURVE SMOOTH",
"-17 428 LINE",
"-17 480 LINE",
"215 480 LINE",
"215 429 LINE",
"164 423 LINE SMOOTH",
"147 421 OFFCURVE",
"141 415 OFFCURVE",
"141 406 CURVE SMOOTH",
"141 400 OFFCURVE",
"144 394 OFFCURVE",
"147 384 CURVE SMOOTH",
"242 134 LINE",
"281 0 LINE"
);
},
{
closed = 1;
nodes = (
"243 0 LINE",
"282 134 LINE",
"377 384 LINE SMOOTH",
"380 393 OFFCURVE",
"382 400 OFFCURVE",
"382 405 CURVE SMOOTH",
"382 415 OFFCURVE",
"376 421 OFFCURVE",
"358 423 CURVE SMOOTH",
"307 429 LINE",
"307 480 LINE",
"526 480 LINE",
"526 428 LINE",
"482 422 LINE SMOOTH",
"461 419 OFFCURVE",
"455 403 OFFCURVE",
"448 384 CURVE SMOOTH",
"301 0 LINE"
);
}
);
width = 515;
},
{
layerId = "986A7A88-D3C4-446F-ACB8-D1DF408CF975";
paths = (
{
closed = 1;
nodes = (
"292 157 LINE",
"283 112 LINE",
"274 157 LINE",
"193 368 LINE SMOOTH",
"190 376 OFFCURVE",
"187 384 OFFCURVE",
"187 391 CURVE SMOOTH",
"187 399 OFFCURVE",
"192 405 OFFCURVE",
"201 406 CURVE SMOOTH",
"244 412 LINE",
"244 485 LINE",
"1 485 LINE",
"1 412 LINE",
"42 406 LINE SMOOTH",
"62 403 OFFCURVE",
"67 391 OFFCURVE",
"76 368 CURVE SMOOTH",
"223 0 LINE",
"337 0 LINE",
"476 368 LINE SMOOTH",
"485 391 OFFCURVE",
"490 403 OFFCURVE",
"510 406 CURVE SMOOTH",
"551 412 LINE",
"551 485 LINE",
"316 485 LINE",
"316 412 LINE",
"359 406 LINE SMOOTH",
"368 405 OFFCURVE",
"373 399 OFFCURVE",
"373 391 CURVE SMOOTH",
"373 384 OFFCURVE",
"370 376 OFFCURVE",
"367 368 CURVE SMOOTH"
);
}
);
width = 554;
}
);
leftKerningGroup = v;
rightKerningGroup = v;
unicode = 0076;
},
{
glyphname = w;
lastChange = "2016-09-05 13:29:48 +0000";
layers = (
{
layerId = UUID0;
paths = (
{
closed = 1;
nodes = (
"233 132 LINE",
"257 0 LINE",
"195 0 LINE",
"79 384 LINE SMOOTH",
"70 407 OFFCURVE",
"68 419 OFFCURVE",
"45 422 CURVE SMOOTH",
"1 428 LINE",
"1 480 LINE",
"232 480 LINE",
"232 429 LINE",
"181 423 LINE SMOOTH",
"164 421 OFFCURVE",
"158 415 OFFCURVE",
"158 406 CURVE SMOOTH",
"158 400 OFFCURVE",
"161 394 OFFCURVE",
"164 384 CURVE"
);
},
{
closed = 1;
nodes = (
"228 0 LINE",
"254 132 LINE",
"342 429 LINE",
"395 429 LINE",
"366 289 LINE",
"277 0 LINE"
);
},
{
closed = 1;
nodes = (
"474 0 LINE",
"382 289 LINE",
"356 429 LINE",
"420 429 LINE",
"511 132 LINE",
"537 0 LINE"
);
},
{
closed = 1;
nodes = (
"602 384 LINE",
"605 393 OFFCURVE",
"607 400 OFFCURVE",
"607 405 CURVE SMOOTH",
"607 415 OFFCURVE",
"600 421 OFFCURVE",
"583 423 CURVE SMOOTH",
"532 429 LINE",
"532 480 LINE",
"751 480 LINE",
"751 428 LINE",
"707 422 LINE SMOOTH",
"686 419 OFFCURVE",
"679 403 OFFCURVE",
"673 384 CURVE",
"556 0 LINE",
"511 0 LINE",
"533 132 LINE"
);
}
);
width = 761;
},
{
anchors = (
{
name = top;
position = "{386, 0}";
}
);
layerId = "986A7A88-D3C4-446F-ACB8-D1DF408CF975";
paths = (
{
closed = 1;
nodes = (
"538 178 LINE",
"529 133 LINE",
"520 178 LINE",
"447 429 LINE",
"338 429 LINE",
"265 178 LINE",
"256 133 LINE",
"247 178 LINE",
"194 368 LINE SMOOTH",
"190 380 OFFCURVE",
"188 388 OFFCURVE",
"188 394 CURVE SMOOTH",
"188 401 OFFCURVE",
"192 404 OFFCURVE",
"202 406 CURVE SMOOTH",
"245 412 LINE",
"245 485 LINE",
"1 485 LINE",
"1 412 LINE",
"42 406 LINE SMOOTH",
"62 403 OFFCURVE",
"69 392 OFFCURVE",
"76 368 CURVE SMOOTH",
"192 0 LINE",
"304 0 LINE",
"376 225 LINE",
"385 267 LINE",
"394 225 LINE",
"463 0 LINE",
"579 0 LINE",
"696 368 LINE SMOOTH",
"703 392 OFFCURVE",
"710 403 OFFCURVE",
"730 406 CURVE SMOOTH",
"771 412 LINE",
"771 485 LINE",
"539 485 LINE",
"539 412 LINE",
"582 406 LINE SMOOTH",
"592 404 OFFCURVE",
"595 400 OFFCURVE",
"595 393 CURVE SMOOTH",
"595 387 OFFCURVE",
"593 379 OFFCURVE",
"590 368 CURVE SMOOTH"
);
}
);
width = 774;
}
);
leftKerningGroup = v;
rightKerningGroup = v;
unicode = 0077;
},
{
glyphname = x;
lastChange = "2016-09-05 13:29:48 +0000";
layers = (
{
layerId = UUID0;
paths = (
{
closed = 1;
nodes = (
"96 394 LINE",
"77 417 OFFCURVE",
"73 420 OFFCURVE",
"51 424 CURVE SMOOTH",
"18 430 LINE",
"18 480 LINE",
"231 480 LINE",
"231 431 LINE",
"188 425 LINE SMOOTH",
"179 424 OFFCURVE",
"176 421 OFFCURVE",
"176 417 CURVE SMOOTH",
"176 410 OFFCURVE",
"189 399 OFFCURVE",
"193 394 CURVE SMOOTH",
"446 95 LINE SMOOTH",
"463 75 OFFCURVE",
"474 62 OFFCURVE",
"495 58 CURVE SMOOTH",
"528 52 LINE",
"528 0 LINE",
"310 0 LINE",
"310 51 LINE",
"355 57 LINE SMOOTH",
"361 58 OFFCURVE",
"367 61 OFFCURVE",
"367 65 CURVE SMOOTH",
"367 73 OFFCURVE",
"359 83 OFFCURVE",
"348 96 CURVE SMOOTH"
);
},
{
closed = 1;
nodes = (
"291 233 LINE",
"178 95 LINE SMOOTH",
"168 82 OFFCURVE",
"158 72 OFFCURVE",
"158 65 CURVE SMOOTH",
"158 61 OFFCURVE",
"163 58 OFFCURVE",
"169 57 CURVE SMOOTH",
"214 51 LINE",
"214 0 LINE",
"11 0 LINE",
"11 52 LINE",
"44 58 LINE SMOOTH",
"70 63 OFFCURVE",
"84 75 OFFCURVE",
"101 95 CURVE SMOOTH",
"251 276 LINE"
);
},
{
closed = 1;
nodes = (
"260 270 LINE",
"361 394 LINE SMOOTH",
"367 402 OFFCURVE",
"378 411 OFFCURVE",
"378 417 CURVE SMOOTH",
"378 421 OFFCURVE",
"374 424 OFFCURVE",
"365 425 CURVE SMOOTH",
"322 431 LINE",
"322 480 LINE",
"521 480 LINE",
"521 430 LINE",
"488 424 LINE SMOOTH",
"466 420 OFFCURVE",
"455 417 OFFCURVE",
"436 394 CURVE SMOOTH",
"300 226 LINE"
);
}
);
width = 532;
},
{
layerId = "986A7A88-D3C4-446F-ACB8-D1DF408CF975";
paths = (
{
closed = 1;
nodes = (
"329 214 LINE",
"462 376 LINE SMOOTH",
"482 400 OFFCURVE",
"488 402 OFFCURVE",
"514 407 CURVE SMOOTH",
"542 412 LINE",
"542 485 LINE",
"328 485 LINE",
"328 413 LINE",
"351 408 LINE SMOOTH",
"360 406 OFFCURVE",
"364 403 OFFCURVE",
"364 399 CURVE SMOOTH",
"364 394 OFFCURVE",
"358 387 OFFCURVE",
"348 376 CURVE SMOOTH",
"243 252 LINE"
);
},
{
closed = 1;
nodes = (
"237 376 LINE",
"227 387 OFFCURVE",
"220 394 OFFCURVE",
"220 399 CURVE SMOOTH",
"220 403 OFFCURVE",
"223 406 OFFCURVE",
"232 408 CURVE SMOOTH",
"255 413 LINE",
"255 485 LINE",
"24 485 LINE",
"24 412 LINE",
"52 407 LINE SMOOTH",
"73 403 OFFCURVE",
"75 401 OFFCURVE",
"97 376 CURVE SMOOTH",
"329 118 LINE SMOOTH",
"339 106 OFFCURVE",
"347 96 OFFCURVE",
"347 88 CURVE SMOOTH",
"347 83 OFFCURVE",
"344 80 OFFCURVE",
"336 78 CURVE SMOOTH",
"313 73 LINE",
"313 0 LINE",
"550 0 LINE",
"550 74 LINE",
"520 79 LINE SMOOTH",
"502 82 OFFCURVE",
"496 89 OFFCURVE",
"471 117 CURVE SMOOTH"
);
},
{
closed = 1;
nodes = (
"212 260 LINE",
"95 117 LINE SMOOTH",
"75 92 OFFCURVE",
"69 85 OFFCURVE",
"46 80 CURVE SMOOTH",
"16 74 LINE",
"16 0 LINE",
"225 0 LINE",
"225 73 LINE",
"202 78 LINE SMOOTH",
"196 80 OFFCURVE",
"193 83 OFFCURVE",
"193 87 CURVE SMOOTH",
"193 94 OFFCURVE",
"200 104 OFFCURVE",
"211 118 CURVE SMOOTH",
"292 217 LINE"
);
}
);
width = 566;
}
);
unicode = 0078;
},
{
glyphname = y;
lastChange = "2016-09-05 13:29:48 +0000";
layers = (
{
anchors = (
{
name = top;
position = "{256, -10}";
}
);
layerId = UUID0;
paths = (
{
closed = 1;
nodes = (
"254 -130 LINE",
"224 -214 OFFCURVE",
"172 -250 OFFCURVE",
"105 -250 CURVE SMOOTH",
"73 -250 OFFCURVE",
"29 -243 OFFCURVE",
"15 -238 CURVE",
"5 -179 LINE",
"24 -182 OFFCURVE",
"48 -187 OFFCURVE",
"77 -187 CURVE SMOOTH",
"129 -187 OFFCURVE",
"173 -150 OFFCURVE",
"197 -85 CURVE SMOOTH",
"220 -22 LINE",
"64 384 LINE SMOOTH",
"55 407 OFFCURVE",
"53 419 OFFCURVE",
"30 422 CURVE SMOOTH",
"-14 428 LINE",
"-14 480 LINE",
"218 480 LINE",
"218 429 LINE",
"167 423 LINE SMOOTH",
"150 421 OFFCURVE",
"144 415 OFFCURVE",
"144 406 CURVE SMOOTH",
"144 400 OFFCURVE",
"146 394 OFFCURVE",
"150 384 CURVE SMOOTH",
"265 76 LINE",
"377 384 LINE",
"380 393 OFFCURVE",
"382 400 OFFCURVE",
"382 405 CURVE SMOOTH",
"382 415 OFFCURVE",
"376 421 OFFCURVE",
"358 423 CURVE SMOOTH",
"307 429 LINE",
"307 480 LINE",
"526 480 LINE",
"526 428 LINE",
"482 422 LINE SMOOTH",
"461 419 OFFCURVE",
"455 403 OFFCURVE",
"448 384 CURVE SMOOTH"
);
}
);
width = 523;
},
{
anchors = (
{
name = bottom;
position = "{438, 0}";
},
{
name = top;
position = "{288, 5}";
}
);
layerId = "986A7A88-D3C4-446F-ACB8-D1DF408CF975";
paths = (
{
closed = 1;
nodes = (
"486 368 LINE",
"495 390 OFFCURVE",
"501 403 OFFCURVE",
"521 406 CURVE SMOOTH",
"562 412 LINE",
"562 485 LINE",
"328 485 LINE",
"328 412 LINE",
"372 406 LINE SMOOTH",
"381 405 OFFCURVE",
"385 401 OFFCURVE",
"385 395 CURVE SMOOTH",
"385 388 OFFCURVE",
"382 379 OFFCURVE",
"378 368 CURVE SMOOTH",
"290 115 LINE",
"198 368 LINE SMOOTH",
"194 378 OFFCURVE",
"191 387 OFFCURVE",
"191 393 CURVE SMOOTH",
"191 400 OFFCURVE",
"195 404 OFFCURVE",
"205 406 CURVE SMOOTH",
"249 412 LINE",
"249 485 LINE",
"2 485 LINE",
"2 412 LINE",
"43 406 LINE SMOOTH",
"63 403 OFFCURVE",
"68 391 OFFCURVE",
"77 368 CURVE SMOOTH",
"226 -21 LINE",
"209 -70 LINE SMOOTH",
"189 -125 OFFCURVE",
"155 -157 OFFCURVE",
"106 -157 CURVE SMOOTH",
"71 -157 OFFCURVE",
"45 -153 OFFCURVE",
"15 -146 CURVE",
"28 -234 LINE",
"47 -241 OFFCURVE",
"98 -250 OFFCURVE",
"133 -250 CURVE SMOOTH",
"211 -250 OFFCURVE",
"265 -209 OFFCURVE",
"299 -120 CURVE SMOOTH"
);
}
);
width = 564;
}
);
leftKerningGroup = v;
rightKerningGroup = v;
unicode = 0079;
},
{
color = 7;
glyphname = ytilde;
lastChange = "2016-09-05 13:29:48 +0000";
layers = (
{
anchors = (
{
name = top;
position = "{256, -10}";
}
);
layerId = UUID0;
paths = (
{
closed = 1;
nodes = (
"254 -130 LINE",
"224 -214 OFFCURVE",
"172 -250 OFFCURVE",
"105 -250 CURVE SMOOTH",
"73 -250 OFFCURVE",
"29 -243 OFFCURVE",
"15 -238 CURVE",
"5 -179 LINE",
"24 -182 OFFCURVE",
"48 -187 OFFCURVE",
"77 -187 CURVE SMOOTH",
"129 -187 OFFCURVE",
"173 -150 OFFCURVE",
"197 -85 CURVE SMOOTH",
"220 -22 LINE",
"64 384 LINE SMOOTH",
"55 407 OFFCURVE",
"53 419 OFFCURVE",
"30 422 CURVE SMOOTH",
"-14 428 LINE",
"-14 480 LINE",
"218 480 LINE",
"218 429 LINE",
"167 423 LINE SMOOTH",
"150 421 OFFCURVE",
"144 415 OFFCURVE",
"144 406 CURVE SMOOTH",
"144 400 OFFCURVE",
"146 394 OFFCURVE",
"150 384 CURVE SMOOTH",
"265 76 LINE",
"377 384 LINE",
"380 393 OFFCURVE",
"382 400 OFFCURVE",
"382 405 CURVE SMOOTH",
"382 415 OFFCURVE",
"376 421 OFFCURVE",
"358 423 CURVE SMOOTH",
"307 429 LINE",
"307 480 LINE",
"526 480 LINE",
"526 428 LINE",
"482 422 LINE SMOOTH",
"461 419 OFFCURVE",
"455 403 OFFCURVE",
"448 384 CURVE SMOOTH"
);
},
{
closed = 1;
nodes = (
"187 621 LINE SMOOTH",
"161 621 OFFCURVE",
"136 604 OFFCURVE",
"119 590 CURVE",
"104 632 LINE",
"125 662 OFFCURVE",
"157 690 OFFCURVE",
"194 690 CURVE SMOOTH",
"250 690 OFFCURVE",
"289 655 OFFCURVE",
"332 655 CURVE SMOOTH",
"354 655 OFFCURVE",
"384 670 OFFCURVE",
"398 682 CURVE",
"414 642 LINE",
"394 613 OFFCURVE",
"361 584 OFFCURVE",
"325 584 CURVE SMOOTH",
"272 584 OFFCURVE",
"233 621 OFFCURVE",
"187 621 CURVE SMOOTH"
);
}
);
width = 523;
},
{
components = (
{
name = y;
},
{
name = tilde;
transform = "{1, 0, 0, 1, 86, 5}";
}
);
layerId = "986A7A88-D3C4-446F-ACB8-D1DF408CF975";
width = 564;
}
);
unicode = 1EF9;
},
